<svg width="512" height="512" viewBox="0 0 512 512" fill="none" xmlns="http://www.w3.org/2000/svg">
<g clip-path="url(#clip0_36_2)">
<g filter="url(#filter0_d_36_2)">
<path d="M387.417 91C398.77 91 406.2 102.891 401.222 113.094L379.977 156.647C377.402 161.925 372.044 165.273 366.172 165.273H302.19C293.707 165.273 286.83 172.149 286.83 180.633V393.487C286.83 397.145 285.525 400.683 283.149 403.464L261.294 429.046C256.394 434.781 248.054 436.11 241.615 432.18L220.004 418.992C215.433 416.203 212.645 411.235 212.645 405.881V180.633C212.645 172.149 205.768 165.273 197.285 165.273H125.584C114.231 165.273 106.801 153.381 111.779 143.178L133.025 99.6254C135.6 94.3479 140.958 91 146.83 91H387.417Z" fill="#B9BCDB"/>
</g>
<g filter="url(#filter1_f_36_2)">
<path d="M387.417 91C398.77 91 406.2 102.891 401.222 113.094L379.977 156.647C377.402 161.925 372.044 165.273 366.172 165.273H302.19C293.707 165.273 286.83 172.149 286.83 180.633V393.487C286.83 397.145 285.525 400.683 283.149 403.464L261.294 429.046C256.394 434.781 248.054 436.11 241.615 432.18L220.004 418.992C215.433 416.203 212.645 411.235 212.645 405.881V180.633C212.645 172.149 205.768 165.273 197.285 165.273H125.584C114.231 165.273 106.801 153.381 111.779 143.178L133.025 99.6254C135.6 94.3479 140.958 91 146.83 91H387.417Z" fill="#B9BCDB" fill-opacity="0.32"/>
</g>
</g>
<defs>
<filter id="filter0_d_36_2" x="99.9643" y="91" width="313.072" height="363.909" filterUnits="userSpaceOnUse" color-interpolation-filters="sRGB">
<feFlood flood-opacity="0" result="BackgroundImageFix"/>
<feColorMatrix in="SourceAlpha" type="matrix" values="0 0 0 0 0 0 0 0 0 0 0 0 0 0 0 0 0 0 127 0" result="hardAlpha"/>
<feOffset dy="10.24"/>
<feGaussianBlur stdDeviation="5.12"/>
<feComposite in2="hardAlpha" operator="out"/>
<feColorMatrix type="matrix" values="0 0 0 0 0 0 0 0 0 0 0 0 0 0 0 0 0 0 0.25 0"/>
<feBlend mode="normal" in2="BackgroundImageFix" result="effect1_dropShadow_36_2"/>
<feBlend mode="normal" in="SourceGraphic" in2="effect1_dropShadow_36_2" result="shape"/>
</filter>
<filter id="filter1_f_36_2" x="-1.39565" y="-20.6" width="515.792" height="566.629" filterUnits="userSpaceOnUse" color-interpolation-filters="sRGB">
<feFlood flood-opacity="0" result="BackgroundImageFix"/>
<feBlend mode="normal" in="SourceGraphic" in2="BackgroundImageFix" result="shape"/>
<feGaussianBlur stdDeviation="55.8" result="effect1_foregroundBlur_36_2"/>
</filter>
<clipPath id="clip0_36_2">
<rect width="512" height="512" fill="white"/>
</clipPath>
</defs>
</svg>
