<svg width="1000" height="1000" viewBox="0 0 1000 1000" fill="none" xmlns="http://www.w3.org/2000/svg">
<path d="M233.516 410.086C236.826 409.849 239.773 410.078 242.927 411.057C257.935 415.718 272.934 420.717 287.898 425.519L387.906 457.904L444.108 476.062C454.093 479.283 465.088 482.508 474.707 486.52C480.846 489.08 485.435 494.649 487.598 500.948C489.882 507.517 489.358 514.731 486.153 520.905C484.244 524.571 480.321 529.163 476.617 530.924C465.639 536.136 451.446 540.006 439.752 543.764L376.498 564.201L289.945 592.246L261.28 601.615C249.038 605.608 234.811 612.176 222.828 604.323C216.859 600.406 212.747 594.232 211.439 587.224C210.54 582.427 211.106 577.471 213.065 573.002C215.453 567.431 225.286 554.776 229.34 549.237L258.574 509.166C250.161 497.239 214.841 452.187 212.057 442.76C210.055 436.129 210.922 428.965 214.448 422.999C218.94 415.363 225.307 412.089 233.516 410.086Z" fill="#E75630"/>
<path d="M489.061 567C493.732 567.271 496.917 567.9 500.906 570.604C505.583 573.779 508.767 578.703 509.736 584.26C510.531 588.882 509.46 592.681 507.449 596.873C501.424 609.42 494.773 622.028 488.44 634.421L450.132 709.27L429.338 749.936C426.147 756.153 422.888 763.147 419.199 768.945C413.47 777.959 399.308 779.36 390.967 773.388C382.022 766.987 382.104 756.041 380.364 746.271C378.915 738.146 377.84 729.89 376.759 721.76C376.042 715.963 374.481 708.6 373.458 702.685C362.821 701.346 351.628 699.802 341.101 697.741C326.006 694.786 302.301 696.667 299.297 676.866C297.555 665.383 303.641 659.038 313.068 654.166C324.15 648.435 335.285 642.836 346.393 637.202L406.009 606.848L452.508 583.238C461.372 578.723 480.26 567.946 489.061 567Z" fill="white"/>
<path d="M388.073 235.158C396.422 234.434 404.554 236.008 409.153 243.913C414.631 253.328 419.451 263.336 424.417 273.046L453.071 329.076L482.753 387.064C487.908 397.165 493.515 407.665 498.102 418.037C500.98 424.17 500.305 427.503 497.947 433.687C495.157 441.019 484.574 447.535 476.71 445.681C467.642 443.544 457.464 437.441 448.902 433.04L424.775 420.806C396.16 405.613 366.078 391.452 337.319 376.321C324.46 369.555 310.651 363.271 297.982 356.085C292.571 353.032 289.87 348.671 288.409 342.793C286.419 334.782 291.913 322.972 300.012 320.382C309.486 317.351 321.194 315.95 331.208 314.475C341.842 312.99 352.442 311.283 363.003 309.354C363.275 305.225 364.952 296.826 365.841 291.856C368.44 277.332 369.691 259.472 374.291 245.616C375.963 240.578 383.232 236.9 388.073 235.158Z" fill="white"/>
<path d="M559.194 582.052C566.029 581.569 574.165 584.457 576.975 591.222C581.43 601.94 584.722 613.439 588.305 624.511L608.047 685.681L623.381 733.095C625.742 740.394 629.013 749.215 630.646 756.447C633.641 769.73 616.966 781.907 605.083 775.004C599.554 771.791 594.808 767.982 589.795 764.302C580.933 757.727 572.019 751.225 563.055 744.794L562.353 744.1C557.612 743.643 523.335 774.5 513.643 776.361C500.46 778.895 489.017 767.412 492.698 754.386C495.294 745.205 499.021 734.956 502.057 725.528L521.513 665.212L536.826 617.849C539.457 609.64 541.951 601.22 545.007 593.165C547.444 586.74 552.636 583.388 559.194 582.052Z" fill="white"/>
<path d="M493.869 223.203C502.238 222.181 508.75 226.952 515.093 231.787C525.931 240.046 537.42 247.705 548.063 256.187C561.697 248.04 576.953 234.021 590.916 225.723C595.391 223.063 600.486 222.198 605.546 223.817C610.293 225.361 614.198 228.788 616.353 233.298C618.903 238.667 618.123 242.861 616.496 248.278C613.31 258.878 609.677 269.429 606.269 279.954L580.171 360.566L570.78 389.803C567.506 400.009 565.033 413.445 553.764 417.266C546.364 419.775 536.024 415.608 532.874 408.508C529.8 401.583 527.511 393.522 525.192 386.292L514.19 352.409L492.268 284.587C488.399 272.602 484.415 260.593 480.685 248.57C478.8 242.496 477.87 237.858 481.315 231.957C484.305 226.835 488.394 224.643 493.869 223.203Z" fill="white"/>
<path d="M772.885 432.022C783.438 431.445 792.126 442.254 787.88 452.138C785.403 457.9 780.228 464.166 776.485 469.292C771.105 476.733 765.633 484.104 760.064 491.404C769.377 501.945 778.546 516.892 786.874 528.419C793.577 537.687 783.192 552.572 772.9 550.865C765.561 549.645 755.649 545.837 748.223 543.443L693.525 525.708L654.93 513.237C644.166 509.746 623.858 506.245 622.161 493.704C621.155 486.26 624.925 479.907 631.914 477.228C639.007 474.512 646.043 472.344 653.217 469.999L696.187 456.111L743.884 440.633C751.397 438.191 765.531 433.159 772.885 432.022Z" fill="white"/>
<path d="M614.708 538.011C622.226 537.635 637.911 547.146 645.418 551.017L687.458 572.561L727.983 593.339C735.793 597.333 743.105 601.193 751.099 605.521C762.224 609.736 761.17 628.923 750.638 632.31C736.565 636.834 717.922 638.141 703.169 640.921C702.437 644.611 701.9 648.986 701.342 652.753C701.265 654.626 700.815 657.967 700.416 660.025C697.545 675.239 698.246 704.72 674.004 695.116C668.692 693.011 660.172 673.613 657.321 667.941L637.962 629.639L614.371 583.194C610.174 574.954 604.386 564.944 601.567 556.292C598.721 547.579 607.134 540.095 614.708 538.011Z" fill="white"/>
<path d="M671.379 289C691.077 289.176 689.184 307.922 691.659 322.259C692.985 329.926 694.006 337.635 695.568 345.273C709.269 347.953 722.711 349.261 736.362 351.998C741.414 353.061 745.925 354.552 748.671 359.34C752.585 366.157 751.727 374.954 744.869 379.393C735.663 385.352 725.538 389.923 715.822 394.971L653.217 427.282C645.44 431.155 637.065 435.506 629.401 439.665C614.719 447.633 599.256 456.128 593 432.976C594.827 425.268 603.222 409.938 607.176 402.056L632.406 352.049L649.476 318.219C651.91 313.339 654.299 308.402 656.779 303.545C660.535 296.172 662.867 291.193 671.379 289Z" fill="white"/>
</svg>
