<svg width="512" height="512" viewBox="0 0 512 512" fill="none" xmlns="http://www.w3.org/2000/svg">
<path d="M30.7198 256C30.7198 159.925 30.7198 111.888 56.1126 78.7954C62.6499 70.2758 70.2757 62.65 78.7952 56.1127C111.888 30.72 159.925 30.72 256 30.72C352.075 30.72 400.112 30.72 433.204 56.1127C441.724 62.65 449.35 70.2758 455.887 78.7954C481.28 111.888 481.28 159.925 481.28 256C481.28 352.075 481.28 400.112 455.887 433.205C449.35 441.724 441.724 449.35 433.204 455.887C400.112 481.28 352.075 481.28 256 481.28C159.925 481.28 111.888 481.28 78.7952 455.887C70.2757 449.35 62.6499 441.724 56.1126 433.205C30.7198 400.112 30.7198 352.075 30.7198 256Z" fill="#18C374"/>
<path fill-rule="evenodd" clip-rule="evenodd" d="M380.474 286.456C373.992 246.647 351.055 215.428 319.689 197.627L338.081 157.163C340.933 150.889 338.158 143.49 331.884 140.638C325.609 137.786 318.21 140.56 315.358 146.835L296.853 187.548C283.998 183.344 270.246 181.12 255.999 181.12C241.753 181.12 228.001 183.344 215.147 187.548L196.641 146.835C193.789 140.56 186.391 137.786 180.116 140.638C173.841 143.49 171.067 150.889 173.919 157.163L192.311 197.627C160.944 215.427 138.007 246.647 131.524 286.455C129.364 299.723 128.578 313.982 133.311 326.938C138.724 341.754 149.766 350.919 162.73 356.067C174.404 360.703 188.373 362.425 202.741 363.265C217.489 364.127 235.407 364.158 255.999 364.158C276.592 364.158 294.51 364.127 309.257 363.265C323.625 362.425 337.594 360.703 349.268 356.067C362.232 350.919 373.274 341.754 378.687 326.938C383.42 313.983 382.635 299.724 380.474 286.456ZM156.16 290.467C148.327 338.565 172.8 339.198 255.999 339.198C339.199 339.198 363.67 338.565 355.839 290.467C347.517 239.36 305.922 206.08 255.999 206.08C206.077 206.08 164.483 239.36 156.16 290.467ZM297.6 310.079C290.707 310.079 285.12 304.492 285.12 297.599V272.639C285.12 265.747 290.707 260.159 297.6 260.159C304.492 260.159 310.079 265.747 310.079 272.639V297.599C310.079 304.492 304.492 310.079 297.6 310.079ZM201.92 297.599C201.92 304.492 207.507 310.079 214.4 310.079C221.292 310.079 226.88 304.492 226.88 297.599V272.639C226.88 265.747 221.292 260.159 214.4 260.159C207.507 260.159 201.92 265.747 201.92 272.639V297.599Z" fill="white"/>
</svg>
