<svg width="512" height="512" viewBox="0 0 512 512" fill="none" xmlns="http://www.w3.org/2000/svg">
<path d="M30.7196 256C30.7196 159.925 30.7196 111.888 56.1123 78.7956C62.6496 70.2761 70.2755 62.6502 78.795 56.113C111.887 30.7202 159.925 30.7202 256 30.7202C352.074 30.7202 400.112 30.7202 433.204 56.113C441.724 62.6502 449.35 70.2761 455.887 78.7956C481.28 111.888 481.28 159.925 481.28 256C481.28 352.075 481.28 400.112 455.887 433.205C449.35 441.724 441.724 449.35 433.204 455.887C400.112 481.28 352.074 481.28 256 481.28C159.925 481.28 111.887 481.28 78.795 455.887C70.2755 449.35 62.6496 441.724 56.1123 433.205C30.7196 400.112 30.7196 352.075 30.7196 256Z" fill="#030F21"/>
<path d="M168.699 164.967C174.641 165.497 179.199 170.477 179.199 176.442V337.632C179.196 344.394 173.395 349.705 166.659 349.107C160.72 348.576 156.162 343.594 156.159 337.632V176.442C156.159 169.676 161.961 164.368 168.699 164.967ZM315.219 167.922C333.099 156.257 356.784 169.089 356.784 190.437V320.652C356.784 341.999 333.099 354.831 315.219 343.167L215.424 278.052C199.172 267.446 199.173 243.644 215.424 233.037L315.219 167.922Z" fill="white"/>
</svg>
