<svg width="512" height="512" viewBox="0 0 512 512" fill="none" xmlns="http://www.w3.org/2000/svg">
<path d="M30.7196 256C30.7196 159.925 30.7196 111.888 56.1123 78.7956C62.6496 70.2761 70.2755 62.6502 78.795 56.113C111.887 30.7202 159.925 30.7202 256 30.7202C352.074 30.7202 400.112 30.7202 433.204 56.113C441.724 62.6502 449.35 70.2761 455.887 78.7956C481.28 111.888 481.28 159.925 481.28 256C481.28 352.075 481.28 400.112 455.887 433.205C449.35 441.724 441.724 449.35 433.204 455.887C400.112 481.28 352.074 481.28 256 481.28C159.925 481.28 111.887 481.28 78.795 455.887C70.2755 449.35 62.6496 441.724 56.1123 433.205C30.7196 400.112 30.7196 352.075 30.7196 256Z" fill="#030F21"/>
<path fill-rule="evenodd" clip-rule="evenodd" d="M347.52 296.285V213.983L314.24 225.869V260.16C314.24 267.052 308.652 272.64 301.76 272.64C294.867 272.64 289.28 267.052 289.28 260.16V234.783L251.84 248.154V349.462L331.324 319.656C341.066 316.003 347.52 306.689 347.52 296.285ZM310.01 200.875L336.643 191.364C335.717 190.731 334.742 190.157 333.722 189.647L280.947 163.26C274.74 160.156 267.52 159.777 261.021 162.214L245.36 168.087L307.341 199.077C308.318 199.566 309.213 200.173 310.01 200.875ZM213.467 180.046L277.994 212.31L240.177 225.815L176.858 194.156C178.063 193.453 179.338 192.845 180.676 192.343L213.467 180.046ZM226.88 247.073L164.48 215.873V300.027C164.48 309.481 169.821 318.124 178.277 322.352L226.88 346.653V247.073ZM139.52 215.714C139.52 208.463 141.087 201.476 143.954 195.142C144.171 194.136 144.516 193.141 144.997 192.178C145.601 190.97 146.375 189.903 147.275 188.99C152.965 180.015 161.499 172.877 171.911 168.973L252.257 138.843C265.254 133.969 279.694 134.727 292.11 140.935L344.884 167.322C361.797 175.778 372.48 193.064 372.48 211.972V296.285C372.48 317.094 359.572 335.72 340.088 343.027L259.742 373.156C246.745 378.03 232.305 377.272 219.889 371.064L167.115 344.677C150.203 336.221 139.52 318.936 139.52 300.027V215.714Z" fill="white"/>
</svg>
