<svg width="512" height="512" viewBox="0 0 512 512" fill="none" xmlns="http://www.w3.org/2000/svg">
<path d="M30.72 256C30.72 159.925 30.72 111.888 56.1127 78.7954C62.65 70.2758 70.2758 62.65 78.7954 56.1127C111.888 30.72 159.925 30.72 256 30.72C352.075 30.72 400.112 30.72 433.205 56.1127C441.724 62.65 449.35 70.2758 455.887 78.7954C481.28 111.888 481.28 159.925 481.28 256C481.28 352.075 481.28 400.112 455.887 433.205C449.35 441.724 441.724 449.35 433.205 455.887C400.112 481.28 352.075 481.28 256 481.28C159.925 481.28 111.888 481.28 78.7954 455.887C70.2758 449.35 62.65 441.724 56.1127 433.205C30.72 400.112 30.72 352.075 30.72 256Z" fill="#FF3333"/>
<g clip-path="url(#clip0_3216_17044)">
<path fill-rule="evenodd" clip-rule="evenodd" d="M220.47 123.397C227.127 121.613 233.97 125.564 235.754 132.222L244.587 165.185C248.326 164.719 252.134 164.48 255.999 164.48C265.859 164.48 275.355 166.039 284.254 168.925C291.822 161.056 302.458 156.16 314.238 156.16C337.213 156.16 355.838 174.785 355.838 197.76C355.838 209.54 350.942 220.176 343.074 227.744C345.96 236.643 347.519 246.139 347.519 256C347.519 259.865 347.28 263.675 346.814 267.414L379.776 276.246C386.433 278.03 390.384 284.873 388.6 291.531C386.816 298.189 379.973 302.14 373.315 300.356L340.368 291.527C337.38 298.613 333.526 305.244 328.938 311.288L353.072 335.422C357.946 340.295 357.946 348.197 353.072 353.071C348.198 357.945 340.296 357.945 335.422 353.071L311.289 328.937C305.245 333.526 298.614 337.381 291.527 340.368L300.356 373.317C302.139 379.975 298.189 386.818 291.531 388.602C284.873 390.386 278.03 386.435 276.246 379.777L267.414 346.815C263.674 347.28 259.865 347.52 255.999 347.52C205.454 347.52 164.479 306.545 164.479 256C164.479 252.135 164.719 248.326 165.184 244.587L132.22 235.754C125.563 233.971 121.612 227.127 123.396 220.47C125.18 213.812 132.023 209.861 138.68 211.645L171.63 220.474C174.618 213.387 178.473 206.755 183.062 200.71L158.929 176.577C154.055 171.703 154.055 163.801 158.929 158.928C163.802 154.054 171.704 154.054 176.578 158.928L200.711 183.061C206.755 178.473 213.387 174.618 220.473 171.631L211.645 138.682C209.861 132.024 213.812 125.181 220.47 123.397ZM255.999 322.56C292.759 322.56 322.559 292.76 322.559 256C322.559 219.24 292.759 189.44 255.999 189.44C219.239 189.44 189.439 219.24 189.439 256C189.439 269.87 193.682 282.749 200.94 293.41L262.978 231.371C267.852 226.498 275.754 226.498 280.628 231.371C285.501 236.245 285.501 244.147 280.628 249.021L218.589 311.06C229.25 318.318 242.129 322.56 255.999 322.56Z" fill="white"/>
</g>
<defs>
<clipPath id="clip0_3216_17044">
<rect width="266.24" height="266.24" fill="white" transform="translate(122.88 122.88)"/>
</clipPath>
</defs>
</svg>
