<svg width="512" height="512" viewBox="0 0 512 512" fill="none" xmlns="http://www.w3.org/2000/svg">
<path d="M30.7197 256C30.7197 159.925 30.7197 111.888 56.1125 78.7954C62.6497 70.2758 70.2756 62.65 78.7951 56.1127C111.888 30.72 159.925 30.72 256 30.72C352.074 30.72 400.112 30.72 433.204 56.1127C441.724 62.65 449.35 70.2758 455.887 78.7954C481.28 111.888 481.28 159.925 481.28 256C481.28 352.075 481.28 400.112 455.887 433.205C449.35 441.724 441.724 449.35 433.204 455.887C400.112 481.28 352.074 481.28 256 481.28C159.925 481.28 111.888 481.28 78.7951 455.887C70.2756 449.35 62.6497 441.724 56.1125 433.205C30.7197 400.112 30.7197 352.075 30.7197 256Z" fill="#FA8824"/>
<path fill-rule="evenodd" clip-rule="evenodd" d="M330.88 189.44L330.88 322.56C330.88 336.345 319.705 347.52 305.92 347.52L206.08 347.52C192.295 347.52 181.12 336.345 181.12 322.56L181.12 189.44C181.12 175.655 192.295 164.48 206.08 164.48L305.92 164.48C319.705 164.48 330.88 175.655 330.88 189.44ZM305.92 139.52C333.49 139.52 355.84 161.87 355.84 189.44L355.84 322.56C355.84 350.13 333.49 372.48 305.92 372.48L206.08 372.48C178.51 372.48 156.16 350.13 156.16 322.56L156.16 189.44C156.16 161.87 178.51 139.52 206.08 139.52L305.92 139.52ZM277.565 280.96C293.92 280.96 305.92 269.356 305.92 253.591C305.92 231.821 282.962 216.211 264.927 203.949C261.747 201.787 258.721 199.729 256 197.76C253.307 199.709 250.315 201.747 247.171 203.888L247.171 203.889C229.122 216.183 206.08 231.878 206.08 253.591C206.08 269.356 218.081 280.96 234.434 280.96C240.882 280.96 246.356 278.9 250.643 275.221C248.586 284.468 243.936 293.024 237.132 299.828L231.04 305.92L231.04 314.24L280.96 314.24L280.96 305.92L274.868 299.828C268.064 293.024 263.414 284.468 261.357 275.221C265.644 278.9 271.117 280.96 277.565 280.96Z" fill="white"/>
</svg>
