<svg width="512" height="512" viewBox="0 0 512 512" fill="none" xmlns="http://www.w3.org/2000/svg">
<path d="M30.72 256C30.72 159.925 30.72 111.888 56.1127 78.7956C62.65 70.2761 70.2758 62.6502 78.7954 56.113C111.888 30.7202 159.925 30.7202 256 30.7202C352.075 30.7202 400.112 30.7202 433.205 56.113C441.724 62.6502 449.35 70.2761 455.887 78.7956C481.28 111.888 481.28 159.925 481.28 256C481.28 352.075 481.28 400.112 455.887 433.205C449.35 441.724 441.724 449.35 433.205 455.887C400.112 481.28 352.075 481.28 256 481.28C159.925 481.28 111.888 481.28 78.7954 455.887C70.2758 449.35 62.65 441.724 56.1127 433.205C30.72 400.112 30.72 352.075 30.72 256Z" fill="#FA8824"/>
<path fill-rule="evenodd" clip-rule="evenodd" d="M330.88 189.44L330.88 322.56C330.88 336.345 319.705 347.52 305.92 347.52L206.08 347.52C192.295 347.52 181.12 336.345 181.12 322.56L181.12 189.44C181.12 175.655 192.295 164.48 206.08 164.48L305.92 164.48C319.705 164.48 330.88 175.655 330.88 189.44ZM305.92 139.52C333.49 139.52 355.84 161.87 355.84 189.44L355.84 322.56C355.84 350.13 333.49 372.48 305.92 372.48L206.08 372.48C178.51 372.48 156.16 350.13 156.16 322.56L156.16 189.44C156.16 161.87 178.51 139.52 206.08 139.52L305.92 139.52ZM280.96 222.72C280.96 225.652 280.454 228.467 279.525 231.081C280 231.054 280.478 231.04 280.96 231.04C294.745 231.04 305.92 242.215 305.92 256C305.92 269.785 294.745 280.96 280.96 280.96C272.507 280.96 265.036 276.758 260.521 270.33C261.859 281.434 266.878 291.838 274.868 299.828L280.96 305.92L280.96 314.24L231.04 314.24L231.04 305.92L237.132 299.828C245.122 291.838 250.141 281.434 251.479 270.33C246.964 276.758 239.492 280.96 231.04 280.96C217.255 280.96 206.08 269.785 206.08 256C206.08 242.215 217.255 231.04 231.04 231.04C231.521 231.04 232 231.054 232.474 231.081C231.546 228.467 231.04 225.652 231.04 222.72C231.04 208.935 242.215 197.76 256 197.76C269.785 197.76 280.96 208.935 280.96 222.72Z" fill="white"/>
</svg>
