<svg width="512" height="512" viewBox="0 0 512 512" fill="none" xmlns="http://www.w3.org/2000/svg">
<path d="M30.7208 256C30.7208 159.925 30.7208 111.888 56.1135 78.7956C62.6508 70.2761 70.2766 62.6502 78.7962 56.113C111.889 30.7202 159.926 30.7202 256.001 30.7202C352.076 30.7202 400.113 30.7202 433.205 56.113C441.725 62.6502 449.351 70.2761 455.888 78.7956C481.281 111.888 481.281 159.925 481.281 256C481.281 352.075 481.281 400.112 455.888 433.205C449.351 441.724 441.725 449.35 433.205 455.887C400.113 481.28 352.076 481.28 256.001 481.28C159.926 481.28 111.889 481.28 78.7962 455.887C70.2766 449.35 62.6508 441.724 56.1135 433.205C30.7208 400.112 30.7208 352.075 30.7208 256Z" fill="#030F21"/>
<path fill-rule="evenodd" clip-rule="evenodd" d="M347.521 330.88H164.482C159.887 330.88 156.162 327.155 156.162 322.56V295.746L202.945 262.723C209.97 257.764 219.322 257.639 226.477 262.409L255.648 281.856C276.142 295.519 303.774 290.509 318.167 270.52L355.841 218.194V322.56C355.841 327.155 352.116 330.88 347.521 330.88ZM351.172 181.961L297.911 255.935C291.369 265.021 278.809 267.299 269.493 261.089L240.322 241.641C224.582 231.147 204.006 231.422 188.551 242.331L156.162 265.194V189.44C156.162 184.845 159.887 181.12 164.482 181.12H347.521C348.831 181.12 350.07 181.422 351.172 181.961ZM131.202 289.13V189.44C131.202 171.06 146.102 156.16 164.482 156.16H347.521C365.901 156.16 380.801 171.06 380.801 189.44V322.56C380.801 340.94 365.901 355.84 347.521 355.84H164.482C146.102 355.84 131.202 340.94 131.202 322.56V289.451C131.2 289.344 131.2 289.237 131.202 289.13Z" fill="white"/>
</svg>
