<svg width="512" height="512" viewBox="0 0 512 512" fill="none" xmlns="http://www.w3.org/2000/svg">
<path d="M30.7202 256C30.7202 159.925 30.7202 111.888 56.113 78.7956C62.6502 70.2761 70.2761 62.6502 78.7956 56.113C111.888 30.7202 159.925 30.7202 256 30.7202C352.075 30.7202 400.112 30.7202 433.205 56.113C441.724 62.6502 449.35 70.2761 455.887 78.7956C481.28 111.888 481.28 159.925 481.28 256C481.28 352.075 481.28 400.112 455.887 433.205C449.35 441.724 441.724 449.35 433.205 455.887C400.112 481.28 352.075 481.28 256 481.28C159.925 481.28 111.888 481.28 78.7956 455.887C70.2761 449.35 62.6502 441.724 56.113 433.205C30.7202 400.112 30.7202 352.075 30.7202 256Z" fill="#030F21"/>
<g clip-path="url(#clip0_3219_236)">
<path fill-rule="evenodd" clip-rule="evenodd" d="M322.484 133.983C321.723 127.132 315.552 122.196 308.702 122.957C301.852 123.718 296.916 129.889 297.677 136.739L309.079 239.361H294.646C267.373 239.361 246.472 263.464 241.463 290.273C237.127 313.477 228.909 333.209 221.483 347.521C213.3 363.292 206.08 372.481 206.08 372.481H236.089H347.52C347.52 372.481 382.145 343.627 388.916 281.112C391.464 257.582 370.999 239.361 347.332 239.361H334.193L322.484 133.983ZM185.28 164.481C178.388 164.481 172.8 170.068 172.8 176.961C172.8 183.853 178.388 189.441 185.28 189.441H260.16C267.053 189.441 272.64 183.853 272.64 176.961C272.64 170.068 267.053 164.481 260.16 164.481H185.28ZM135.36 222.721C128.468 222.721 122.88 228.308 122.88 235.201C122.88 242.093 128.468 247.681 135.36 247.681H226.88C233.773 247.681 239.36 242.093 239.36 235.201C239.36 228.308 233.773 222.721 226.88 222.721H135.36ZM139.52 293.441C139.52 286.548 145.108 280.961 152 280.961H193.6C200.493 280.961 206.08 286.548 206.08 293.441C206.08 300.333 200.493 305.921 193.6 305.921H152C145.108 305.921 139.52 300.333 139.52 293.441ZM249.225 347.521C255.769 333.108 262.192 315.228 265.998 294.857C269.628 275.426 283.395 264.321 294.646 264.321H347.332C352.867 264.321 357.63 266.481 360.608 269.36C363.365 272.025 364.467 275.043 364.101 278.425C361.177 305.424 352.318 324.668 344.583 336.9C341.777 341.338 339.106 344.871 336.901 347.521H320.288C329.245 335.778 335.04 318.769 335.04 301.761H322.56C316.719 322.207 304.725 336.5 286.579 347.521H249.225Z" fill="white"/>
</g>
<defs>
<clipPath id="clip0_3219_236">
<rect width="266.24" height="266.24" fill="white" transform="translate(122.88 122.88)"/>
</clipPath>
</defs>
</svg>
