<svg width="512" height="512" viewBox="0 0 512 512" fill="none" xmlns="http://www.w3.org/2000/svg">
<path d="M30.7197 256C30.7197 159.925 30.7197 111.888 56.1125 78.7954C62.6497 70.2758 70.2756 62.65 78.7951 56.1127C111.888 30.72 159.925 30.72 256 30.72C352.074 30.72 400.112 30.72 433.204 56.1127C441.724 62.65 449.35 70.2758 455.887 78.7954C481.28 111.888 481.28 159.925 481.28 256C481.28 352.075 481.28 400.112 455.887 433.205C449.35 441.724 441.724 449.35 433.204 455.887C400.112 481.28 352.074 481.28 256 481.28C159.925 481.28 111.888 481.28 78.7951 455.887C70.2756 449.35 62.6497 441.724 56.1125 433.205C30.7197 400.112 30.7197 352.075 30.7197 256Z" fill="#030F21"/>
<path fill-rule="evenodd" clip-rule="evenodd" d="M243.52 152.001V190.61C212.725 196.451 189.44 223.507 189.44 256.001C189.44 288.496 212.725 315.552 243.52 321.393V360.001C243.52 366.893 249.107 372.481 256 372.481C262.892 372.481 268.48 366.893 268.48 360.001V321.393C299.275 315.552 322.56 288.496 322.56 256.001C322.56 223.507 299.275 196.451 268.48 190.61V152.001C268.48 145.109 262.892 139.521 256 139.521C249.107 139.521 243.52 145.109 243.52 152.001ZM256 297.601C278.975 297.601 297.6 278.977 297.6 256.001C297.6 233.026 278.975 214.401 256 214.401C233.025 214.401 214.4 233.026 214.4 256.001C214.4 278.977 233.025 297.601 256 297.601Z" fill="white"/>
</svg>
