<svg width="512" height="512" viewBox="0 0 512 512" fill="none" xmlns="http://www.w3.org/2000/svg">
<path d="M30.7204 256C30.7204 159.925 30.7204 111.888 56.1131 78.7956C62.6504 70.2761 70.2762 62.6502 78.7958 56.113C111.888 30.7202 159.926 30.7202 256 30.7202C352.075 30.7202 400.113 30.7202 433.205 56.113C441.725 62.6502 449.35 70.2761 455.888 78.7956C481.28 111.888 481.28 159.925 481.28 256C481.28 352.075 481.28 400.112 455.888 433.205C449.35 441.724 441.725 449.35 433.205 455.887C400.113 481.28 352.075 481.28 256 481.28C159.926 481.28 111.888 481.28 78.7958 455.887C70.2762 449.35 62.6504 441.724 56.1131 433.205C30.7204 400.112 30.7204 352.075 30.7204 256Z" fill="#030F21"/>
<path fill-rule="evenodd" clip-rule="evenodd" d="M322.56 181.12H189.44C175.655 181.12 164.48 192.295 164.48 206.08V305.92C164.48 319.705 175.655 330.88 189.44 330.88H322.56C336.345 330.88 347.52 319.705 347.52 305.92V206.08C347.52 192.295 336.345 181.12 322.56 181.12ZM189.44 156.16C161.87 156.16 139.52 178.51 139.52 206.08V305.92C139.52 333.49 161.87 355.84 189.44 355.84H322.56C350.13 355.84 372.48 333.49 372.48 305.92V206.08C372.48 178.51 350.13 156.16 322.56 156.16H189.44ZM197.256 298.104C192.382 293.231 192.382 285.329 197.256 280.455L221.711 256L197.256 231.544C192.382 226.671 192.382 218.769 197.256 213.895C202.129 209.021 210.031 209.021 214.905 213.895L248.185 247.175C253.059 252.049 253.059 259.951 248.185 264.824L214.905 298.104C210.031 302.978 202.129 302.978 197.256 298.104ZM268.48 280.96C261.588 280.96 256 286.547 256 293.44C256 300.332 261.588 305.92 268.48 305.92H310.08C316.973 305.92 322.56 300.332 322.56 293.44C322.56 286.547 316.973 280.96 310.08 280.96H268.48Z" fill="white"/>
</svg>
