<svg width="512" height="512" viewBox="0 0 512 512" fill="none" xmlns="http://www.w3.org/2000/svg">
<path d="M30.7197 256C30.7197 159.925 30.7197 111.888 56.1125 78.7956C62.6497 70.2761 70.2756 62.6502 78.7951 56.113C111.888 30.7202 159.925 30.7202 256 30.7202C352.074 30.7202 400.112 30.7202 433.204 56.113C441.724 62.6502 449.35 70.2761 455.887 78.7956C481.28 111.888 481.28 159.925 481.28 256C481.28 352.075 481.28 400.112 455.887 433.205C449.35 441.724 441.724 449.35 433.204 455.887C400.112 481.28 352.074 481.28 256 481.28C159.925 481.28 111.888 481.28 78.7951 455.887C70.2756 449.35 62.6497 441.724 56.1125 433.205C30.7197 400.112 30.7197 352.075 30.7197 256Z" fill="#030F21"/>
<path fill-rule="evenodd" clip-rule="evenodd" d="M239.36 143.68C239.36 136.787 233.772 131.2 226.88 131.2C219.987 131.2 214.4 136.787 214.4 143.68L214.4 164.48C186.83 164.48 164.48 186.83 164.48 214.4H143.679C136.786 214.4 131.199 219.987 131.199 226.88C131.199 233.772 136.786 239.36 143.679 239.36H164.48V272.64H143.679C136.786 272.64 131.199 278.227 131.199 285.12C131.199 292.012 136.786 297.6 143.679 297.6H164.48C164.48 325.17 186.83 347.52 214.4 347.52V368.32C214.4 375.212 219.987 380.8 226.88 380.8C233.772 380.8 239.36 375.212 239.36 368.32V347.52H272.64V368.32C272.64 375.212 278.227 380.8 285.12 380.8C292.012 380.8 297.6 375.212 297.6 368.32V347.52C325.17 347.52 347.52 325.17 347.52 297.6H368.319C375.211 297.6 380.799 292.012 380.799 285.12C380.799 278.227 375.211 272.64 368.319 272.64H347.52V239.36H368.319C375.211 239.36 380.799 233.772 380.799 226.88C380.799 219.987 375.211 214.4 368.319 214.4H347.52C347.52 186.83 325.17 164.48 297.6 164.48V143.68C297.6 136.787 292.012 131.2 285.12 131.2C278.227 131.2 272.64 136.787 272.64 143.68V164.48H239.36V143.68ZM297.6 189.44H214.4C200.615 189.44 189.44 200.615 189.44 214.4V297.6C189.44 311.385 200.615 322.56 214.4 322.56H297.6C311.385 322.56 322.56 311.385 322.56 297.6V214.4C322.56 200.615 311.385 189.44 297.6 189.44ZM297.597 226.877C297.597 219.984 292.01 214.397 285.117 214.397H226.879C219.986 214.397 214.399 219.984 214.399 226.877V285.12C214.399 288.43 215.714 291.604 218.054 293.944C220.394 296.285 223.569 297.6 226.879 297.6H285.117C292.01 297.6 297.597 292.012 297.597 285.12V226.877ZM239.359 239.357H272.637V272.64H239.359L239.359 239.357Z" fill="white"/>
</svg>
