<svg width="512" height="512" viewBox="0 0 512 512" fill="none" xmlns="http://www.w3.org/2000/svg">
<path d="M30.718 256C30.718 159.925 30.718 111.888 56.1108 78.7956C62.648 70.2761 70.2739 62.6502 78.7934 56.113C111.886 30.7202 159.923 30.7202 255.998 30.7202C352.073 30.7202 400.11 30.7202 433.203 56.113C441.722 62.6502 449.348 70.2761 455.885 78.7956C481.278 111.888 481.278 159.925 481.278 256C481.278 352.075 481.278 400.112 455.885 433.205C449.348 441.724 441.722 449.35 433.203 455.887C400.11 481.28 352.073 481.28 255.998 481.28C159.923 481.28 111.886 481.28 78.7934 455.887C70.2739 449.35 62.648 441.724 56.1108 433.205C30.718 400.112 30.718 352.075 30.718 256Z" fill="#030F21"/>
<g clip-path="url(#clip0_3219_258)">
<path fill-rule="evenodd" clip-rule="evenodd" d="M297.956 219.968C311.91 213.285 314.238 206.744 314.238 201.92C314.238 197.397 312.192 191.365 300.438 185.122C299.655 184.706 298.828 184.289 297.956 183.871C283.728 177.057 261.838 172.8 235.198 172.8C208.558 172.8 186.668 177.057 172.44 183.871C158.486 190.554 156.158 197.096 156.158 201.92C156.158 206.744 158.486 213.285 172.44 219.968C186.668 226.782 208.558 231.04 235.198 231.04C261.838 231.04 283.728 226.782 297.956 219.968ZM235.198 256C266.511 256 294.592 250.642 313.658 239.927C312.681 262.379 310.068 283.099 303.102 300.094C298.055 312.41 291.114 321.605 281.542 327.944C271.911 334.322 257.511 339.2 235.198 339.2C212.885 339.2 198.486 334.322 188.855 327.944C179.282 321.605 172.341 312.41 167.294 300.094C160.328 283.099 157.715 262.379 156.737 239.927C175.804 250.642 203.885 256 235.198 256ZM339.134 199.622C337.193 165.101 291.402 147.84 235.198 147.84C177.76 147.84 131.198 165.867 131.198 201.92C131.198 272.64 131.199 364.16 235.198 364.16C291.098 364.16 316.951 337.719 328.909 302.28C333.544 300.849 338.117 299.22 342.52 297.394C352.765 293.145 363.633 287.203 372.316 278.892C381.204 270.386 389.118 257.992 389.118 241.99C389.118 234.715 387.507 227.178 383.382 220.285C379.239 213.361 373.456 208.587 367.476 205.48C358.102 200.609 347.716 199.528 339.134 199.622ZM339.08 224.586C338.833 240.734 338.067 257.317 335.695 273.16C351.729 265.992 364.158 255.602 364.158 241.99C364.158 228.549 353.249 224.372 339.08 224.586Z" fill="white"/>
</g>
<defs>
<clipPath id="clip0_3219_258">
<rect width="266.24" height="266.24" fill="white" transform="translate(122.878 122.88)"/>
</clipPath>
</defs>
</svg>
