<svg width="512" height="512" viewBox="0 0 512 512" fill="none" xmlns="http://www.w3.org/2000/svg">
<path d="M30.7202 256C30.7202 159.925 30.7202 111.888 56.113 78.7954C62.6502 70.2758 70.2761 62.65 78.7956 56.1127C111.888 30.72 159.925 30.72 256 30.72C352.075 30.72 400.112 30.72 433.205 56.1127C441.724 62.65 449.35 70.2758 455.887 78.7954C481.28 111.888 481.28 159.925 481.28 256C481.28 352.075 481.28 400.112 455.887 433.205C449.35 441.724 441.724 449.35 433.205 455.887C400.112 481.28 352.075 481.28 256 481.28C159.925 481.28 111.888 481.28 78.7956 455.887C70.2761 449.35 62.6502 441.724 56.113 433.205C30.7202 400.112 30.7202 352.075 30.7202 256Z" fill="#030F21"/>
<path fill-rule="evenodd" clip-rule="evenodd" d="M210.24 214.346C203.348 214.346 197.76 208.758 197.76 201.866V189.44C183.975 189.44 172.8 200.615 172.8 214.4V231.04H339.2V214.4C339.2 200.615 328.025 189.44 314.24 189.44V201.921C314.24 208.813 308.653 214.401 301.76 214.401C294.868 214.401 289.28 208.813 289.28 201.921V189.44H222.72V201.866C222.72 208.758 217.133 214.346 210.24 214.346ZM289.28 164.48H222.72V151.959C222.72 145.067 217.133 139.479 210.24 139.479C203.348 139.479 197.76 145.067 197.76 151.959V164.48C170.19 164.48 147.84 186.83 147.84 214.4V314.24C147.84 341.81 170.19 364.16 197.76 364.16H314.24C341.81 364.16 364.16 341.81 364.16 314.24V214.4C364.16 186.83 341.81 164.48 314.24 164.48V152C314.24 145.108 308.653 139.52 301.76 139.52C294.868 139.52 289.28 145.108 289.28 152V164.48ZM172.8 256V314.24C172.8 328.025 183.975 339.2 197.76 339.2H314.24C328.025 339.2 339.2 328.025 339.2 314.24V256H172.8Z" fill="white"/>
</svg>
