<svg width="512" height="512" viewBox="0 0 512 512" fill="none" xmlns="http://www.w3.org/2000/svg">
<path d="M30.7205 256C30.7205 159.925 30.7205 111.888 56.1132 78.7956C62.6505 70.2761 70.2763 62.6502 78.7958 56.113C111.888 30.7202 159.926 30.7202 256 30.7202C352.075 30.7202 400.113 30.7202 433.205 56.113C441.725 62.6502 449.35 70.2761 455.888 78.7956C481.28 111.888 481.28 159.925 481.28 256C481.28 352.075 481.28 400.112 455.888 433.205C449.35 441.724 441.725 449.35 433.205 455.887C400.113 481.28 352.075 481.28 256 481.28C159.926 481.28 111.888 481.28 78.7958 455.887C70.2763 449.35 62.6505 441.724 56.1132 433.205C30.7205 400.112 30.7205 352.075 30.7205 256Z" fill="white"/>
<g clip-path="url(#clip0_3219_196)">
<path fill-rule="evenodd" clip-rule="evenodd" d="M213.433 181.12H330.88C344.665 181.12 355.84 192.295 355.84 206.08V305.92C355.84 319.705 344.665 330.88 330.88 330.88H213.433C205.851 330.88 198.679 327.433 193.943 321.512L152.766 270.041C149.577 266.055 147.84 261.104 147.84 256C147.84 250.896 149.577 245.944 152.766 241.958L193.943 190.487C198.679 184.566 205.851 181.12 213.433 181.12ZM174.452 174.895C183.926 163.053 198.268 156.16 213.433 156.16H330.88C358.45 156.16 380.8 178.51 380.8 206.08V305.92C380.8 333.49 358.45 355.84 330.88 355.84H213.433C198.268 355.84 183.926 348.946 174.452 337.104L133.275 285.633C126.546 277.222 122.88 266.771 122.88 256C122.88 245.228 126.546 234.777 133.275 226.366L174.452 174.895ZM244.025 213.895C239.151 209.021 231.249 209.021 226.376 213.895C221.502 218.769 221.502 226.671 226.376 231.544L250.831 256L226.376 280.455C221.502 285.329 221.502 293.231 226.376 298.104C231.249 302.978 239.151 302.978 244.025 298.104L268.48 273.649L292.936 298.104C297.809 302.978 305.711 302.978 310.585 298.104C315.459 293.231 315.459 285.329 310.585 280.455L286.13 256L310.585 231.544C315.459 226.671 315.459 218.769 310.585 213.895C305.711 209.021 297.809 209.021 292.936 213.895L268.48 238.35L244.025 213.895Z" fill="#030F21"/>
</g>
<defs>
<clipPath id="clip0_3219_196">
<rect width="266.24" height="266.24" fill="white" transform="translate(122.88 122.88)"/>
</clipPath>
</defs>
</svg>
