<svg width="512" height="512" viewBox="0 0 512 512" fill="none" xmlns="http://www.w3.org/2000/svg">
<path d="M30.7183 256C30.7183 159.925 30.7183 111.888 56.111 78.7956C62.6483 70.2761 70.2741 62.6502 78.7937 56.113C111.886 30.7202 159.923 30.7202 255.998 30.7202C352.073 30.7202 400.11 30.7202 433.203 56.113C441.722 62.6502 449.348 70.2761 455.886 78.7956C481.278 111.888 481.278 159.925 481.278 256C481.278 352.075 481.278 400.112 455.886 433.205C449.348 441.724 441.722 449.35 433.203 455.887C400.11 481.28 352.073 481.28 255.998 481.28C159.923 481.28 111.886 481.28 78.7937 455.887C70.2741 449.35 62.6483 441.724 56.111 433.205C30.7183 400.112 30.7183 352.075 30.7183 256Z" fill="#FF3333"/>
<path fill-rule="evenodd" clip-rule="evenodd" d="M256.001 326.534L226.611 355.923C216.873 365.662 201.083 365.662 191.344 355.923L156.077 320.656C146.339 310.917 146.339 295.128 156.077 285.389L185.467 256L156.077 226.611C146.339 216.872 146.339 201.083 156.077 191.344L191.344 156.077C201.083 146.338 216.873 146.338 226.611 156.077L256 185.466L285.39 156.077C295.128 146.338 310.918 146.338 320.657 156.077L355.924 191.344C365.662 201.083 365.662 216.872 355.924 226.611L326.534 256L355.923 285.389C365.662 295.128 365.662 310.917 355.923 320.656L320.657 355.923C310.918 365.662 295.128 365.662 285.39 355.923L256.001 326.534Z" fill="white"/>
</svg>
