<svg width="512" height="512" viewBox="0 0 512 512" fill="none" xmlns="http://www.w3.org/2000/svg">
<path d="M30.7185 256C30.7185 159.925 30.7185 111.888 56.1112 78.7956C62.6485 70.2761 70.2744 62.6502 78.7939 56.113C111.886 30.7202 159.924 30.7202 255.999 30.7202C352.073 30.7202 400.111 30.7202 433.203 56.113C441.723 62.6502 449.348 70.2761 455.886 78.7956C481.279 111.888 481.279 159.925 481.279 256C481.279 352.075 481.279 400.112 455.886 433.205C449.348 441.724 441.723 449.35 433.203 455.887C400.111 481.28 352.073 481.28 255.999 481.28C159.924 481.28 111.886 481.28 78.7939 455.887C70.2744 449.35 62.6485 441.724 56.1112 433.205C30.7185 400.112 30.7185 352.075 30.7185 256Z" fill="#030F21"/>
<path fill-rule="evenodd" clip-rule="evenodd" d="M292.879 176.459C294.858 169.863 291.115 162.912 284.519 160.933C277.923 158.955 270.972 162.698 268.993 169.293L219.118 335.543C217.139 342.139 220.882 349.09 227.478 351.069C234.074 353.048 241.025 349.305 243.004 342.709L292.879 176.459ZM198.315 205.618C203.185 210.487 203.185 218.382 198.315 223.252L165.57 255.997L198.315 288.743C203.185 293.612 203.185 301.507 198.315 306.377C193.446 311.246 185.551 311.246 180.682 306.376L139.119 264.814C136.781 262.476 135.467 259.304 135.467 255.997C135.467 252.69 136.781 249.519 139.119 247.181L180.682 205.618C185.551 200.749 193.446 200.749 198.315 205.618ZM313.682 306.376C308.812 301.507 308.812 293.612 313.682 288.743L346.428 255.997L313.682 223.252C308.812 218.382 308.812 210.487 313.682 205.618C318.551 200.749 326.446 200.749 331.315 205.618L372.878 247.181C375.216 249.519 376.53 252.69 376.53 255.997C376.53 259.304 375.216 262.476 372.878 264.814L331.315 306.376C326.446 311.246 318.551 311.246 313.682 306.376Z" fill="#18C374"/>
</svg>
