<svg width="512" height="512" viewBox="0 0 512 512" fill="none" xmlns="http://www.w3.org/2000/svg">
<path d="M30.7202 256C30.7202 159.925 30.7202 111.888 56.113 78.7956C62.6502 70.2761 70.2761 62.6502 78.7956 56.113C111.888 30.7202 159.925 30.7202 256 30.7202C352.075 30.7202 400.112 30.7202 433.205 56.113C441.724 62.6502 449.35 70.2761 455.887 78.7956C481.28 111.888 481.28 159.925 481.28 256C481.28 352.075 481.28 400.112 455.887 433.205C449.35 441.724 441.724 449.35 433.205 455.887C400.112 481.28 352.075 481.28 256 481.28C159.925 481.28 111.888 481.28 78.7956 455.887C70.2761 449.35 62.6502 441.724 56.113 433.205C30.7202 400.112 30.7202 352.075 30.7202 256Z" fill="#008CFF"/>
<path fill-rule="evenodd" clip-rule="evenodd" d="M197.76 172.8H314.24C328.025 172.8 339.2 183.975 339.2 197.76V314.24C339.2 328.025 328.025 339.2 314.24 339.2H197.76C183.975 339.2 172.8 328.025 172.8 314.24V197.76C172.8 183.975 183.975 172.8 197.76 172.8ZM147.84 197.76C147.84 170.19 170.19 147.84 197.76 147.84H314.24C341.81 147.84 364.16 170.19 364.16 197.76V314.24C364.16 341.81 341.81 364.16 314.24 364.16H197.76C170.19 364.16 147.84 341.81 147.84 314.24V197.76ZM256.002 275.136C266.57 275.136 275.138 266.568 275.138 256C275.138 245.431 266.57 236.864 256.002 236.864C245.433 236.864 236.866 245.431 236.866 256C236.866 266.568 245.433 275.136 256.002 275.136Z" fill="white"/>
</svg>
