<svg width="512" height="512" viewBox="0 0 512 512" fill="none" xmlns="http://www.w3.org/2000/svg">
<path d="M30.7196 256C30.7196 159.925 30.7196 111.888 56.1123 78.7956C62.6496 70.2761 70.2755 62.6502 78.795 56.113C111.887 30.7202 159.925 30.7202 256 30.7202C352.074 30.7202 400.112 30.7202 433.204 56.113C441.724 62.6502 449.35 70.2761 455.887 78.7956C481.28 111.888 481.28 159.925 481.28 256C481.28 352.075 481.28 400.112 455.887 433.205C449.35 441.724 441.724 449.35 433.204 455.887C400.112 481.28 352.074 481.28 256 481.28C159.925 481.28 111.887 481.28 78.795 455.887C70.2755 449.35 62.6496 441.724 56.1123 433.205C30.7196 400.112 30.7196 352.075 30.7196 256Z" fill="#008CFF"/>
<path fill-rule="evenodd" clip-rule="evenodd" d="M314.24 172.8H197.76C183.975 172.8 172.8 183.975 172.8 197.76V314.24C172.8 328.025 183.975 339.2 197.76 339.2H314.24C328.025 339.2 339.2 328.025 339.2 314.24V197.76C339.2 183.975 328.025 172.8 314.24 172.8ZM197.76 147.84C170.19 147.84 147.84 170.19 147.84 197.76V314.24C147.84 341.81 170.19 364.16 197.76 364.16H314.24C341.81 364.16 364.16 341.81 364.16 314.24V197.76C364.16 170.19 341.81 147.84 314.24 147.84H197.76ZM308.417 222.72C308.417 233.288 299.85 241.856 289.281 241.856C278.713 241.856 270.145 233.288 270.145 222.72C270.145 212.151 278.713 203.584 289.281 203.584C299.85 203.584 308.417 212.151 308.417 222.72ZM222.721 308.416C233.29 308.416 241.857 299.848 241.857 289.28C241.857 278.711 233.29 270.144 222.721 270.144C212.153 270.144 203.585 278.711 203.585 289.28C203.585 299.848 212.153 308.416 222.721 308.416Z" fill="white"/>
</svg>
