<svg width="512" height="512" viewBox="0 0 512 512" fill="none" xmlns="http://www.w3.org/2000/svg">
<path d="M30.718 256C30.718 159.925 30.718 111.888 56.1108 78.7956C62.648 70.2761 70.2739 62.6502 78.7934 56.113C111.886 30.7202 159.923 30.7202 255.998 30.7202C352.073 30.7202 400.11 30.7202 433.203 56.113C441.722 62.6502 449.348 70.2761 455.885 78.7956C481.278 111.888 481.278 159.925 481.278 256C481.278 352.075 481.278 400.112 455.885 433.205C449.348 441.724 441.722 449.35 433.203 455.887C400.11 481.28 352.073 481.28 255.998 481.28C159.923 481.28 111.886 481.28 78.7934 455.887C70.2739 449.35 62.648 441.724 56.1108 433.205C30.718 400.112 30.718 352.075 30.718 256Z" fill="#008CFF"/>
<path fill-rule="evenodd" clip-rule="evenodd" d="M314.238 172.8H197.758C183.973 172.8 172.798 183.975 172.798 197.76V314.24C172.798 328.025 183.973 339.2 197.758 339.2H314.238C328.023 339.2 339.198 328.025 339.198 314.24V197.76C339.198 183.975 328.023 172.8 314.238 172.8ZM197.758 147.84C170.188 147.84 147.838 170.19 147.838 197.76V314.24C147.838 341.81 170.188 364.16 197.758 364.16H314.238C341.808 364.16 364.158 341.81 364.158 314.24V197.76C364.158 170.19 341.808 147.84 314.238 147.84H197.758ZM308.416 222.72C308.416 233.288 299.848 241.856 289.28 241.856C278.711 241.856 270.144 233.288 270.144 222.72C270.144 212.151 278.711 203.584 289.28 203.584C299.848 203.584 308.416 212.151 308.416 222.72ZM222.72 308.416C233.288 308.416 241.856 299.848 241.856 289.28C241.856 278.711 233.288 270.144 222.72 270.144C212.151 270.144 203.584 278.711 203.584 289.28C203.584 299.848 212.151 308.416 222.72 308.416ZM308.416 289.28C308.416 299.848 299.848 308.416 289.28 308.416C278.711 308.416 270.144 299.848 270.144 289.28C270.144 278.711 278.711 270.144 289.28 270.144C299.848 270.144 308.416 278.711 308.416 289.28ZM222.72 241.856C233.288 241.856 241.856 233.288 241.856 222.72C241.856 212.151 233.288 203.584 222.72 203.584C212.151 203.584 203.584 212.151 203.584 222.72C203.584 233.288 212.151 241.856 222.72 241.856Z" fill="white"/>
</svg>
