<svg width="512" height="512" viewBox="0 0 512 512" fill="none" xmlns="http://www.w3.org/2000/svg">
<path d="M30.7188 256C30.7188 159.925 30.7188 111.888 56.1116 78.7956C62.6488 70.2761 70.2747 62.6502 78.7942 56.113C111.887 30.7202 159.924 30.7202 255.999 30.7202C352.074 30.7202 400.111 30.7202 433.203 56.113C441.723 62.6502 449.349 70.2761 455.886 78.7956C481.279 111.888 481.279 159.925 481.279 256C481.279 352.075 481.279 400.112 455.886 433.205C449.349 441.724 441.723 449.35 433.203 455.887C400.111 481.28 352.074 481.28 255.999 481.28C159.924 481.28 111.887 481.28 78.7942 455.887C70.2747 449.35 62.6488 441.724 56.1116 433.205C30.7188 400.112 30.7188 352.075 30.7188 256Z" fill="#008CFF"/>
<path fill-rule="evenodd" clip-rule="evenodd" d="M197.759 172.8H314.239C328.024 172.8 339.199 183.975 339.199 197.76V314.24C339.199 328.025 328.024 339.2 314.239 339.2H197.759C183.974 339.2 172.799 328.025 172.799 314.24V197.76C172.799 183.975 183.974 172.8 197.759 172.8ZM147.839 197.76C147.839 170.19 170.189 147.84 197.759 147.84H314.239C341.809 147.84 364.159 170.19 364.159 197.76V314.24C364.159 341.81 341.809 364.16 314.239 364.16H197.759C170.189 364.16 147.839 341.81 147.839 314.24V197.76ZM297.6 233.536C308.169 233.536 316.736 224.968 316.736 214.4C316.736 203.831 308.169 195.264 297.6 195.264C287.032 195.264 278.464 203.831 278.464 214.4C278.464 224.968 287.032 233.536 297.6 233.536ZM275.136 256C275.136 266.568 266.569 275.136 256 275.136C245.432 275.136 236.864 266.568 236.864 256C236.864 245.431 245.432 236.864 256 236.864C266.569 236.864 275.136 245.431 275.136 256ZM214.4 316.736C224.969 316.736 233.536 308.168 233.536 297.6C233.536 287.031 224.969 278.464 214.4 278.464C203.832 278.464 195.264 287.031 195.264 297.6C195.264 308.168 203.832 316.736 214.4 316.736Z" fill="white"/>
</svg>
