<svg width="512" height="512" viewBox="0 0 512 512" fill="none" xmlns="http://www.w3.org/2000/svg">
<path d="M30.7183 256C30.7183 159.925 30.7183 111.888 56.111 78.7956C62.6483 70.2761 70.2741 62.6502 78.7937 56.113C111.886 30.7202 159.923 30.7202 255.998 30.7202C352.073 30.7202 400.11 30.7202 433.203 56.113C441.722 62.6502 449.348 70.2761 455.886 78.7956C481.278 111.888 481.278 159.925 481.278 256C481.278 352.075 481.278 400.112 455.886 433.205C449.348 441.724 441.722 449.35 433.203 455.887C400.11 481.28 352.073 481.28 255.998 481.28C159.923 481.28 111.886 481.28 78.7937 455.887C70.2741 449.35 62.6483 441.724 56.111 433.205C30.7183 400.112 30.7183 352.075 30.7183 256Z" fill="#030F21"/>
<path fill-rule="evenodd" clip-rule="evenodd" d="M322.5 164.562H256C242.227 164.562 231.062 175.727 231.062 189.5V206.125H256C283.545 206.125 305.875 228.455 305.875 256V280.938H322.5C336.273 280.938 347.438 269.773 347.438 256V189.5C347.438 175.727 336.273 164.562 322.5 164.562ZM305.875 305.875H322.5C350.045 305.875 372.375 283.545 372.375 256V189.5C372.375 161.955 350.045 139.625 322.5 139.625H256C228.455 139.625 206.125 161.955 206.125 189.5V206.125H189.5C161.955 206.125 139.625 228.455 139.625 256V322.5C139.625 350.045 161.955 372.375 189.5 372.375H256C283.545 372.375 305.875 350.045 305.875 322.5V305.875ZM189.5 231.062H256C269.773 231.062 280.938 242.227 280.938 256V322.5C280.938 336.273 269.773 347.438 256 347.438H189.5C175.727 347.438 164.562 336.273 164.562 322.5V256C164.562 242.227 175.727 231.062 189.5 231.062Z" fill="white"/>
</svg>
