<svg width="512" height="512" viewBox="0 0 512 512" fill="none" xmlns="http://www.w3.org/2000/svg">
<path d="M30.7184 256C30.7184 159.925 30.7184 111.888 56.1111 78.7956C62.6484 70.2761 70.2742 62.6502 78.7938 56.113C111.886 30.7202 159.924 30.7202 255.998 30.7202C352.073 30.7202 400.111 30.7202 433.203 56.113C441.723 62.6502 449.348 70.2761 455.886 78.7956C481.278 111.888 481.278 159.925 481.278 256C481.278 352.075 481.278 400.112 455.886 433.205C449.348 441.724 441.723 449.35 433.203 455.887C400.111 481.28 352.073 481.28 255.998 481.28C159.924 481.28 111.886 481.28 78.7938 455.887C70.2742 449.35 62.6484 441.724 56.1111 433.205C30.7184 400.112 30.7184 352.075 30.7184 256Z" fill="#008CFF"/>
<path fill-rule="evenodd" clip-rule="evenodd" d="M314.238 172.8H197.758C183.973 172.8 172.798 183.975 172.798 197.76V314.24C172.798 328.025 183.973 339.2 197.758 339.2H314.238C328.023 339.2 339.198 328.025 339.198 314.24V197.76C339.198 183.975 328.023 172.8 314.238 172.8ZM197.758 147.84C170.188 147.84 147.838 170.19 147.838 197.76V314.24C147.838 341.81 170.188 364.16 197.758 364.16H314.238C341.808 364.16 364.158 341.81 364.158 314.24V197.76C364.158 170.19 341.808 147.84 314.238 147.84H197.758ZM316.734 206.08C316.734 216.648 308.167 225.216 297.598 225.216C287.03 225.216 278.462 216.648 278.462 206.08C278.462 195.511 287.03 186.944 297.598 186.944C308.167 186.944 316.734 195.511 316.734 206.08ZM214.398 325.056C224.967 325.056 233.534 316.488 233.534 305.92C233.534 295.351 224.967 286.784 214.398 286.784C203.83 286.784 195.262 295.351 195.262 305.92C195.262 316.488 203.83 325.056 214.398 325.056ZM316.734 305.92C316.734 316.488 308.167 325.056 297.598 325.056C287.03 325.056 278.462 316.488 278.462 305.92C278.462 295.351 287.03 286.784 297.598 286.784C308.167 286.784 316.734 295.351 316.734 305.92ZM214.398 225.216C224.967 225.216 233.534 216.648 233.534 206.08C233.534 195.511 224.967 186.944 214.398 186.944C203.83 186.944 195.262 195.511 195.262 206.08C195.262 216.648 203.83 225.216 214.398 225.216ZM316.734 256C316.734 266.568 308.167 275.136 297.598 275.136C287.03 275.136 278.462 266.568 278.462 256C278.462 245.431 287.03 236.864 297.598 236.864C308.167 236.864 316.734 245.431 316.734 256ZM214.398 275.136C224.967 275.136 233.534 266.568 233.534 256C233.534 245.431 224.967 236.864 214.398 236.864C203.83 236.864 195.262 245.431 195.262 256C195.262 266.568 203.83 275.136 214.398 275.136Z" fill="white"/>
</svg>
