<svg width="512" height="512" viewBox="0 0 512 512" fill="none" xmlns="http://www.w3.org/2000/svg">
<path d="M30.7212 256C30.7212 159.925 30.7212 111.888 56.1139 78.7956C62.6512 70.2761 70.277 62.6502 78.7966 56.113C111.889 30.7202 159.926 30.7202 256.001 30.7202C352.076 30.7202 400.113 30.7202 433.206 56.113C441.725 62.6502 449.351 70.2761 455.888 78.7956C481.281 111.888 481.281 159.925 481.281 256C481.281 352.075 481.281 400.112 455.888 433.205C449.351 441.724 441.725 449.35 433.206 455.887C400.113 481.28 352.076 481.28 256.001 481.28C159.926 481.28 111.889 481.28 78.7966 455.887C70.277 449.35 62.6512 441.724 56.1139 433.205C30.7212 400.112 30.7212 352.075 30.7212 256Z" fill="#008CFF"/>
<path fill-rule="evenodd" clip-rule="evenodd" d="M197.761 172.8H314.241C328.026 172.8 339.201 183.975 339.201 197.76V314.24C339.201 328.025 328.026 339.2 314.241 339.2H197.761C183.976 339.2 172.801 328.025 172.801 314.24V197.76C172.801 183.975 183.976 172.8 197.761 172.8ZM147.841 197.76C147.841 170.19 170.191 147.84 197.761 147.84H314.241C341.811 147.84 364.161 170.19 364.161 197.76V314.24C364.161 341.81 341.811 364.16 314.241 364.16H197.761C170.191 364.16 147.841 341.81 147.841 314.24V197.76ZM297.601 233.536C308.169 233.536 316.737 224.968 316.737 214.4C316.737 203.831 308.169 195.264 297.601 195.264C287.032 195.264 278.465 203.831 278.465 214.4C278.465 224.968 287.032 233.536 297.601 233.536ZM275.137 256C275.137 266.568 266.569 275.136 256.001 275.136C245.432 275.136 236.865 266.568 236.865 256C236.865 245.431 245.432 236.864 256.001 236.864C266.569 236.864 275.137 245.431 275.137 256ZM214.401 316.736C224.969 316.736 233.537 308.168 233.537 297.6C233.537 287.031 224.969 278.464 214.401 278.464C203.832 278.464 195.265 287.031 195.265 297.6C195.265 308.168 203.832 316.736 214.401 316.736ZM316.737 297.6C316.737 308.168 308.169 316.736 297.601 316.736C287.032 316.736 278.465 308.168 278.465 297.6C278.465 287.031 287.032 278.464 297.601 278.464C308.169 278.464 316.737 287.031 316.737 297.6ZM214.401 233.536C224.969 233.536 233.537 224.968 233.537 214.4C233.537 203.831 224.969 195.264 214.401 195.264C203.832 195.264 195.265 203.831 195.265 214.4C195.265 224.968 203.832 233.536 214.401 233.536Z" fill="white"/>
</svg>
