<svg width="512" height="512" viewBox="0 0 512 512" fill="none" xmlns="http://www.w3.org/2000/svg">
<path d="M30.7185 256C30.7185 159.925 30.7185 111.888 56.1112 78.7956C62.6485 70.2761 70.2744 62.6502 78.7939 56.113C111.886 30.7202 159.924 30.7202 255.999 30.7202C352.073 30.7202 400.111 30.7202 433.203 56.113C441.723 62.6502 449.348 70.2761 455.886 78.7956C481.279 111.888 481.279 159.925 481.279 256C481.279 352.075 481.279 400.112 455.886 433.205C449.348 441.724 441.723 449.35 433.203 455.887C400.111 481.28 352.073 481.28 255.999 481.28C159.924 481.28 111.886 481.28 78.7939 455.887C70.2744 449.35 62.6485 441.724 56.1112 433.205C30.7185 400.112 30.7185 352.075 30.7185 256Z" fill="#030F21"/>
<path fill-rule="evenodd" clip-rule="evenodd" d="M189.5 172.875H322.5C336.273 172.875 347.437 184.04 347.437 197.812V206.125L164.562 206.125V197.812C164.562 184.04 175.727 172.875 189.5 172.875ZM347.437 260.156V231.062L164.562 231.062V289.25C164.562 303.023 175.727 314.187 189.5 314.187H235.219C242.105 314.187 247.687 319.77 247.687 326.656C247.687 333.542 242.105 339.125 235.219 339.125H189.5C161.955 339.125 139.625 316.795 139.625 289.25V197.812C139.625 170.267 161.955 147.938 189.5 147.938H322.5C350.045 147.938 372.375 170.267 372.375 197.812V260.156C372.375 267.043 366.793 272.625 359.906 272.625C353.02 272.625 347.437 267.043 347.437 260.156ZM293.035 258.856C289.312 255.781 284.149 255.131 279.781 257.189C275.413 259.246 272.625 263.64 272.625 268.469V360.629C272.625 365.922 275.967 370.638 280.96 372.393C285.954 374.147 291.511 372.558 294.822 368.429L309.747 349.814L323.816 377.951C326.896 384.111 334.386 386.607 340.545 383.527C346.704 380.448 349.201 372.958 346.121 366.799L332.375 339.306H355.75C361.009 339.306 365.703 336.006 367.483 331.057C369.263 326.107 367.746 320.574 363.691 317.224L293.035 258.856Z" fill="white"/>
</svg>
