<svg width="512" height="512" viewBox="0 0 512 512" fill="none" xmlns="http://www.w3.org/2000/svg">
<path d="M30.7183 256C30.7183 159.925 30.7183 111.888 56.111 78.7956C62.6483 70.2761 70.2741 62.6502 78.7937 56.113C111.886 30.7202 159.923 30.7202 255.998 30.7202C352.073 30.7202 400.11 30.7202 433.203 56.113C441.722 62.6502 449.348 70.2761 455.886 78.7956C481.278 111.888 481.278 159.925 481.278 256C481.278 352.075 481.278 400.112 455.886 433.205C449.348 441.724 441.722 449.35 433.203 455.887C400.11 481.28 352.073 481.28 255.998 481.28C159.923 481.28 111.886 481.28 78.7937 455.887C70.2741 449.35 62.6483 441.724 56.111 433.205C30.7183 400.112 30.7183 352.075 30.7183 256Z" fill="white"/>
<path fill-rule="evenodd" clip-rule="evenodd" d="M256 389C329.454 389 389 329.454 389 256C389 182.546 329.454 123 256 123C182.546 123 123 182.546 123 256C123 329.454 182.546 389 256 389Z" fill="#FF3333"/>
</svg>
