<svg width="512" height="512" viewBox="0 0 512 512" fill="none" xmlns="http://www.w3.org/2000/svg">
<path d="M30.7183 256C30.7183 159.925 30.7183 111.888 56.111 78.7956C62.6483 70.2761 70.2741 62.6502 78.7937 56.113C111.886 30.7202 159.923 30.7202 255.998 30.7202C352.073 30.7202 400.11 30.7202 433.203 56.113C441.722 62.6502 449.348 70.2761 455.886 78.7956C481.278 111.888 481.278 159.925 481.278 256C481.278 352.075 481.278 400.112 455.886 433.205C449.348 441.724 441.722 449.35 433.203 455.887C400.11 481.28 352.073 481.28 255.998 481.28C159.923 481.28 111.886 481.28 78.7937 455.887C70.2741 449.35 62.6483 441.724 56.111 433.205C30.7183 400.112 30.7183 352.075 30.7183 256Z" fill="#FF3333"/>
<path fill-rule="evenodd" clip-rule="evenodd" d="M220.015 160.302C236.018 132.621 275.977 132.621 291.98 160.302L373.724 301.698C389.743 329.406 369.748 364.062 337.742 364.062L174.253 364.063C142.247 364.063 122.252 329.406 138.271 301.698L220.015 160.302ZM256 206.125C262.886 206.125 268.468 211.707 268.468 218.594V251.844C268.468 258.73 262.886 264.312 256 264.312C249.113 264.312 243.531 258.73 243.531 251.844V218.594C243.531 211.707 249.113 206.125 256 206.125ZM272.625 301.719C272.625 310.9 265.181 318.344 256 318.344C246.818 318.344 239.375 310.9 239.375 301.719C239.375 292.537 246.818 285.094 256 285.094C265.181 285.094 272.625 292.537 272.625 301.719Z" fill="white"/>
</svg>
