<svg width="512" height="512" viewBox="0 0 512 512" fill="none" xmlns="http://www.w3.org/2000/svg">
<path d="M30.7205 256C30.7205 159.925 30.7205 111.888 56.1132 78.7956C62.6505 70.2761 70.2763 62.6502 78.7958 56.113C111.888 30.7202 159.926 30.7202 256 30.7202C352.075 30.7202 400.113 30.7202 433.205 56.113C441.725 62.6502 449.35 70.2761 455.888 78.7956C481.28 111.888 481.28 159.925 481.28 256C481.28 352.075 481.28 400.112 455.888 433.205C449.35 441.724 441.725 449.35 433.205 455.887C400.113 481.28 352.075 481.28 256 481.28C159.926 481.28 111.888 481.28 78.7958 455.887C70.2763 449.35 62.6505 441.724 56.1132 433.205C30.7205 400.112 30.7205 352.075 30.7205 256Z" fill="#030F21"/>
<g clip-path="url(#clip0_3216_17365)">
<path fill-rule="evenodd" clip-rule="evenodd" d="M122.88 197.76C122.88 170.19 145.23 147.84 172.8 147.84H193.723C206.962 147.84 219.66 153.099 229.022 162.461L239.36 172.8H305.92C333.49 172.8 355.84 195.15 355.84 222.72H213.545C196.01 222.72 179.761 231.92 170.739 246.956L146.667 287.076C143.994 291.532 144.361 297.177 147.588 301.249C153.005 308.083 163.583 307.396 168.07 299.918L192.142 259.798C196.653 252.28 204.778 247.68 213.545 247.68H355.84H368.321H369.574C380.369 247.68 389.12 256.431 389.12 267.226C389.12 270.768 388.158 274.244 386.335 277.282L353.742 331.603C344.72 346.64 328.471 355.84 310.936 355.84H305.92H172.8H171.8C169.823 355.84 167.883 355.682 165.991 355.379C141.642 352.058 122.88 331.18 122.88 305.92V197.76Z" fill="white"/>
</g>
<defs>
<clipPath id="clip0_3216_17365">
<rect width="266.24" height="266.24" fill="white" transform="translate(122.88 122.88)"/>
</clipPath>
</defs>
</svg>
