<svg width="512" height="512" viewBox="0 0 512 512" fill="none" xmlns="http://www.w3.org/2000/svg">
<path d="M30.7196 256C30.7196 159.925 30.7196 111.888 56.1124 78.7956C62.6496 70.2761 70.2755 62.6502 78.795 56.113C111.887 30.7202 159.925 30.7202 256 30.7202C352.074 30.7202 400.112 30.7202 433.204 56.113C441.724 62.6502 449.35 70.2761 455.887 78.7956C481.28 111.888 481.28 159.925 481.28 256C481.28 352.075 481.28 400.112 455.887 433.205C449.35 441.724 441.724 449.35 433.204 455.887C400.112 481.28 352.074 481.28 256 481.28C159.925 481.28 111.887 481.28 78.795 455.887C70.2755 449.35 62.6496 441.724 56.1124 433.205C30.7196 400.112 30.7196 352.075 30.7196 256Z" fill="#008CFF"/>
<g clip-path="url(#clip0_3216_16902)">
<path fill-rule="evenodd" clip-rule="evenodd" d="M214.4 122.88C202.913 122.88 193.6 132.192 193.6 143.68V176.96H160.32C148.833 176.96 139.52 186.272 139.52 197.76V237.398C139.177 237.704 138.842 238.021 138.515 238.348L139.52 239.354V239.377C138.499 238.364 138.494 238.369 138.489 238.374L138.463 238.401L138.41 238.454L138.302 238.563L138.079 238.795C137.926 238.954 137.767 239.125 137.602 239.307C137.27 239.672 136.915 240.081 136.539 240.537C135.787 241.45 134.96 242.546 134.095 243.842C132.36 246.444 130.512 249.797 128.827 254.008C125.439 262.475 122.88 273.986 122.88 289.28H122.88L122.88 289.427C123.002 310.158 131.022 331.17 147.084 347.014C163.378 363.088 186.526 372.48 214.401 372.48C248.861 372.48 277.387 362.671 299.378 345.24C315.974 332.085 327.889 315.354 335.901 297.215C341.363 296.841 347.023 296.109 352.392 294.677C365.998 291.049 378.65 282.833 386.486 267.166C389.449 261.242 389.936 254.384 387.841 248.101C382.498 232.085 369.201 220.865 353.372 216.868C349.376 201.04 338.157 187.742 322.138 182.401C315.858 180.308 309.004 180.794 303.083 183.754C284.906 192.841 278.075 210.094 275.318 222.499C274.688 225.334 274.206 228.204 273.837 231.04H272.64V189.44V143.68C272.64 132.192 263.328 122.88 251.84 122.88H214.4ZM247.68 231.04V201.92H218.56V231.04H247.68ZM193.6 231.04V201.92H164.48V231.04H193.6ZM156.162 256C156.162 256 147.84 264.32 147.84 289.28C148.01 318.2 170.21 347.52 214.401 347.52C273.473 347.52 305.92 314.24 318.402 272.64C339.2 272.64 355.84 272.64 364.163 256C362.418 250.767 358.478 246.265 353.265 243.415C346.045 239.468 336.383 238.689 326.72 243.52C331.552 233.857 330.772 224.194 326.825 216.975C323.975 211.762 319.475 207.824 314.243 206.08C297.603 214.398 297.603 239.35 297.603 255.99V256H272.643H260.16H206.08H156.162ZM218.56 176.96H247.68V147.84H218.56V176.96ZM193.6 272.64C200.493 272.64 206.08 278.227 206.08 285.12V301.76C206.08 308.652 200.493 314.24 193.6 314.24C186.708 314.24 181.12 308.652 181.12 301.76V285.12C181.12 278.227 186.708 272.64 193.6 272.64Z" fill="white"/>
</g>
<defs>
<clipPath id="clip0_3216_16902">
<rect width="266.24" height="266.24" fill="white" transform="translate(122.88 122.88)"/>
</clipPath>
</defs>
</svg>
