<svg width="512" height="512" viewBox="0 0 512 512" fill="none" xmlns="http://www.w3.org/2000/svg">
<path d="M30.7192 256C30.7192 159.925 30.7192 111.888 56.112 78.7956C62.6493 70.2761 70.2751 62.6502 78.7946 56.113C111.887 30.7202 159.924 30.7202 255.999 30.7202C352.074 30.7202 400.111 30.7202 433.204 56.113C441.723 62.6502 449.349 70.2761 455.887 78.7956C481.279 111.888 481.279 159.925 481.279 256C481.279 352.075 481.279 400.112 455.887 433.205C449.349 441.724 441.723 449.35 433.204 455.887C400.111 481.28 352.074 481.28 255.999 481.28C159.924 481.28 111.887 481.28 78.7946 455.887C70.2751 449.35 62.6493 441.724 56.112 433.205C30.7192 400.112 30.7192 352.075 30.7192 256Z" fill="#030F21"/>
<path fill-rule="evenodd" clip-rule="evenodd" d="M322.56 264.32C336.345 264.32 347.52 275.495 347.52 289.28V305.92C347.52 319.705 336.345 330.88 322.56 330.88H189.44C175.655 330.88 164.48 319.705 164.48 305.92V289.28C164.48 275.495 175.654 264.32 189.44 264.32H322.56ZM337.37 241.593L314.032 194.917C309.804 186.461 301.161 181.12 291.707 181.12H220.292C210.838 181.12 202.195 186.461 197.967 194.917L174.629 241.593C179.308 240.142 184.283 239.36 189.44 239.36H322.56C327.716 239.36 332.691 240.142 337.37 241.593ZM372.48 275.641V289.28V305.92C372.48 333.49 350.13 355.84 322.56 355.84H189.44C161.869 355.84 139.52 333.49 139.52 305.92V289.28V275.641C139.52 262.724 142.527 249.985 148.303 238.432L175.642 183.755C184.098 166.843 201.383 156.16 220.292 156.16H291.707C310.616 156.16 327.901 166.843 336.357 183.755L363.696 238.432C369.472 249.985 372.48 262.724 372.48 275.641ZM272.64 285.12C265.747 285.12 260.16 290.707 260.16 297.6C260.16 304.492 265.747 310.08 272.64 310.08H314.24C321.132 310.08 326.72 304.492 326.72 297.6C326.72 290.707 321.132 285.12 314.24 285.12H272.64Z" fill="white"/>
</svg>
