<svg width="512" height="512" viewBox="0 0 512 512" fill="none" xmlns="http://www.w3.org/2000/svg">
<path d="M30.7202 256C30.7202 159.925 30.7202 111.888 56.113 78.7954C62.6502 70.2758 70.2761 62.65 78.7956 56.1127C111.888 30.72 159.925 30.72 256 30.72C352.075 30.72 400.112 30.72 433.205 56.1127C441.724 62.65 449.35 70.2758 455.887 78.7954C481.28 111.888 481.28 159.925 481.28 256C481.28 352.075 481.28 400.112 455.887 433.205C449.35 441.724 441.724 449.35 433.205 455.887C400.112 481.28 352.075 481.28 256 481.28C159.925 481.28 111.888 481.28 78.7956 455.887C70.2761 449.35 62.6502 441.724 56.113 433.205C30.7202 400.112 30.7202 352.075 30.7202 256Z" fill="#030F21"/>
<g clip-path="url(#clip0_3219_877)">
<path fill-rule="evenodd" clip-rule="evenodd" d="M222.72 256C222.72 285.107 217.151 307.487 209.144 321.635C201.433 335.259 193.048 339.2 185.28 339.2C177.512 339.2 169.127 335.259 161.416 321.635C156.899 313.654 153.158 303.053 150.755 290.102C155.473 294.895 161.529 297.6 168.64 297.6C186.543 297.6 197.76 280.461 197.76 256C197.76 231.539 186.543 214.4 168.64 214.4C161.529 214.4 155.473 217.104 150.755 221.897C153.158 208.947 156.899 198.346 161.416 190.365C169.127 176.741 177.512 172.8 185.28 172.8C193.048 172.8 201.433 176.741 209.144 190.365C217.151 204.512 222.72 226.893 222.72 256ZM247.68 256C247.68 319.598 223.643 364.16 185.28 364.16C146.918 364.16 122.88 319.598 122.88 256C122.88 192.402 146.918 147.84 185.28 147.84C223.643 147.84 247.68 192.402 247.68 256ZM364.16 256C364.16 285.107 358.591 307.487 350.584 321.635C342.873 335.259 334.488 339.2 326.72 339.2C318.952 339.2 310.567 335.259 302.856 321.635C298.339 313.654 294.598 303.053 292.195 290.102C296.913 294.895 302.969 297.6 310.08 297.6C327.983 297.6 339.2 280.461 339.2 256C339.2 231.539 327.983 214.4 310.08 214.4C302.969 214.4 296.913 217.104 292.195 221.897C294.598 208.947 298.339 198.346 302.856 190.365C310.567 176.741 318.952 172.8 326.72 172.8C334.488 172.8 342.873 176.741 350.584 190.365C358.591 204.512 364.16 226.893 364.16 256ZM389.12 256C389.12 319.598 365.083 364.16 326.72 364.16C288.358 364.16 264.32 319.598 264.32 256C264.32 192.402 288.358 147.84 326.72 147.84C365.083 147.84 389.12 192.402 389.12 256Z" fill="white"/>
</g>
<defs>
<clipPath id="clip0_3219_877">
<rect width="266.24" height="266.24" fill="white" transform="translate(122.88 122.88)"/>
</clipPath>
</defs>
</svg>
