<svg width="512" height="512" viewBox="0 0 512 512" fill="none" xmlns="http://www.w3.org/2000/svg">
<path d="M30.7203 256C30.7203 159.925 30.7203 111.888 56.1131 78.7956C62.6503 70.2761 70.2762 62.6502 78.7957 56.113C111.888 30.7202 159.926 30.7202 256 30.7202C352.075 30.7202 400.112 30.7202 433.205 56.113C441.724 62.6502 449.35 70.2761 455.888 78.7956C481.28 111.888 481.28 159.925 481.28 256C481.28 352.075 481.28 400.112 455.888 433.205C449.35 441.724 441.724 449.35 433.205 455.887C400.112 481.28 352.075 481.28 256 481.28C159.926 481.28 111.888 481.28 78.7957 455.887C70.2762 449.35 62.6503 441.724 56.1131 433.205C30.7203 400.112 30.7203 352.075 30.7203 256Z" fill="#030F21"/>
<path fill-rule="evenodd" clip-rule="evenodd" d="M280.96 214.4V261.038L319.766 235.168L347.52 216.665V330.88C347.52 335.475 343.795 339.2 339.2 339.2H172.8C168.205 339.2 164.48 335.475 164.48 330.88V172.8C164.48 168.205 168.205 164.48 172.8 164.48H197.76C202.355 164.48 206.08 168.205 206.08 172.8V214.4V263.416L245.721 234.586L280.96 208.958V214.4ZM231.04 172.8V183.537V214.4L256 196.247L271.021 185.323C274.777 182.591 279.302 181.12 283.946 181.12C290.359 181.12 296.131 183.868 300.148 188.25C303.733 192.16 305.92 197.372 305.92 203.094V214.4L322.879 203.094L330.601 197.946L337.729 193.194C341.401 190.746 345.715 189.44 350.128 189.44C362.473 189.44 372.48 199.447 372.48 211.792V330.88C372.48 349.26 357.58 364.16 339.2 364.16H172.8C154.42 364.16 139.52 349.26 139.52 330.88V172.8C139.52 154.42 154.42 139.52 172.8 139.52H197.76C216.14 139.52 231.04 154.42 231.04 172.8ZM201.92 289.28C195.028 289.28 189.44 294.867 189.44 301.76C189.44 308.652 195.028 314.24 201.92 314.24H310.08C316.973 314.24 322.56 308.652 322.56 301.76C322.56 294.867 316.973 289.28 310.08 289.28H201.92Z" fill="white"/>
</svg>
