<svg width="512" height="512" viewBox="0 0 512 512" fill="none" xmlns="http://www.w3.org/2000/svg">
<path d="M30.7188 256C30.7188 159.925 30.7188 111.888 56.1115 78.7956C62.6488 70.2761 70.2746 62.6502 78.7941 56.113C111.887 30.7202 159.924 30.7202 255.999 30.7202C352.074 30.7202 400.111 30.7202 433.203 56.113C441.723 62.6502 449.349 70.2761 455.886 78.7956C481.279 111.888 481.279 159.925 481.279 256C481.279 352.075 481.279 400.112 455.886 433.205C449.349 441.724 441.723 449.35 433.203 455.887C400.111 481.28 352.074 481.28 255.999 481.28C159.924 481.28 111.887 481.28 78.7941 455.887C70.2746 449.35 62.6488 441.724 56.1115 433.205C30.7188 400.112 30.7188 352.075 30.7188 256Z" fill="#030F21"/>
<g clip-path="url(#clip0_3219_1233)">
<path fill-rule="evenodd" clip-rule="evenodd" d="M230.248 237.099L249.028 200.946C256.388 186.779 268.042 167.108 280.185 149.439C296.229 166.823 311.908 187.717 323.655 209.712C336.11 233.035 343.359 256.114 343.359 276.8C343.359 300.544 328.309 323.885 307.525 336.924C308.489 332.512 309.039 327.726 309.039 322.56C309.039 301.676 297.82 283.682 290.007 273.264C285.729 267.561 281.504 262.871 278.354 259.604C276.765 257.957 275.414 256.634 274.419 255.687C273.921 255.212 273.509 254.829 273.199 254.544L272.81 254.189L272.675 254.068L272.623 254.021L272.601 254.002L272.591 253.993C272.586 253.989 272.581 253.985 255.999 272.64C255.999 272.64 263.586 279.384 270.873 289.367C271.377 290.058 271.88 290.764 272.378 291.484C278.538 300.384 284.079 311.472 284.079 322.56C284.079 335.371 278.873 343.798 273.806 348.967C271.157 351.668 269.164 355.282 268.574 358.965C268.339 360.433 268.327 361.911 268.586 363.347C268.772 364.386 269.1 365.403 269.588 366.378C271.458 370.118 275.289 372.542 279.456 372.197C326.647 368.287 368.319 324.438 368.319 276.8C368.319 224.401 332.092 168.005 295.823 129.615C291.691 125.241 285.898 122.88 279.881 122.88C272.707 122.88 265.927 126.251 261.814 132.129C254.296 142.875 246.891 154.472 240.375 165.392C235.181 174.096 230.551 182.37 226.879 189.44L210.984 167.188C210.898 167.067 210.81 166.948 210.721 166.83C207.627 162.737 202.787 160.32 197.639 160.32C192.477 160.32 187.606 162.733 184.548 166.892C166.475 191.478 143.679 226.864 143.679 276.8C143.679 324.438 185.35 368.287 232.542 372.197C236.708 372.542 240.54 370.118 242.41 366.378C242.897 365.403 243.225 364.386 243.412 363.347C243.67 361.911 243.658 360.433 243.423 358.965C242.834 355.282 240.84 351.668 238.192 348.967C233.124 343.798 227.919 335.371 227.919 322.56C227.919 311.472 233.46 300.384 239.619 291.484C240.118 290.764 240.621 290.058 241.125 289.367C248.411 279.384 255.999 272.64 255.999 272.64C239.416 253.985 239.412 253.989 239.407 253.993L239.397 254.002L239.375 254.021L239.323 254.068L239.188 254.189L238.799 254.544C238.488 254.829 238.077 255.212 237.578 255.687C236.584 256.634 235.233 257.957 233.644 259.604C230.494 262.871 226.268 267.561 221.991 273.264C214.177 283.682 202.959 301.676 202.959 322.56C202.959 327.726 203.508 332.512 204.472 336.924C183.689 323.885 168.639 300.544 168.639 276.8C168.639 240.669 182.73 213.361 197.674 191.496L206.568 203.948L230.248 237.099ZM255.999 272.64L272.581 253.985L255.999 239.245L239.416 253.985L255.999 272.64Z" fill="white"/>
</g>
<defs>
<clipPath id="clip0_3219_1233">
<rect width="266.24" height="266.24" fill="white" transform="translate(122.879 122.88)"/>
</clipPath>
</defs>
</svg>
