<svg width="512" height="512" viewBox="0 0 512 512" fill="none" xmlns="http://www.w3.org/2000/svg">
<path d="M30.7202 256C30.7202 159.925 30.7202 111.888 56.113 78.7956C62.6502 70.2761 70.2761 62.6502 78.7956 56.113C111.888 30.7202 159.925 30.7202 256 30.7202C352.075 30.7202 400.112 30.7202 433.205 56.113C441.724 62.6502 449.35 70.2761 455.887 78.7956C481.28 111.888 481.28 159.925 481.28 256C481.28 352.075 481.28 400.112 455.887 433.205C449.35 441.724 441.724 449.35 433.205 455.887C400.112 481.28 352.075 481.28 256 481.28C159.925 481.28 111.888 481.28 78.7956 455.887C70.2761 449.35 62.6502 441.724 56.113 433.205C30.7202 400.112 30.7202 352.075 30.7202 256Z" fill="#030F21"/>
<path fill-rule="evenodd" clip-rule="evenodd" d="M314.146 342.527C328.072 334.511 330.88 326.779 330.88 322.56C330.88 316.735 329.125 311.045 325.844 306.232L273.84 229.961C270.348 224.839 268.48 218.783 268.48 212.584V171.288C264.626 172.263 260.413 172.8 256 172.8C251.587 172.8 247.374 172.263 243.52 171.288V212.584C243.52 218.783 241.652 224.839 238.16 229.961L186.157 306.232C182.875 311.045 181.12 316.735 181.12 322.56C181.12 326.779 183.928 334.511 197.855 342.527C211.392 350.32 231.856 355.84 256 355.84C280.144 355.84 300.608 350.32 314.146 342.527ZM256 131.2C289.28 131.2 293.44 147.84 293.44 156.16V212.584C293.44 213.767 293.797 214.923 294.463 215.9L346.466 292.171C352.574 301.129 355.84 311.718 355.84 322.56C355.84 355.84 311.14 380.8 256 380.8C200.86 380.8 156.16 355.84 156.16 322.56C156.16 311.718 159.427 301.129 165.534 292.171L217.537 215.9C218.204 214.923 218.56 213.767 218.56 212.584L218.56 156.16C218.56 147.84 222.72 131.2 256 131.2ZM257.397 258.096C263.132 254.272 270.881 255.822 274.704 261.557L299.664 298.997C303.487 304.732 301.938 312.48 296.203 316.304C290.468 320.127 282.719 318.577 278.896 312.842L253.936 275.402C250.113 269.667 251.663 261.919 257.397 258.096Z" fill="white"/>
</svg>
