<svg width="512" height="512" viewBox="0 0 512 512" fill="none" xmlns="http://www.w3.org/2000/svg">
<path d="M30.7197 256C30.7197 159.925 30.7197 111.888 56.1125 78.7954C62.6497 70.2758 70.2756 62.65 78.7951 56.1127C111.888 30.72 159.925 30.72 256 30.72C352.074 30.72 400.112 30.72 433.204 56.1127C441.724 62.65 449.35 70.2758 455.887 78.7954C481.28 111.888 481.28 159.925 481.28 256C481.28 352.075 481.28 400.112 455.887 433.205C449.35 441.724 441.724 449.35 433.204 455.887C400.112 481.28 352.074 481.28 256 481.28C159.925 481.28 111.888 481.28 78.7951 455.887C70.2756 449.35 62.6497 441.724 56.1125 433.205C30.7197 400.112 30.7197 352.075 30.7197 256Z" fill="#030F21"/>
<path fill-rule="evenodd" clip-rule="evenodd" d="M181.179 221.014C161.942 215.602 147.839 197.928 147.839 176.96C147.839 175.381 147.919 173.82 148.076 172.281C150.419 149.207 169.906 131.2 193.599 131.2C218.872 131.2 239.359 151.688 239.359 176.96C239.359 197.865 225.342 215.495 206.194 220.965C207.404 233.622 218.066 243.52 231.039 243.52H255.999H280.959C293.933 243.52 304.595 233.622 305.805 220.965C286.657 215.495 272.639 197.865 272.639 176.96C272.639 151.688 293.127 131.2 318.399 131.2C343.672 131.2 364.159 151.688 364.159 176.96C364.159 178.54 364.079 180.101 363.923 181.639C362.005 200.521 348.608 216.009 330.82 221.014C329.54 247.444 307.707 268.48 280.959 268.48H268.479V291.003C287.686 296.435 301.759 314.094 301.759 335.04C301.759 360.313 281.272 380.8 255.999 380.8C230.727 380.8 210.239 360.313 210.239 335.04C210.239 333.461 210.319 331.9 210.476 330.361C212.391 311.5 225.761 296.025 243.519 291.003V268.48H231.039C204.292 268.48 182.458 247.444 181.179 221.014ZM172.799 176.96C172.799 165.473 182.112 156.16 193.599 156.16C205.087 156.16 214.399 165.473 214.399 176.96C214.399 188.448 205.087 197.76 193.599 197.76C182.83 197.76 173.972 189.575 172.907 179.087C172.836 178.388 172.799 177.678 172.799 176.96ZM235.199 335.04C235.199 323.553 244.512 314.24 255.999 314.24C267.487 314.24 276.799 323.553 276.799 335.04C276.799 346.528 267.487 355.84 255.999 355.84C245.23 355.84 236.372 347.655 235.307 337.167C235.236 336.468 235.199 335.758 235.199 335.04ZM297.599 176.96C297.599 165.473 306.912 156.16 318.399 156.16C329.887 156.16 339.199 165.473 339.199 176.96C339.199 188.448 329.887 197.76 318.399 197.76C306.912 197.76 297.599 188.448 297.599 176.96Z" fill="white"/>
</svg>
