<svg width="512" height="512" viewBox="0 0 512 512" fill="none" xmlns="http://www.w3.org/2000/svg">
<path d="M30.718 256C30.718 159.925 30.718 111.888 56.1108 78.7956C62.648 70.2761 70.2739 62.6502 78.7934 56.113C111.886 30.7202 159.923 30.7202 255.998 30.7202C352.073 30.7202 400.11 30.7202 433.203 56.113C441.722 62.6502 449.348 70.2761 455.885 78.7956C481.278 111.888 481.278 159.925 481.278 256C481.278 352.075 481.278 400.112 455.885 433.205C449.348 441.724 441.722 449.35 433.203 455.887C400.11 481.28 352.073 481.28 255.998 481.28C159.923 481.28 111.886 481.28 78.7934 455.887C70.2739 449.35 62.648 441.724 56.1108 433.205C30.718 400.112 30.718 352.075 30.718 256Z" fill="#030F21"/>
<path d="M343.298 164.966C350.036 164.367 355.838 169.676 355.838 176.441V337.631C355.836 343.595 351.278 348.576 345.338 349.106C338.602 349.705 332.801 344.394 332.798 337.631V176.441C332.798 170.476 337.357 165.497 343.298 164.966ZM156.158 190.901C156.158 169.553 179.844 156.722 197.723 168.386L297.518 233.486C313.775 244.092 313.775 267.91 297.518 278.516L197.723 343.631C179.845 355.29 156.161 342.46 156.158 321.116V190.901Z" fill="white"/>
</svg>
