<svg width="512" height="512" viewBox="0 0 512 512" fill="none" xmlns="http://www.w3.org/2000/svg">
<path d="M30.7207 256C30.7207 159.925 30.7207 111.888 56.1134 78.7956C62.6507 70.2761 70.2766 62.6502 78.7961 56.113C111.889 30.7202 159.926 30.7202 256.001 30.7202C352.075 30.7202 400.113 30.7202 433.205 56.113C441.725 62.6502 449.351 70.2761 455.888 78.7956C481.281 111.888 481.281 159.925 481.281 256C481.281 352.075 481.281 400.112 455.888 433.205C449.351 441.724 441.725 449.35 433.205 455.887C400.113 481.28 352.075 481.28 256.001 481.28C159.926 481.28 111.889 481.28 78.7961 455.887C70.2766 449.35 62.6507 441.724 56.1134 433.205C30.7207 400.112 30.7207 352.075 30.7207 256Z" fill="#030F21"/>
<g clip-path="url(#clip0_3219_760)">
<path fill-rule="evenodd" clip-rule="evenodd" d="M122.881 143.68C122.881 136.788 128.468 131.2 135.361 131.2L143.681 131.2C164.358 131.2 181.121 147.963 181.121 168.64L181.121 172.8L339.201 172.8C366.771 172.8 389.121 195.15 389.121 222.72L389.121 289.28C389.121 316.85 366.771 339.2 339.201 339.2L181.121 339.2L181.121 360C181.121 366.892 175.533 372.48 168.641 372.48C161.748 372.48 156.161 366.892 156.161 360L156.161 339.2L156.161 314.24L156.161 197.76L156.161 172.8L156.161 168.64C156.161 161.748 150.573 156.16 143.681 156.16L135.361 156.16C128.468 156.16 122.881 150.573 122.881 143.68ZM339.201 197.76L181.121 197.76L181.121 314.24L339.201 314.24C352.986 314.24 364.161 303.065 364.161 289.28L364.161 222.72C364.161 208.935 352.986 197.76 339.201 197.76ZM264.321 256C264.321 265.19 256.871 272.64 247.681 272.64C238.491 272.64 231.041 265.19 231.041 256C231.041 246.81 238.491 239.36 247.681 239.36C256.871 239.36 264.321 246.81 264.321 256ZM289.281 256C289.281 278.975 270.656 297.6 247.681 297.6C224.706 297.6 206.081 278.975 206.081 256C206.081 233.025 224.706 214.4 247.681 214.4C270.656 214.4 289.281 233.025 289.281 256Z" fill="white"/>
</g>
<defs>
<clipPath id="clip0_3219_760">
<rect width="266.24" height="266.24" fill="white" transform="translate(122.881 122.88)"/>
</clipPath>
</defs>
</svg>
