<svg width="512" height="512" viewBox="0 0 512 512" fill="none" xmlns="http://www.w3.org/2000/svg">
<path d="M30.7203 256C30.7203 159.925 30.7203 111.888 56.1131 78.7956C62.6503 70.2761 70.2762 62.6502 78.7957 56.113C111.888 30.7202 159.926 30.7202 256 30.7202C352.075 30.7202 400.112 30.7202 433.205 56.113C441.724 62.6502 449.35 70.2761 455.888 78.7956C481.28 111.888 481.28 159.925 481.28 256C481.28 352.075 481.28 400.112 455.888 433.205C449.35 441.724 441.724 449.35 433.205 455.887C400.112 481.28 352.075 481.28 256 481.28C159.926 481.28 111.888 481.28 78.7957 455.887C70.2762 449.35 62.6503 441.724 56.1131 433.205C30.7203 400.112 30.7203 352.075 30.7203 256Z" fill="#030F21"/>
<path fill-rule="evenodd" clip-rule="evenodd" d="M314.241 172.8H197.761C183.976 172.8 172.801 183.975 172.801 197.76V281.412L188.801 269.775C199.14 262.256 213.174 262.359 223.401 270.03L238.84 281.609L278.24 247.838C289.455 238.225 306.089 238.531 316.943 248.55L339.201 269.096V197.76C339.201 183.975 328.026 172.8 314.241 172.8ZM364.161 297.563V197.76C364.161 170.19 341.811 147.84 314.241 147.84H197.761C170.191 147.84 147.841 170.19 147.841 197.76V305.782C147.84 305.88 147.84 305.979 147.841 306.078V314.24C147.841 341.81 170.191 364.16 197.761 364.16H314.241C341.811 364.16 364.161 341.81 364.161 314.24V297.642V297.563ZM339.201 303.064L300.013 266.89C298.462 265.459 296.086 265.415 294.484 266.789L247.483 307.075L239.882 313.59L231.873 307.584L208.425 289.998C206.964 288.902 204.959 288.887 203.482 289.961L172.801 312.275V314.24C172.801 328.025 183.976 339.2 197.761 339.2H314.241C328.026 339.2 339.201 328.025 339.201 314.24V303.064ZM247.681 222.72C247.681 236.505 236.506 247.68 222.721 247.68C208.936 247.68 197.761 236.505 197.761 222.72C197.761 208.935 208.936 197.76 222.721 197.76C236.506 197.76 247.681 208.935 247.681 222.72Z" fill="white"/>
</svg>
