<svg width="512" height="512" viewBox="0 0 512 512" fill="none" xmlns="http://www.w3.org/2000/svg">
<path d="M30.7207 256C30.7207 159.925 30.7207 111.888 56.1134 78.7956C62.6507 70.2761 70.2766 62.6502 78.7961 56.113C111.889 30.7202 159.926 30.7202 256.001 30.7202C352.075 30.7202 400.113 30.7202 433.205 56.113C441.725 62.6502 449.351 70.2761 455.888 78.7956C481.281 111.888 481.281 159.925 481.281 256C481.281 352.075 481.281 400.112 455.888 433.205C449.351 441.724 441.725 449.35 433.205 455.887C400.113 481.28 352.075 481.28 256.001 481.28C159.926 481.28 111.889 481.28 78.7961 455.887C70.2766 449.35 62.6507 441.724 56.1134 433.205C30.7207 400.112 30.7207 352.075 30.7207 256Z" fill="#030F21"/>
<path fill-rule="evenodd" clip-rule="evenodd" d="M276.099 328.315C268.032 344.962 260.242 347.52 256.001 347.52C251.76 347.52 243.97 344.962 235.902 328.315C229.707 315.532 225.133 297.396 223.439 275.28C233.975 276.278 244.869 276.799 256.001 276.799C267.133 276.799 278.026 276.278 288.563 275.28C286.869 297.396 282.294 315.532 276.099 328.315ZM289.217 250.131C278.597 251.245 267.477 251.839 256.001 251.839C244.525 251.839 233.404 251.245 222.785 250.131C223.406 221.897 228.497 198.966 235.902 183.685C243.97 167.038 251.76 164.48 256.001 164.48C260.242 164.48 268.032 167.038 276.099 183.685C283.505 198.966 288.595 221.897 289.217 250.131ZM313.802 271.866C312.385 297.076 307.566 319.252 299.903 336.322C326.154 321.943 344.587 295.07 347.201 263.702C336.862 267.01 325.661 269.756 313.802 271.866ZM345.722 237.854C336.204 241.265 325.577 244.163 314.083 246.421C313.159 218.609 308.197 194.154 299.903 175.678C323.19 188.433 340.324 211.02 345.722 237.854ZM197.918 246.421C198.842 218.609 203.805 194.154 212.098 175.678C188.812 188.433 171.677 211.02 166.28 237.854C175.798 241.265 186.424 244.163 197.918 246.421ZM164.8 263.702C167.414 295.07 185.847 321.943 212.098 336.322C204.435 319.252 199.617 297.076 198.199 271.866C186.341 269.756 175.139 267.01 164.8 263.702ZM372.481 256C372.481 191.67 320.331 139.52 256.001 139.52C191.671 139.52 139.521 191.67 139.521 256C139.521 320.33 191.671 372.48 256.001 372.48C320.331 372.48 372.481 320.33 372.481 256Z" fill="white"/>
</svg>
