<svg width="512" height="512" viewBox="0 0 512 512" fill="none" xmlns="http://www.w3.org/2000/svg">
<path d="M30.7197 256C30.7197 159.925 30.7197 111.888 56.1125 78.7956C62.6497 70.2761 70.2756 62.6502 78.7951 56.113C111.888 30.7202 159.925 30.7202 256 30.7202C352.074 30.7202 400.112 30.7202 433.204 56.113C441.724 62.6502 449.35 70.2761 455.887 78.7956C481.28 111.888 481.28 159.925 481.28 256C481.28 352.075 481.28 400.112 455.887 433.205C449.35 441.724 441.724 449.35 433.204 455.887C400.112 481.28 352.074 481.28 256 481.28C159.925 481.28 111.888 481.28 78.7951 455.887C70.2756 449.35 62.6497 441.724 56.1125 433.205C30.7197 400.112 30.7197 352.075 30.7197 256Z" fill="#030F21"/>
<path fill-rule="evenodd" clip-rule="evenodd" d="M294.485 247.484L272.639 250.231V272.249V339.581C272.639 343.233 270.257 346.459 266.767 347.533L239.816 355.826C239.783 355.837 239.748 355.842 239.713 355.842C239.655 355.842 239.626 355.837 239.615 355.835L239.583 355.825C239.559 355.814 239.513 355.789 239.463 355.739C239.413 355.689 239.387 355.643 239.377 355.619L239.367 355.587L239.364 355.567C239.362 355.551 239.359 355.525 239.359 355.489V272.249V250.231L217.514 247.484C207.297 246.199 198.769 238.673 196.36 228.437L186.572 186.836C182.886 171.169 194.773 156.16 210.869 156.16H301.13C317.226 156.16 329.113 171.169 325.427 186.837L315.638 228.437C313.23 238.673 304.702 246.199 294.485 247.484ZM339.935 234.153C335.113 254.645 318.057 269.676 297.599 272.249V339.581C297.599 354.19 288.071 367.092 274.108 371.389L247.158 379.682C244.746 380.425 242.236 380.802 239.713 380.802C225.732 380.802 214.399 369.469 214.399 355.489V272.249C193.942 269.676 176.885 254.645 172.064 234.153L162.276 192.553C154.903 161.218 178.678 131.2 210.869 131.2H301.13C333.321 131.2 357.096 161.218 349.723 192.553L339.935 234.153ZM235.199 181.12C228.307 181.12 222.719 186.707 222.719 193.6C222.719 200.492 228.307 206.08 235.199 206.08H276.799C283.692 206.08 289.279 200.492 289.279 193.6C289.279 186.707 283.692 181.12 276.799 181.12H235.199Z" fill="white"/>
</svg>
