<svg width="512" height="512" viewBox="0 0 512 512" fill="none" xmlns="http://www.w3.org/2000/svg">
<path d="M30.7212 256C30.7212 159.925 30.7212 111.888 56.1139 78.7956C62.6512 70.2761 70.277 62.6502 78.7966 56.113C111.889 30.7202 159.926 30.7202 256.001 30.7202C352.076 30.7202 400.113 30.7202 433.206 56.113C441.725 62.6502 449.351 70.2761 455.888 78.7956C481.281 111.888 481.281 159.925 481.281 256C481.281 352.075 481.281 400.112 455.888 433.205C449.351 441.724 441.725 449.35 433.206 455.887C400.113 481.28 352.076 481.28 256.001 481.28C159.926 481.28 111.889 481.28 78.7966 455.887C70.277 449.35 62.6512 441.724 56.1139 433.205C30.7212 400.112 30.7212 352.075 30.7212 256Z" fill="#030F21"/>
<g clip-path="url(#clip0_3219_1227)">
<path fill-rule="evenodd" clip-rule="evenodd" d="M172.801 189.44H339.201C352.986 189.44 364.161 200.615 364.161 214.4V297.6C364.161 311.385 352.986 322.56 339.201 322.56H172.801C159.016 322.56 147.841 311.385 147.841 297.6V214.4C147.841 200.615 159.016 189.44 172.801 189.44ZM122.881 214.4C122.881 186.83 145.231 164.48 172.801 164.48H339.201C366.771 164.48 389.121 186.83 389.121 214.4V297.6C389.121 325.17 366.771 347.52 339.201 347.52H172.801C145.231 347.52 122.881 325.17 122.881 297.6V214.4ZM226.881 268.48C219.989 268.48 214.401 274.067 214.401 280.96C214.401 287.852 219.989 293.44 226.881 293.44H285.121C292.014 293.44 297.601 287.852 297.601 280.96C297.601 274.067 292.014 268.48 285.121 268.48H226.881ZM197.761 231.04C197.761 240.23 190.311 247.68 181.121 247.68C171.931 247.68 164.481 240.23 164.481 231.04C164.481 221.85 171.931 214.4 181.121 214.4C190.311 214.4 197.761 221.85 197.761 231.04ZM231.041 247.68C240.231 247.68 247.681 240.23 247.681 231.04C247.681 221.85 240.231 214.4 231.041 214.4C221.851 214.4 214.401 221.85 214.401 231.04C214.401 240.23 221.851 247.68 231.041 247.68ZM297.601 231.04C297.601 240.23 290.151 247.68 280.961 247.68C271.771 247.68 264.321 240.23 264.321 231.04C264.321 221.85 271.771 214.4 280.961 214.4C290.151 214.4 297.601 221.85 297.601 231.04ZM330.881 247.68C340.071 247.68 347.521 240.23 347.521 231.04C347.521 221.85 340.071 214.4 330.881 214.4C321.691 214.4 314.241 221.85 314.241 231.04C314.241 240.23 321.691 247.68 330.881 247.68ZM197.761 280.96C197.761 290.15 190.311 297.6 181.121 297.6C171.931 297.6 164.481 290.15 164.481 280.96C164.481 271.77 171.931 264.32 181.121 264.32C190.311 264.32 197.761 271.77 197.761 280.96ZM330.881 297.6C340.071 297.6 347.521 290.15 347.521 280.96C347.521 271.77 340.071 264.32 330.881 264.32C321.691 264.32 314.241 271.77 314.241 280.96C314.241 290.15 321.691 297.6 330.881 297.6Z" fill="white"/>
</g>
<defs>
<clipPath id="clip0_3219_1227">
<rect width="266.24" height="266.24" fill="white" transform="translate(122.881 122.88)"/>
</clipPath>
</defs>
</svg>
