<svg width="512" height="512" viewBox="0 0 512 512" fill="none" xmlns="http://www.w3.org/2000/svg">
<path d="M30.7196 256C30.7196 159.925 30.7196 111.888 56.1123 78.7956C62.6496 70.2761 70.2755 62.6502 78.795 56.113C111.887 30.7202 159.925 30.7202 256 30.7202C352.074 30.7202 400.112 30.7202 433.204 56.113C441.724 62.6502 449.35 70.2761 455.887 78.7956C481.28 111.888 481.28 159.925 481.28 256C481.28 352.075 481.28 400.112 455.887 433.205C449.35 441.724 441.724 449.35 433.204 455.887C400.112 481.28 352.074 481.28 256 481.28C159.925 481.28 111.887 481.28 78.795 455.887C70.2755 449.35 62.6496 441.724 56.1123 433.205C30.7196 400.112 30.7196 352.075 30.7196 256Z" fill="#008CFF"/>
<path fill-rule="evenodd" clip-rule="evenodd" d="M180.615 231.545C185.489 226.671 193.39 226.671 198.264 231.545C203.138 236.418 203.138 244.32 198.264 249.194L186.167 261.292C177.608 269.85 172.8 281.458 172.8 293.562C172.8 318.767 193.232 339.2 218.437 339.2C230.541 339.2 242.149 334.392 250.708 325.833L262.805 313.735C267.679 308.862 275.581 308.862 280.455 313.735C285.328 318.609 285.328 326.511 280.455 331.385L268.357 343.482C255.117 356.722 237.161 364.16 218.437 364.16C179.447 364.16 147.84 332.552 147.84 293.562C147.84 274.839 155.278 256.882 168.517 243.642L180.615 231.545ZM313.735 262.806C308.861 267.679 308.861 275.581 313.735 280.455C318.609 285.329 326.511 285.329 331.384 280.455L343.482 268.357C356.722 255.118 364.16 237.161 364.16 218.437C364.16 179.447 332.552 147.84 293.562 147.84C274.838 147.84 256.882 155.278 243.642 168.517L231.544 180.615C226.671 185.489 226.671 193.391 231.544 198.265C236.418 203.138 244.32 203.138 249.194 198.265L261.291 186.167C269.85 177.608 281.458 172.8 293.562 172.8C318.767 172.8 339.2 193.232 339.2 218.437C339.2 230.541 334.391 242.149 325.833 250.708L313.735 262.806ZM298.104 231.545C302.978 226.671 302.978 218.769 298.104 213.895C293.23 209.021 285.329 209.021 280.455 213.895L213.895 280.455C209.021 285.329 209.021 293.231 213.895 298.105C218.769 302.978 226.671 302.978 231.544 298.105L298.104 231.545Z" fill="white"/>
</svg>
