<svg width="512" height="512" viewBox="0 0 512 512" fill="none" xmlns="http://www.w3.org/2000/svg">
<path d="M30.7202 256C30.7202 159.925 30.7202 111.888 56.113 78.7954C62.6502 70.2758 70.2761 62.65 78.7956 56.1127C111.888 30.72 159.925 30.72 256 30.72C352.075 30.72 400.112 30.72 433.205 56.1127C441.724 62.65 449.35 70.2758 455.887 78.7954C481.28 111.888 481.28 159.925 481.28 256C481.28 352.075 481.28 400.112 455.887 433.205C449.35 441.724 441.724 449.35 433.205 455.887C400.112 481.28 352.075 481.28 256 481.28C159.925 481.28 111.888 481.28 78.7956 455.887C70.2761 449.35 62.6502 441.724 56.113 433.205C30.7202 400.112 30.7202 352.075 30.7202 256Z" fill="#030F21"/>
<g clip-path="url(#clip0_3216_16955)">
<path fill-rule="evenodd" clip-rule="evenodd" d="M236.938 180.612C247.394 177.24 258.852 177.765 269.107 182.323L279.388 186.892C280.598 187.43 281.74 188.038 282.815 188.71C282.862 186.628 282.989 184.543 283.198 182.458L284.023 174.208C285.435 160.09 274.348 147.84 260.16 147.84C245.972 147.84 234.886 160.09 236.297 174.208L236.938 180.612ZM290.9 225.973C289.115 228.678 286.773 231.131 283.857 233.172L255.16 253.26C246.836 259.087 235.279 256.158 230.735 247.069L226.903 239.405L210.436 276.456C207.564 282.918 206.08 289.91 206.08 296.982C206.08 299.956 206.337 302.871 206.83 305.705C214.499 311.242 220.319 319.302 222.932 328.883L224.98 336.394C233.64 343.355 244.643 347.52 256.618 347.52H265.609C266.193 347.52 266.774 347.511 267.353 347.494L272.428 328.883C277.465 310.413 294.418 297.6 313.562 297.6C316.456 297.6 319.284 297.892 322.019 298.449C322.376 295.873 322.56 293.243 322.56 290.569C322.56 278.7 318.851 267.126 311.952 257.468L297.957 237.874C295.255 234.092 292.899 230.109 290.9 225.973ZM344.845 311.411C346.59 304.757 347.52 297.772 347.52 290.569C347.52 273.497 342.186 256.852 332.263 242.96L318.268 223.366C310.308 212.224 306.671 198.567 308.034 184.942L308.859 176.691C311.74 147.88 289.115 122.88 260.16 122.88C231.205 122.88 208.58 147.88 211.461 176.691L212.791 189.992C213.846 200.535 212.137 211.172 207.833 220.855L187.627 266.319C183.337 275.972 181.12 286.418 181.12 296.982C181.12 297.19 181.121 297.398 181.123 297.605C158.206 297.966 139.52 316.651 139.52 339.649C139.52 358.944 152.652 375.763 171.371 380.443L203.305 388.426C205.148 388.887 207.041 389.12 208.94 389.12C221.235 389.12 230.828 379.738 232.055 368.394C239.756 371.042 248.019 372.48 256.618 372.48H264.128C266.934 381.906 275.639 389.12 286.42 389.12C288.319 389.12 290.212 388.887 292.055 388.426L323.989 380.443C342.708 375.763 355.84 358.944 355.84 339.649C355.84 328.78 351.666 318.875 344.845 311.411ZM258.97 205.132L269.251 209.701C269.746 209.921 269.902 210.121 269.98 210.234C270.103 210.412 270.239 210.717 270.279 211.128C270.319 211.538 270.243 211.863 270.156 212.062C270.101 212.187 269.987 212.413 269.543 212.724L248.747 227.281L239.615 209.017C239.122 208.032 239.471 206.833 240.416 206.267C246.046 202.888 252.969 202.465 258.97 205.132ZM177.424 356.228L206.5 363.497L198.851 335.451C196.808 327.958 189.81 322.56 181.798 322.56C172.183 322.56 164.48 330.387 164.48 339.649C164.48 347.491 169.817 354.326 177.424 356.228ZM288.86 363.497L317.936 356.228C325.543 354.326 330.88 347.491 330.88 339.649C330.88 330.387 323.177 322.56 313.562 322.56C305.55 322.56 298.552 327.958 296.509 335.451L288.86 363.497Z" fill="white"/>
</g>
<defs>
<clipPath id="clip0_3216_16955">
<rect width="266.24" height="266.24" fill="white" transform="translate(122.88 122.88)"/>
</clipPath>
</defs>
</svg>
