<svg width="512" height="512" viewBox="0 0 512 512" fill="none" xmlns="http://www.w3.org/2000/svg">
<mask id="mask0_3216_16936" style="mask-type:alpha" maskUnits="userSpaceOnUse" x="30" y="30" width="452" height="452">
<path d="M30.72 256C30.72 159.925 30.72 111.888 56.1127 78.7956C62.65 70.2761 70.2758 62.6502 78.7954 56.113C111.888 30.7202 159.925 30.7202 256 30.7202C352.075 30.7202 400.112 30.7202 433.205 56.113C441.724 62.6502 449.35 70.2761 455.887 78.7956C481.28 111.888 481.28 159.925 481.28 256C481.28 352.075 481.28 400.112 455.887 433.205C449.35 441.724 441.724 449.35 433.205 455.887C400.112 481.28 352.075 481.28 256 481.28C159.925 481.28 111.888 481.28 78.7954 455.887C70.2758 449.35 62.65 441.724 56.1127 433.205C30.72 400.112 30.72 352.075 30.72 256Z" fill="white"/>
</mask>
<g mask="url(#mask0_3216_16936)">
<path d="M30.72 256C30.72 159.925 30.72 111.888 56.1127 78.7956C62.65 70.2761 70.2758 62.6502 78.7954 56.113C111.888 30.7202 159.925 30.7202 256 30.7202C352.075 30.7202 400.112 30.7202 433.205 56.113C441.724 62.6502 449.35 70.2761 455.887 78.7956C481.28 111.888 481.28 159.925 481.28 256C481.28 352.075 481.28 400.112 455.887 433.205C449.35 441.724 441.724 449.35 433.205 455.887C400.112 481.28 352.075 481.28 256 481.28C159.925 481.28 111.888 481.28 78.7954 455.887C70.2758 449.35 62.65 441.724 56.1127 433.205C30.72 400.112 30.72 352.075 30.72 256Z" fill="#FA8824"/>
</g>
<path fill-rule="evenodd" clip-rule="evenodd" d="M273.686 181.12H322.56C336.345 181.12 347.52 192.295 347.52 206.08V305.92C347.52 319.705 336.345 330.88 322.56 330.88H298.583C298.429 330.709 298.27 330.54 298.105 330.375C285.625 317.895 285.12 306.671 285.12 276.8C285.12 269.908 279.533 264.32 272.64 264.32H251.882C252.183 232.785 254.588 207.057 273.686 181.12ZM244.115 181.12H189.44C175.655 181.12 164.48 192.295 164.48 206.08V305.92C164.48 319.705 175.655 330.88 189.44 330.88H267.876C261.545 318.221 260.403 304.682 260.201 289.28H239.36C232.467 289.28 226.88 283.693 226.88 276.8L226.88 275.64C226.877 244.173 226.875 212.549 244.115 181.12ZM139.52 206.08C139.52 178.51 161.87 156.16 189.44 156.16H322.56C350.13 156.16 372.48 178.51 372.48 206.08V305.92C372.48 333.49 350.13 355.84 322.56 355.84H189.44C161.87 355.84 139.52 333.49 139.52 305.92V206.08ZM293.44 243.52C293.44 250.413 299.028 256 305.92 256C312.813 256 318.4 250.413 318.4 243.52V226.88C318.4 219.988 312.813 214.4 305.92 214.4C299.028 214.4 293.44 219.988 293.44 226.88V243.52ZM201.92 256C195.028 256 189.44 250.413 189.44 243.52L189.44 226.88C189.44 219.988 195.028 214.4 201.92 214.4C208.813 214.4 214.4 219.988 214.4 226.88V243.52C214.4 250.413 208.813 256 201.92 256Z" fill="white"/>
</svg>
