<svg width="512" height="512" viewBox="0 0 512 512" fill="none" xmlns="http://www.w3.org/2000/svg">
<path d="M30.7192 256C30.7192 159.925 30.7192 111.888 56.112 78.7956C62.6493 70.2761 70.2751 62.6502 78.7946 56.113C111.887 30.7202 159.924 30.7202 255.999 30.7202C352.074 30.7202 400.111 30.7202 433.204 56.113C441.723 62.6502 449.349 70.2761 455.887 78.7956C481.279 111.888 481.279 159.925 481.279 256C481.279 352.075 481.279 400.112 455.887 433.205C449.349 441.724 441.723 449.35 433.204 455.887C400.111 481.28 352.074 481.28 255.999 481.28C159.924 481.28 111.887 481.28 78.7946 455.887C70.2751 449.35 62.6493 441.724 56.112 433.205C30.7192 400.112 30.7192 352.075 30.7192 256Z" fill="#904AC5"/>
<path fill-rule="evenodd" clip-rule="evenodd" d="M307.586 220.954L300.736 235.986L311.896 248.166L334.452 272.784L301.278 269.005L284.865 267.136L276.73 281.513L260.287 310.573L253.629 277.854L250.335 261.667L234.148 258.373L201.429 251.715L230.489 235.272L244.866 227.137L242.997 210.724L239.218 177.55L263.836 200.106L276.016 211.266L291.048 204.416L321.431 190.571L307.586 220.954ZM239.675 144.115L280.698 181.703L331.329 158.631C345.334 152.249 359.753 166.668 353.371 180.673L330.299 231.304L367.887 272.327C378.285 283.675 369.027 301.843 353.735 300.101L298.453 293.805L271.054 342.23C263.474 355.625 243.334 352.435 240.265 337.353L229.171 282.831L174.649 271.737C159.567 268.668 156.377 248.528 169.772 240.949L218.197 213.549L211.901 158.267C210.159 142.975 228.327 133.717 239.675 144.115ZM214.904 314.744C219.778 309.871 219.778 301.969 214.904 297.095C210.03 292.221 202.128 292.221 197.254 297.095L139.014 355.335C134.141 360.209 134.141 368.111 139.014 372.984C143.888 377.858 151.79 377.858 156.664 372.984L214.904 314.744Z" fill="white"/>
</svg>
