<svg width="512" height="512" viewBox="0 0 512 512" fill="none" xmlns="http://www.w3.org/2000/svg">
<path d="M30.7197 256C30.7197 159.925 30.7197 111.888 56.1125 78.7956C62.6497 70.2761 70.2756 62.6502 78.7951 56.113C111.888 30.7202 159.925 30.7202 256 30.7202C352.074 30.7202 400.112 30.7202 433.204 56.113C441.724 62.6502 449.35 70.2761 455.887 78.7956C481.28 111.888 481.28 159.925 481.28 256C481.28 352.075 481.28 400.112 455.887 433.205C449.35 441.724 441.724 449.35 433.204 455.887C400.112 481.28 352.074 481.28 256 481.28C159.925 481.28 111.888 481.28 78.7951 455.887C70.2756 449.35 62.6497 441.724 56.1125 433.205C30.7197 400.112 30.7197 352.075 30.7197 256Z" fill="#030F21"/>
<path fill-rule="evenodd" clip-rule="evenodd" d="M347.52 264.32H307.788C298.673 284.304 278.589 297.6 256 297.6C233.41 297.6 213.327 284.304 204.211 264.32H164.48V305.92C164.48 319.705 175.655 330.88 189.44 330.88H322.56C336.345 330.88 347.52 319.705 347.52 305.92V264.32ZM310.851 185.159L343.371 239.36H289.28L287.013 248.425C283.455 262.656 270.669 272.64 256 272.64C241.33 272.64 228.544 262.656 224.986 248.425L222.72 239.36H168.628L201.148 185.159C202.652 182.653 205.36 181.12 208.282 181.12H303.717C306.639 181.12 309.347 182.653 310.851 185.159ZM372.48 264.32V253.187C372.48 244.139 370.021 235.261 365.366 227.503L332.254 172.317C326.24 162.293 315.407 156.16 303.717 156.16H208.282C196.592 156.16 185.759 162.293 179.745 172.317L146.633 227.503C141.978 235.261 139.52 244.139 139.52 253.187V264.32V305.92C139.52 333.49 161.869 355.84 189.44 355.84H322.56C350.13 355.84 372.48 333.49 372.48 305.92V264.32Z" fill="white"/>
</svg>
