<svg width="512" height="512" viewBox="0 0 512 512" fill="none" xmlns="http://www.w3.org/2000/svg">
<path d="M30.7204 256C30.7204 159.925 30.7204 111.888 56.1131 78.7956C62.6504 70.2761 70.2763 62.6502 78.7958 56.113C111.888 30.7202 159.926 30.7202 256 30.7202C352.075 30.7202 400.113 30.7202 433.205 56.113C441.725 62.6502 449.35 70.2761 455.888 78.7956C481.28 111.888 481.28 159.925 481.28 256C481.28 352.075 481.28 400.112 455.888 433.205C449.35 441.724 441.725 449.35 433.205 455.887C400.113 481.28 352.075 481.28 256 481.28C159.926 481.28 111.888 481.28 78.7958 455.887C70.2763 449.35 62.6504 441.724 56.1131 433.205C30.7204 400.112 30.7204 352.075 30.7204 256Z" fill="#030F21"/>
<path fill-rule="evenodd" clip-rule="evenodd" d="M322.56 181.12L322.56 330.88C322.56 344.665 311.385 355.84 297.6 355.84L214.4 355.84C200.615 355.84 189.44 344.665 189.44 330.88L189.44 181.12C189.44 167.335 200.615 156.16 214.4 156.16L297.6 156.16C311.385 156.16 322.56 167.335 322.56 181.12ZM297.6 131.2C325.17 131.2 347.52 153.55 347.52 181.12L347.52 330.88C347.52 358.45 325.17 380.8 297.6 380.8L214.4 380.8C186.83 380.8 164.48 358.45 164.48 330.88L164.48 181.12C164.48 153.55 186.83 131.2 214.4 131.2L297.6 131.2ZM226.88 305.92C219.988 305.92 214.4 311.508 214.4 318.4C214.4 325.293 219.988 330.88 226.88 330.88L285.12 330.88C292.013 330.88 297.6 325.293 297.6 318.4C297.6 311.508 292.013 305.92 285.12 305.92L226.88 305.92Z" fill="white"/>
</svg>
