<svg width="512" height="512" viewBox="0 0 512 512" fill="none" xmlns="http://www.w3.org/2000/svg">
<path d="M30.7178 256C30.7178 159.925 30.7178 111.888 56.1105 78.7956C62.6478 70.2761 70.2736 62.6502 78.7932 56.113C111.886 30.7202 159.923 30.7202 255.998 30.7202C352.073 30.7202 400.11 30.7202 433.202 56.113C441.722 62.6502 449.348 70.2761 455.885 78.7956C481.278 111.888 481.278 159.925 481.278 256C481.278 352.075 481.278 400.112 455.885 433.205C449.348 441.724 441.722 449.35 433.202 455.887C400.11 481.28 352.073 481.28 255.998 481.28C159.923 481.28 111.886 481.28 78.7932 455.887C70.2736 449.35 62.6478 441.724 56.1105 433.205C30.7178 400.112 30.7178 352.075 30.7178 256Z" fill="#030F21"/>
<path fill-rule="evenodd" clip-rule="evenodd" d="M255.998 347.52C306.543 347.52 347.518 306.545 347.518 256C347.518 218.881 325.419 186.923 293.661 172.565C298.858 184.053 301.758 196.811 301.758 210.24C301.758 260.785 260.783 301.76 210.238 301.76C196.808 301.76 184.051 298.861 172.562 293.664C186.921 325.422 218.878 347.52 255.998 347.52ZM140.26 269.226C146.827 327.329 196.139 372.48 255.998 372.48C320.328 372.48 372.478 320.33 372.478 256C372.478 196.142 327.326 146.829 269.224 140.263C269.221 140.262 269.219 140.262 269.217 140.262C269.064 140.245 268.911 140.228 268.758 140.211C264.567 139.754 260.31 139.52 255.998 139.52C247.223 139.52 246.181 153.529 252.912 159.158C253.969 160.042 254.998 160.958 255.998 161.905C256.822 162.686 257.627 163.488 258.411 164.31C258.477 164.379 258.542 164.448 258.607 164.517C269.883 176.441 276.798 192.533 276.798 210.24C276.798 247 246.998 276.8 210.238 276.8C192.531 276.8 176.438 269.886 164.514 258.61C164.445 258.544 164.376 258.479 164.308 258.414C163.486 257.63 162.684 256.825 161.903 256C160.956 255 160.04 253.971 159.156 252.914C153.527 246.183 139.518 247.225 139.518 256C139.518 260.312 139.752 264.57 140.209 268.76C140.225 268.913 140.242 269.066 140.259 269.219C140.26 269.222 140.26 269.224 140.26 269.226Z" fill="white"/>
</svg>
