<svg width="512" height="512" viewBox="0 0 512 512" fill="none" xmlns="http://www.w3.org/2000/svg">
<path d="M30.7192 256C30.7192 159.925 30.7192 111.888 56.112 78.7954C62.6492 70.2758 70.2751 62.65 78.7946 56.1127C111.887 30.72 159.924 30.72 255.999 30.72C352.074 30.72 400.111 30.72 433.204 56.1127C441.723 62.65 449.349 70.2758 455.886 78.7954C481.279 111.888 481.279 159.925 481.279 256C481.279 352.075 481.279 400.112 455.886 433.205C449.349 441.724 441.723 449.35 433.204 455.887C400.111 481.28 352.074 481.28 255.999 481.28C159.924 481.28 111.887 481.28 78.7946 455.887C70.2751 449.35 62.6492 441.724 56.112 433.205C30.7192 400.112 30.7192 352.075 30.7192 256Z" fill="white"/>
<path d="M297.6 164.48C348.145 164.481 389.119 205.455 389.119 256C389.119 306.545 348.145 347.519 297.6 347.52H214.399C163.854 347.519 122.88 306.545 122.88 256C122.88 205.455 163.854 164.481 214.399 164.48H297.6ZM214.399 189.44C177.639 189.44 147.84 219.24 147.84 256C147.84 292.76 177.639 322.56 214.399 322.56C251.159 322.56 280.96 292.76 280.96 256C280.96 219.24 251.159 189.44 214.399 189.44Z" fill="black"/>
</svg>
