<svg width="512" height="512" viewBox="0 0 512 512" fill="none" xmlns="http://www.w3.org/2000/svg">
<path d="M30.7202 256C30.7202 159.925 30.7202 111.888 56.113 78.7954C62.6502 70.2758 70.2761 62.65 78.7956 56.1127C111.888 30.72 159.925 30.72 256 30.72C352.075 30.72 400.112 30.72 433.205 56.1127C441.724 62.65 449.35 70.2758 455.887 78.7954C481.28 111.888 481.28 159.925 481.28 256C481.28 352.075 481.28 400.112 455.887 433.205C449.35 441.724 441.724 449.35 433.205 455.887C400.112 481.28 352.075 481.28 256 481.28C159.925 481.28 111.888 481.28 78.7956 455.887C70.2761 449.35 62.6502 441.724 56.113 433.205C30.7202 400.112 30.7202 352.075 30.7202 256Z" fill="white"/>
<path fill-rule="evenodd" clip-rule="evenodd" d="M381.305 148.345C386.178 143.471 386.178 135.569 381.305 130.695C376.431 125.822 368.529 125.822 363.655 130.695L342.196 152.155C330.766 144.19 316.87 139.52 301.882 139.52C283.159 139.52 265.202 146.958 251.962 160.198L242.306 169.854C236.084 176.076 236.084 186.164 242.306 192.386L319.614 269.694C325.836 275.916 335.924 275.916 342.146 269.694L351.802 260.038C365.042 246.798 372.48 228.841 372.48 210.118C372.48 195.13 367.81 181.234 359.845 169.804L381.305 148.345ZM239.865 230.535C244.738 235.409 244.738 243.311 239.865 248.185L219.065 268.985L243.015 292.935L263.815 272.135C268.689 267.262 276.591 267.262 281.465 272.135C286.339 277.009 286.339 284.911 281.465 289.785L260.665 310.585L269.694 319.614C275.916 325.836 275.916 335.924 269.694 342.146L260.038 351.802C246.798 365.042 228.841 372.48 210.118 372.48C195.13 372.48 181.234 367.81 169.804 359.845L148.345 381.305C143.471 386.178 135.569 386.178 130.695 381.305C125.822 376.431 125.822 368.529 130.695 363.655L152.155 342.196C144.19 330.766 139.52 316.87 139.52 301.882C139.52 283.159 146.958 265.202 160.198 251.962L169.854 242.306C176.076 236.084 186.164 236.084 192.386 242.306L201.415 251.335L222.215 230.535C227.089 225.662 234.991 225.662 239.865 230.535ZM181.12 266.339L177.847 269.612C169.288 278.171 164.48 289.779 164.48 301.882C164.48 327.087 184.913 347.52 210.118 347.52C222.221 347.52 233.829 342.712 242.388 334.153L245.661 330.88L181.12 266.339ZM334.153 242.388L330.88 245.661L266.339 181.12L269.612 177.847C278.171 169.288 289.779 164.48 301.882 164.48C327.087 164.48 347.52 184.913 347.52 210.118C347.52 222.221 342.712 233.829 334.153 242.388Z" fill="black"/>
<path d="M177.847 269.612L181.12 266.339L245.661 330.88L242.388 334.153C233.829 342.712 222.221 347.52 210.118 347.52C184.913 347.52 164.48 327.087 164.48 301.882C164.48 289.779 169.288 278.171 177.847 269.612Z" fill="black"/>
<path d="M330.88 245.661L334.153 242.388C342.712 233.829 347.52 222.221 347.52 210.118C347.52 184.913 327.087 164.48 301.882 164.48C289.779 164.48 278.171 169.288 269.612 177.847L266.339 181.12L330.88 245.661Z" fill="black"/>
</svg>
