<svg width="512" height="512" viewBox="0 0 512 512" fill="none" xmlns="http://www.w3.org/2000/svg">
<path d="M30.7204 256C30.7204 159.925 30.7204 111.888 56.1131 78.7954C62.6504 70.2758 70.2763 62.65 78.7958 56.1127C111.888 30.72 159.926 30.72 256 30.72C352.075 30.72 400.113 30.72 433.205 56.1127C441.725 62.65 449.35 70.2758 455.888 78.7954C481.28 111.888 481.28 159.925 481.28 256C481.28 352.075 481.28 400.112 455.888 433.205C449.35 441.724 441.725 449.35 433.205 455.887C400.113 481.28 352.075 481.28 256 481.28C159.926 481.28 111.888 481.28 78.7958 455.887C70.2763 449.35 62.6504 441.724 56.1131 433.205C30.7204 400.112 30.7204 352.075 30.7204 256Z" fill="white"/>
<g clip-path="url(#clip0_3216_17001)">
<path fill-rule="evenodd" clip-rule="evenodd" d="M122.88 256C122.88 205.455 163.855 164.48 214.4 164.48H256H289.28H297.6C348.145 164.48 389.12 205.455 389.12 256C389.12 306.545 348.145 347.52 297.6 347.52H289.28L256 347.52H214.4C163.855 347.52 122.88 306.545 122.88 256ZM231.04 256C231.04 292.76 260.84 322.56 297.6 322.56C334.36 322.56 364.16 292.76 364.16 256C364.16 219.24 334.36 189.44 297.6 189.44C260.84 189.44 231.04 219.24 231.04 256Z" fill="#18C474"/>
</g>
<defs>
<clipPath id="clip0_3216_17001">
<rect width="266.24" height="266.24" fill="white" transform="translate(122.88 122.88)"/>
</clipPath>
</defs>
</svg>
