<svg width="512" height="512" viewBox="0 0 512 512" fill="none" xmlns="http://www.w3.org/2000/svg">
<path d="M30.7197 256C30.7197 159.925 30.7197 111.888 56.1125 78.7956C62.6497 70.2761 70.2756 62.6502 78.7951 56.113C111.888 30.7202 159.925 30.7202 256 30.7202C352.074 30.7202 400.112 30.7202 433.204 56.113C441.724 62.6502 449.35 70.2761 455.887 78.7956C481.28 111.888 481.28 159.925 481.28 256C481.28 352.075 481.28 400.112 455.887 433.205C449.35 441.724 441.724 449.35 433.204 455.887C400.112 481.28 352.074 481.28 256 481.28C159.925 481.28 111.888 481.28 78.7951 455.887C70.2756 449.35 62.6497 441.724 56.1125 433.205C30.7197 400.112 30.7197 352.075 30.7197 256Z" fill="#F1B259"/>
<g clip-path="url(#clip0_3216_17443)">
<path fill-rule="evenodd" clip-rule="evenodd" d="M263.099 307.137L283.159 287.081C284.414 285.825 285.12 284.122 285.12 282.347C285.12 278.795 283.709 275.389 281.198 272.878L263.099 254.782C261.216 252.899 258.662 251.841 256 251.841C253.337 251.841 250.783 252.899 248.9 254.782L230.802 272.878C228.291 275.389 226.88 278.795 226.88 282.347C226.88 284.122 227.585 285.825 228.841 287.081L248.896 307.136C250.779 309.019 253.334 310.078 255.998 310.078C258.661 310.078 261.216 309.02 263.099 307.137Z" fill="white"/>
<path fill-rule="evenodd" clip-rule="evenodd" d="M389.12 219.317V218.856C389.12 202.61 375.95 189.44 359.704 189.44C351.903 189.44 344.421 192.539 338.904 198.056L326.248 210.712L325.855 211.105L319.625 217.335L312.719 224.24C309.69 227.27 304.517 225.897 303.39 221.763L300.82 212.341L298.502 203.841L298.356 203.305L287.527 163.601C283.65 149.383 270.736 139.52 256 139.52C241.263 139.52 228.35 149.383 224.472 163.601L213.644 203.305L213.498 203.841L211.18 212.341L208.61 221.763C207.483 225.897 202.31 227.27 199.28 224.24L192.375 217.335L186.145 211.105L185.752 210.712L173.096 198.056C167.579 192.539 160.097 189.44 152.296 189.44C136.05 189.44 122.88 202.61 122.88 218.856V219.317C122.88 221.578 123.137 223.832 123.645 226.036L145.268 319.735C146.89 326.765 151.674 332.65 158.225 335.673C220.264 364.306 291.736 364.306 353.775 335.673C360.326 332.65 365.109 326.765 366.732 319.735L388.355 226.036C388.863 223.832 389.12 221.578 389.12 219.317ZM181.631 241.89C198.212 258.471 226.521 250.953 232.691 228.33L248.553 170.168C249.469 166.81 252.519 164.48 256 164.48C259.481 164.48 262.531 166.81 263.447 170.168L279.309 228.33C285.479 250.954 313.788 258.471 330.369 241.89L356.554 215.705C357.389 214.869 358.522 214.4 359.704 214.4C362.165 214.4 364.16 216.395 364.16 218.856V219.317C364.16 219.689 364.118 220.06 364.034 220.423L342.591 313.343C287.599 338.47 224.401 338.47 169.409 313.343L147.966 220.423C147.882 220.06 147.84 219.689 147.84 219.317V218.856C147.84 216.395 149.835 214.4 152.296 214.4C153.477 214.4 154.611 214.869 155.446 215.705L181.631 241.89Z" fill="white"/>
</g>
<defs>
<clipPath id="clip0_3216_17443">
<rect width="266.24" height="266.24" fill="white" transform="translate(122.88 122.88)"/>
</clipPath>
</defs>
</svg>
