<svg width="512" height="512" viewBox="0 0 512 512" fill="none" xmlns="http://www.w3.org/2000/svg">
<path d="M30.7205 256C30.7205 159.925 30.7205 111.888 56.1132 78.7956C62.6505 70.2761 70.2763 62.6502 78.7958 56.113C111.888 30.7202 159.926 30.7202 256 30.7202C352.075 30.7202 400.113 30.7202 433.205 56.113C441.725 62.6502 449.35 70.2761 455.888 78.7956C481.28 111.888 481.28 159.925 481.28 256C481.28 352.075 481.28 400.112 455.888 433.205C449.35 441.724 441.725 449.35 433.205 455.887C400.113 481.28 352.075 481.28 256 481.28C159.926 481.28 111.888 481.28 78.7958 455.887C70.2763 449.35 62.6505 441.724 56.1132 433.205C30.7205 400.112 30.7205 352.075 30.7205 256Z" fill="#030F21"/>
<path d="M209.92 156.16C222.645 156.16 232.96 166.476 232.96 179.2V332.8C232.96 345.525 222.645 355.84 209.92 355.84H179.2C166.476 355.84 156.16 345.525 156.16 332.8V179.2C156.16 166.476 166.476 156.16 179.2 156.16H209.92ZM332.8 156.16C345.525 156.16 355.84 166.476 355.84 179.2V332.8C355.84 345.525 345.525 355.84 332.8 355.84H302.08C289.355 355.84 279.04 345.525 279.04 332.8V179.2C279.04 166.476 289.355 156.16 302.08 156.16H332.8Z" fill="white"/>
</svg>
