<svg width="512" height="512" viewBox="0 0 512 512" fill="none" xmlns="http://www.w3.org/2000/svg">
<path d="M30.7189 256C30.7189 159.925 30.7189 111.888 56.1116 78.7956C62.6489 70.2761 70.2747 62.6502 78.7943 56.113C111.887 30.7202 159.924 30.7202 255.999 30.7202C352.074 30.7202 400.111 30.7202 433.203 56.113C441.723 62.6502 449.349 70.2761 455.886 78.7956C481.279 111.888 481.279 159.925 481.279 256C481.279 352.075 481.279 400.112 455.886 433.205C449.349 441.724 441.723 449.35 433.203 455.887C400.111 481.28 352.074 481.28 255.999 481.28C159.924 481.28 111.887 481.28 78.7943 455.887C70.2747 449.35 62.6489 441.724 56.1116 433.205C30.7189 400.112 30.7189 352.075 30.7189 256Z" fill="#030F21"/>
<path d="M358.021 229.663C377.901 241.596 377.903 270.411 358.021 282.343L218.04 366.327C197.567 378.606 171.53 363.86 171.525 339.988L171.525 172.018C171.525 148.141 197.565 133.395 218.04 145.678L358.021 229.663Z" fill="white"/>
</svg>
