<svg width="512" height="512" viewBox="0 0 512 512" fill="none" xmlns="http://www.w3.org/2000/svg">
<path d="M30.7197 256C30.7197 159.925 30.7197 111.888 56.1125 78.7954C62.6497 70.2758 70.2756 62.65 78.7951 56.1127C111.888 30.72 159.925 30.72 256 30.72C352.074 30.72 400.112 30.72 433.204 56.1127C441.724 62.65 449.35 70.2758 455.887 78.7954C481.28 111.888 481.28 159.925 481.28 256C481.28 352.075 481.28 400.112 455.887 433.205C449.35 441.724 441.724 449.35 433.204 455.887C400.112 481.28 352.074 481.28 256 481.28C159.925 481.28 111.888 481.28 78.7951 455.887C70.2756 449.35 62.6497 441.724 56.1125 433.205C30.7197 400.112 30.7197 352.075 30.7197 256Z" fill="#030F21"/>
<path fill-rule="evenodd" clip-rule="evenodd" d="M203.163 174.818C210.171 178.163 215.014 185.316 215.014 193.6C215.014 205.087 205.701 214.4 194.214 214.4C186.751 214.4 180.206 210.469 176.536 204.565C174.557 201.382 173.414 197.624 173.414 193.6C173.414 182.112 182.726 172.8 194.214 172.8C197.418 172.8 200.452 173.524 203.163 174.818ZM181.734 237.637C181.356 237.53 180.98 237.419 180.606 237.303C161.979 231.509 148.454 214.134 148.454 193.6C148.454 168.327 168.941 147.84 194.214 147.84C205.019 147.84 214.949 151.585 222.778 157.848C229.427 163.166 234.559 170.301 237.424 178.5L260.265 155.659C265.139 150.785 273.045 150.781 277.919 155.655C278.083 155.82 278.243 155.988 278.396 156.16C282.787 161.06 282.627 168.596 277.919 173.305L270.103 181.12H281.574C283.038 181.12 284.488 181.183 285.92 181.306C291.049 181.749 295.955 182.966 300.522 184.841C318.696 192.303 331.494 210.177 331.494 231.04V274.362C331.872 274.469 332.248 274.581 332.621 274.697C351.249 280.491 364.774 297.866 364.774 318.4C364.774 343.672 344.286 364.16 319.014 364.16C293.741 364.16 273.254 343.672 273.254 318.4C273.254 318.301 273.254 318.202 273.255 318.104C273.387 297.287 287.418 279.769 306.534 274.362V231.04C306.534 229.767 306.439 228.516 306.255 227.295C304.638 216.547 296.168 208.044 285.437 206.377C284.178 206.181 282.888 206.08 281.574 206.08L270.103 206.08L277.919 213.895C282.627 218.604 282.787 226.14 278.396 231.04C278.243 231.211 278.083 231.38 277.919 231.545C273.045 236.418 265.143 236.418 260.269 231.545L237.424 208.699C237.103 209.617 236.754 210.522 236.378 211.412C233.391 218.473 228.682 224.629 222.778 229.352C218.084 233.107 212.634 235.957 206.694 237.637V274.362C207.072 274.469 207.448 274.581 207.821 274.697C226.449 280.491 239.974 297.866 239.974 318.4C239.974 343.672 219.486 364.16 194.214 364.16C168.941 364.16 148.454 343.672 148.454 318.4C148.454 297.454 162.527 279.795 181.734 274.362V237.637ZM176.536 307.434C174.636 310.494 173.508 314.078 173.42 317.91C173.416 318.073 173.414 318.236 173.414 318.4C173.414 319.118 173.45 319.827 173.521 320.526C174.586 331.015 183.444 339.2 194.214 339.2C205.701 339.2 215.014 329.887 215.014 318.4C215.014 314.375 213.871 310.618 211.892 307.434C208.222 301.53 201.677 297.6 194.214 297.6C186.751 297.6 180.206 301.53 176.536 307.434ZM301.336 307.434C299.436 310.494 298.308 314.078 298.219 317.91C298.216 318.073 298.214 318.236 298.214 318.4C298.214 319.118 298.25 319.827 298.321 320.526C299.386 331.015 308.244 339.2 319.014 339.2C330.501 339.2 339.814 329.887 339.814 318.4C339.814 314.375 338.671 310.618 336.692 307.434C333.022 301.53 326.477 297.6 319.014 297.6C311.551 297.6 305.006 301.53 301.336 307.434Z" fill="white"/>
</svg>
