<svg width="512" height="512" viewBox="0 0 512 512" fill="none" xmlns="http://www.w3.org/2000/svg">
<path d="M30.72 256C30.72 159.925 30.72 111.888 56.1127 78.7956C62.65 70.2761 70.2759 62.6502 78.7954 56.113C111.888 30.7202 159.925 30.7202 256 30.7202C352.075 30.7202 400.112 30.7202 433.205 56.113C441.724 62.6502 449.35 70.2761 455.887 78.7956C481.28 111.888 481.28 159.925 481.28 256C481.28 352.075 481.28 400.112 455.887 433.205C449.35 441.724 441.724 449.35 433.205 455.887C400.112 481.28 352.075 481.28 256 481.28C159.925 481.28 111.888 481.28 78.7954 455.887C70.2759 449.35 62.65 441.724 56.1127 433.205C30.72 400.112 30.72 352.075 30.72 256Z" fill="#030F21"/>
<path fill-rule="evenodd" clip-rule="evenodd" d="M218.252 189.44H197.76C183.975 189.44 172.8 200.615 172.8 214.4V220.675C192.325 226.021 206.08 243.816 206.08 264.32C206.08 284.823 192.325 302.618 172.8 307.965V314.24C172.8 328.025 183.975 339.2 197.76 339.2H204.035C209.381 319.674 227.176 305.92 247.68 305.92C268.184 305.92 285.978 319.674 291.325 339.2H297.6C311.385 339.2 322.56 328.025 322.56 314.24V293.748L339.202 287.866C348.93 284.427 355.84 275.148 355.84 264.32C355.84 253.491 348.93 244.212 339.202 240.774L322.56 234.891V214.4C322.56 200.615 311.385 189.44 297.6 189.44H277.108L271.226 172.798C267.788 163.069 258.509 156.16 247.68 156.16C236.851 156.16 227.572 163.069 224.134 172.798L218.252 189.44ZM270.976 364.16L267.583 347.197C265.686 337.709 257.355 330.88 247.68 330.88C238.005 330.88 229.674 337.709 227.777 347.197L224.384 364.16H197.76C170.19 364.16 147.84 341.81 147.84 314.24V287.616L164.803 284.223C174.291 282.326 181.12 273.995 181.12 264.32C181.12 254.644 174.291 246.314 164.803 244.416L147.84 241.024V214.4C147.84 186.83 170.19 164.48 197.76 164.48H200.601C207.453 145.091 225.944 131.2 247.68 131.2C269.415 131.2 287.906 145.091 294.759 164.48H297.6C325.17 164.48 347.52 186.83 347.52 214.4V217.24C366.909 224.093 380.8 242.584 380.8 264.32C380.8 286.055 366.909 304.546 347.52 311.399V314.24C347.52 341.81 325.17 364.16 297.6 364.16H270.976Z" fill="white"/>
</svg>
