<svg width="512" height="512" viewBox="0 0 512 512" fill="none" xmlns="http://www.w3.org/2000/svg">
<path d="M30.7207 256C30.7207 159.925 30.7207 111.888 56.1134 78.7956C62.6507 70.2761 70.2766 62.6502 78.7961 56.113C111.889 30.7202 159.926 30.7202 256.001 30.7202C352.075 30.7202 400.113 30.7202 433.205 56.113C441.725 62.6502 449.351 70.2761 455.888 78.7956C481.281 111.888 481.281 159.925 481.281 256C481.281 352.075 481.281 400.112 455.888 433.205C449.351 441.724 441.725 449.35 433.205 455.887C400.113 481.28 352.075 481.28 256.001 481.28C159.926 481.28 111.889 481.28 78.7961 455.887C70.2766 449.35 62.6507 441.724 56.1134 433.205C30.7207 400.112 30.7207 352.075 30.7207 256Z" fill="#030F21"/>
<path fill-rule="evenodd" clip-rule="evenodd" d="M181.761 209.6L191.041 209.6L209.601 209.6L251.404 209.6C259.092 209.6 265.324 203.368 265.324 195.68C265.324 187.992 259.092 181.76 251.404 181.76L209.601 181.76C209.601 166.384 222.065 153.92 237.441 153.92H274.561C289.937 153.92 302.401 166.384 302.401 181.76V191.018L302.401 191.04L302.401 209.6L302.401 218.88C302.401 231.693 292.014 242.08 279.201 242.08H232.801C204.612 242.08 181.761 264.931 181.761 293.12L181.761 302.4C166.385 302.4 153.921 289.936 153.921 274.56V237.44C153.921 222.064 166.385 209.6 181.761 209.6ZM209.601 302.4V330.24C209.601 345.616 222.065 358.08 237.441 358.08H274.561C289.937 358.08 302.401 345.616 302.401 330.24H260.641C252.953 330.24 246.721 324.008 246.721 316.32C246.721 308.632 252.953 302.4 260.641 302.4H302.401H321.004H330.241C345.617 302.4 358.081 289.936 358.081 274.56V237.44C358.081 222.064 345.617 209.6 330.241 209.6L330.241 218.88C330.241 247.069 307.39 269.92 279.201 269.92H232.801C219.988 269.92 209.601 280.307 209.601 293.12L209.601 302.4ZM237.441 126.08C206.69 126.08 181.761 151.009 181.761 181.76C151.01 181.76 126.081 206.689 126.081 237.44V274.56C126.081 305.311 151.01 330.24 181.761 330.24C181.761 360.991 206.69 385.92 237.441 385.92H274.561C305.312 385.92 330.241 360.991 330.241 330.24C360.992 330.24 385.921 305.311 385.921 274.56V237.44C385.921 206.689 360.992 181.76 330.241 181.76C330.241 151.009 305.312 126.08 274.561 126.08H237.441Z" fill="white"/>
<path d="M209.601 330.24V302.4L209.601 293.12C209.601 280.307 219.988 269.92 232.801 269.92H279.201C307.39 269.92 330.241 247.069 330.241 218.88L330.241 209.6C345.617 209.6 358.081 222.064 358.081 237.44V274.56C358.081 289.936 345.617 302.4 330.241 302.4H321.004H302.401H260.641C252.953 302.4 246.721 308.632 246.721 316.32C246.721 324.008 252.953 330.24 260.641 330.24H302.401C302.401 345.616 289.937 358.08 274.561 358.08H237.441C222.065 358.08 209.601 345.616 209.601 330.24Z" fill="#FFE873"/>
<path d="M191.041 209.6L181.761 209.6C166.385 209.6 153.921 222.064 153.921 237.44V274.56C153.921 289.936 166.385 302.4 181.761 302.4L181.761 293.12C181.761 264.931 204.612 242.08 232.801 242.08H279.201C292.014 242.08 302.401 231.693 302.401 218.88L302.401 209.6L302.401 191.04L302.401 191.018V181.76C302.401 166.384 289.937 153.92 274.561 153.92H237.441C222.065 153.92 209.601 166.384 209.601 181.76L251.404 181.76C259.092 181.76 265.324 187.992 265.324 195.68C265.324 203.368 259.092 209.6 251.404 209.6L209.601 209.6L191.041 209.6Z" fill="#306998"/>
</svg>
