<svg width="512" height="512" viewBox="0 0 512 512" fill="none" xmlns="http://www.w3.org/2000/svg">
<path d="M30.7188 256C30.7188 159.925 30.7188 111.888 56.1115 78.7956C62.6488 70.2761 70.2746 62.6502 78.7941 56.113C111.887 30.7202 159.924 30.7202 255.999 30.7202C352.074 30.7202 400.111 30.7202 433.203 56.113C441.723 62.6502 449.349 70.2761 455.886 78.7956C481.279 111.888 481.279 159.925 481.279 256C481.279 352.075 481.279 400.112 455.886 433.205C449.349 441.724 441.723 449.35 433.203 455.887C400.111 481.28 352.074 481.28 255.999 481.28C159.924 481.28 111.887 481.28 78.7941 455.887C70.2746 449.35 62.6488 441.724 56.1115 433.205C30.7188 400.112 30.7188 352.075 30.7188 256Z" fill="#030F21"/>
<path fill-rule="evenodd" clip-rule="evenodd" d="M268.479 160.32C268.479 153.427 262.891 147.84 255.999 147.84C249.106 147.84 243.519 153.427 243.519 160.32V243.52H160.319C153.426 243.52 147.839 249.107 147.839 256C147.839 262.892 153.426 268.48 160.319 268.48H251.839C261.029 268.48 268.479 261.03 268.479 251.84V160.32ZM243.519 305.92C243.519 296.73 250.969 289.28 260.159 289.28H305.919C312.811 289.28 318.399 294.867 318.399 301.76C318.399 308.652 312.811 314.24 305.919 314.24H268.479V351.68C268.479 358.572 262.891 364.16 255.999 364.16C249.106 364.16 243.519 358.572 243.519 351.68V305.92ZM339.199 339.2H301.759C294.866 339.2 289.279 344.787 289.279 351.68C289.279 358.572 294.866 364.16 301.759 364.16H347.519C356.709 364.16 364.159 356.71 364.159 347.52V260.16C364.159 250.97 356.709 243.52 347.519 243.52L301.759 243.52C294.866 243.52 289.279 249.107 289.279 256C289.279 262.892 294.866 268.48 301.759 268.48L339.199 268.48V339.2ZM172.799 197.76V172.8H197.759V197.76H172.799ZM147.839 164.48C147.839 155.29 155.289 147.84 164.479 147.84H206.079C215.269 147.84 222.719 155.29 222.719 164.48V206.08C222.719 215.27 215.269 222.72 206.079 222.72H164.479C155.289 222.72 147.839 215.27 147.839 206.08V164.48ZM172.799 314.24V339.2H197.759V314.24H172.799ZM164.479 289.28C155.289 289.28 147.839 296.73 147.839 305.92V347.52C147.839 356.71 155.289 364.16 164.479 364.16H206.079C215.269 364.16 222.719 356.71 222.719 347.52V305.92C222.719 296.73 215.269 289.28 206.079 289.28H164.479ZM314.239 197.76V172.8H339.199V197.76H314.239ZM289.279 164.48C289.279 155.29 296.729 147.84 305.919 147.84H347.519C356.709 147.84 364.159 155.29 364.159 164.48V206.08C364.159 215.27 356.709 222.72 347.519 222.72H305.919C296.729 222.72 289.279 215.27 289.279 206.08V164.48Z" fill="white"/>
</svg>
