<svg width="512" height="512" viewBox="0 0 512 512" fill="none" xmlns="http://www.w3.org/2000/svg">
<path d="M30.7207 256C30.7207 159.925 30.7207 111.888 56.1134 78.7956C62.6507 70.2761 70.2766 62.6502 78.7961 56.113C111.889 30.7202 159.926 30.7202 256.001 30.7202C352.075 30.7202 400.113 30.7202 433.205 56.113C441.725 62.6502 449.351 70.2761 455.888 78.7956C481.281 111.888 481.281 159.925 481.281 256C481.281 352.075 481.281 400.112 455.888 433.205C449.351 441.724 441.725 449.35 433.205 455.887C400.113 481.28 352.075 481.28 256.001 481.28C159.926 481.28 111.889 481.28 78.7961 455.887C70.2766 449.35 62.6507 441.724 56.1134 433.205C30.7207 400.112 30.7207 352.075 30.7207 256Z" fill="#030F21"/>
<path fill-rule="evenodd" clip-rule="evenodd" d="M256 372.48C320.331 372.48 372.48 320.33 372.48 256C372.48 191.67 320.331 139.52 256 139.52C191.67 139.52 139.521 191.67 139.521 256C139.521 320.33 191.67 372.48 256 372.48ZM230.045 198.416C237.2 192.539 246.588 189.022 256 189.022C276.255 189.022 294.929 202.672 294.929 224.644C294.929 230.904 293.631 237.032 289.98 242.952C286.512 248.576 281.442 253.152 275.421 257.37C271.801 259.905 270.002 261.643 269.118 262.828C268.48 263.683 268.48 264 268.48 264.302V264.316C268.48 271.209 262.893 276.796 256 276.796C249.108 276.796 243.52 271.209 243.52 264.316C243.52 251.092 252.567 242.905 261.1 236.927C265.754 233.666 267.778 231.403 268.735 229.851C269.51 228.595 269.969 227.211 269.969 224.644C269.969 219.665 265.914 213.982 256 213.982C252.588 213.982 248.752 215.351 245.888 217.703C243.102 219.992 242.032 222.475 242.032 224.644C242.032 231.537 236.445 237.124 229.552 237.124C222.66 237.124 217.072 231.537 217.072 224.644C217.072 213.444 222.814 204.356 230.045 198.416ZM272.64 305.92C272.64 315.11 265.19 322.56 256 322.56C246.81 322.56 239.36 315.11 239.36 305.92C239.36 296.73 246.81 289.28 256 289.28C265.19 289.28 272.64 296.73 272.64 305.92Z" fill="white"/>
</svg>
