<svg width="512" height="512" viewBox="0 0 512 512" fill="none" xmlns="http://www.w3.org/2000/svg">
<path d="M30.7208 256C30.7208 159.925 30.7208 111.888 56.1136 78.7954C62.6508 70.2758 70.2767 62.65 78.7962 56.1127C111.889 30.72 159.926 30.72 256.001 30.72C352.076 30.72 400.113 30.72 433.205 56.1127C441.725 62.65 449.351 70.2758 455.888 78.7954C481.281 111.888 481.281 159.925 481.281 256C481.281 352.075 481.281 400.112 455.888 433.205C449.351 441.724 441.725 449.35 433.205 455.887C400.113 481.28 352.076 481.28 256.001 481.28C159.926 481.28 111.889 481.28 78.7962 455.887C70.2767 449.35 62.6508 441.724 56.1136 433.205C30.7208 400.112 30.7208 352.075 30.7208 256Z" fill="white"/>
<path d="M197.761 163.84C220.164 163.84 239.944 175.063 251.786 192.22L256.001 198.325L260.216 192.22C272.059 175.065 291.839 163.84 314.241 163.84H318.401C353.489 163.84 382.142 191.384 383.916 226.04L383.926 226.22C383.977 226.807 384.002 227.403 384.001 228L383.996 228.875V228.915L384.001 229.47V233.6C384.001 236.434 383.818 239.235 383.466 241.99L383.451 242.11L383.441 242.235C380.087 284.537 361.56 322.185 327.376 348.38C323.156 351.613 318.048 353.279 312.906 353.28C294.587 353.28 283.459 333.792 291.691 318.11C293.574 314.521 296.092 309.496 298.781 303.515L301.181 298.17L295.566 296.505C283.403 292.9 272.705 285.858 264.606 276.495L258.621 269.575L255.856 278.3C247.16 305.728 230.865 329.889 206.736 348.38C202.516 351.613 197.408 353.279 192.266 353.28C173.947 353.28 162.818 333.792 171.051 318.11C172.934 314.521 175.452 309.496 178.141 303.515L180.541 298.17L174.926 296.505C147.789 288.462 128.001 263.335 128.001 233.6V229.44C128.001 193.21 157.371 163.84 193.601 163.84H197.761ZM193.601 178.56C165.5 178.56 142.721 201.34 142.721 229.44V233.6C142.721 257.489 159.181 277.522 181.371 283C185.293 283.968 189.391 284.48 193.601 284.48H197.761C198.982 284.48 200.194 284.43 201.396 284.345C199.31 290.708 197 296.788 194.691 302.335C194.02 303.946 193.349 305.511 192.686 307.025C190.924 311.047 189.211 314.705 187.661 317.88C186.652 319.946 185.715 321.809 184.876 323.435L184.081 324.955C180.898 331.023 185.229 338.56 192.266 338.56C194.236 338.559 196.186 337.921 197.786 336.695C198.354 336.26 198.917 335.817 199.476 335.375C204.693 331.242 209.504 326.797 213.901 322.065C223.634 311.59 231.322 299.734 236.966 286.805C237.315 286.005 237.657 285.202 237.991 284.395C242.001 274.678 244.873 264.389 246.616 253.66C247.314 249.358 247.829 244.985 248.166 240.55C248.477 238.275 248.641 235.955 248.641 233.6V229.41L248.636 228.935L248.641 227.96L248.656 222.825H248.206C247.183 214.96 244.371 207.654 240.181 201.34C231.077 187.623 215.479 178.56 197.761 178.56H193.601ZM314.241 178.56C286.14 178.56 263.361 201.34 263.361 229.44V233.6C263.361 257.488 279.821 277.522 302.011 283C305.933 283.968 310.031 284.48 314.241 284.48H318.401C319.622 284.48 320.834 284.43 322.036 284.345C319.95 290.708 317.64 296.788 315.331 302.335C314.66 303.946 313.989 305.511 313.326 307.025C311.564 311.047 309.85 314.701 308.301 317.875C307.291 319.942 306.356 321.808 305.516 323.435C305.241 323.966 304.973 324.47 304.721 324.95C301.535 331.018 305.868 338.56 312.906 338.56C314.876 338.559 316.826 337.921 318.426 336.695C318.994 336.26 319.557 335.817 320.116 335.375C325.334 331.242 330.144 326.797 334.541 322.065C344.274 311.59 351.962 299.734 357.606 286.805C357.955 286.005 358.297 285.202 358.631 284.395C362.641 274.677 365.513 264.39 367.256 253.66C367.954 249.358 368.469 244.985 368.806 240.55C369.117 238.275 369.281 235.955 369.281 233.6V229.41L369.276 228.935L369.281 227.97L369.296 222.665L368.826 222.675C367.787 214.866 364.984 207.609 360.821 201.335C351.717 187.619 336.118 178.56 318.401 178.56H314.241Z" fill="#030F21"/>
<path d="M314.241 178.56C286.14 178.56 263.361 201.34 263.361 229.44V233.6C263.361 257.488 279.821 277.522 302.011 283C305.933 283.968 310.031 284.48 314.241 284.48H318.401C319.622 284.48 320.834 284.43 322.036 284.345C319.95 290.708 317.64 296.788 315.331 302.335C314.66 303.946 313.989 305.511 313.326 307.025C311.564 311.047 309.85 314.701 308.301 317.875C307.291 319.942 306.356 321.808 305.516 323.435C305.241 323.966 304.973 324.47 304.721 324.95C301.535 331.018 305.868 338.56 312.906 338.56C314.876 338.559 316.826 337.921 318.426 336.695C318.994 336.26 319.557 335.817 320.116 335.375C325.334 331.242 330.144 326.797 334.541 322.065C344.274 311.59 351.962 299.734 357.606 286.805C357.955 286.005 358.297 285.202 358.631 284.395C362.641 274.677 365.513 264.39 367.256 253.66C367.954 249.358 368.469 244.985 368.806 240.55C369.117 238.275 369.281 235.955 369.281 233.6V229.41L369.276 228.935L369.281 227.97L369.296 222.665L368.826 222.675C367.787 214.866 364.984 207.609 360.821 201.335C351.717 187.619 336.118 178.56 318.401 178.56H314.241Z" fill="#030F21"/>
<path d="M193.601 178.56C165.5 178.56 142.721 201.34 142.721 229.44V233.6C142.721 257.489 159.181 277.522 181.371 283C185.293 283.968 189.391 284.48 193.601 284.48H197.761C198.982 284.48 200.194 284.43 201.396 284.345C199.31 290.708 197 296.788 194.691 302.335C194.02 303.946 193.349 305.511 192.686 307.025C190.924 311.047 189.211 314.705 187.661 317.88C186.652 319.946 185.715 321.809 184.876 323.435L184.081 324.955C180.898 331.023 185.229 338.56 192.266 338.56C194.236 338.559 196.186 337.921 197.786 336.695C198.354 336.26 198.917 335.817 199.476 335.375C204.693 331.242 209.504 326.797 213.901 322.065C223.634 311.59 231.322 299.734 236.966 286.805C237.315 286.005 237.657 285.202 237.991 284.395C242.001 274.678 244.873 264.389 246.616 253.66C247.314 249.358 247.829 244.985 248.166 240.55C248.477 238.275 248.641 235.955 248.641 233.6V229.41L248.636 228.935L248.641 227.96L248.656 222.825H248.206C247.183 214.96 244.371 207.654 240.181 201.34C231.077 187.623 215.479 178.56 197.761 178.56H193.601Z" fill="#030F21"/>
</svg>
