<svg width="512" height="512" viewBox="0 0 512 512" fill="none" xmlns="http://www.w3.org/2000/svg">
<path d="M30.7196 256C30.7196 159.925 30.7196 111.888 56.1123 78.7954C62.6496 70.2758 70.2755 62.65 78.795 56.1127C111.887 30.72 159.925 30.72 256 30.72C352.074 30.72 400.112 30.72 433.204 56.1127C441.724 62.65 449.35 70.2758 455.887 78.7954C481.28 111.888 481.28 159.925 481.28 256C481.28 352.075 481.28 400.112 455.887 433.205C449.35 441.724 441.724 449.35 433.204 455.887C400.112 481.28 352.074 481.28 256 481.28C159.925 481.28 111.887 481.28 78.795 455.887C70.2755 449.35 62.6496 441.724 56.1123 433.205C30.7196 400.112 30.7196 352.075 30.7196 256Z" fill="#0071FF"/>
<path d="M140.34 315.805H113.241L154.532 196.195H187.121L228.353 315.805H201.254L171.293 223.528H170.359L140.34 315.805ZM138.646 268.79H202.656V288.531H138.646V268.79Z" fill="white"/>
<path d="M268.038 196.195V315.805H242.749V196.195H268.038Z" fill="white"/>
<path d="M398.759 256C398.759 269.043 396.286 280.14 391.341 289.29C386.436 298.44 379.739 305.429 371.251 310.256C362.802 315.046 353.302 317.44 342.75 317.44C332.121 317.44 322.582 315.026 314.133 310.198C305.684 305.37 299.006 298.381 294.1 289.231C289.194 280.082 286.742 269.004 286.742 256C286.742 242.957 289.194 231.86 294.1 222.71C299.006 213.561 305.684 206.591 314.133 201.802C322.582 196.974 332.121 194.56 342.75 194.56C353.302 194.56 362.802 196.974 371.251 201.802C379.739 206.591 386.436 213.561 391.341 222.71C396.286 231.86 398.759 242.957 398.759 256ZM373.12 256C373.12 247.551 371.854 240.426 369.323 234.625C366.832 228.823 363.308 224.423 358.753 221.425C354.197 218.427 348.863 216.928 342.75 216.928C336.637 216.928 331.303 218.427 326.748 221.425C322.192 224.423 318.649 228.823 316.118 234.625C313.626 240.426 312.38 247.551 312.38 256C312.38 264.449 313.626 271.574 316.118 277.376C318.649 283.177 322.192 287.577 326.748 290.575C331.303 293.573 336.637 295.072 342.75 295.072C348.863 295.072 354.197 293.573 358.753 290.575C363.308 287.577 366.832 283.177 369.323 277.376C371.854 271.574 373.12 264.449 373.12 256Z" fill="white"/>
</svg>
