<svg width="512" height="512" viewBox="0 0 512 512" fill="none" xmlns="http://www.w3.org/2000/svg">
<path d="M30.7197 256C30.7197 159.925 30.7197 111.888 56.1125 78.7956C62.6497 70.2761 70.2756 62.6502 78.7951 56.113C111.888 30.7202 159.925 30.7202 256 30.7202C352.074 30.7202 400.112 30.7202 433.204 56.113C441.724 62.6502 449.35 70.2761 455.887 78.7956C481.28 111.888 481.28 159.925 481.28 256C481.28 352.075 481.28 400.112 455.887 433.205C449.35 441.724 441.724 449.35 433.204 455.887C400.112 481.28 352.074 481.28 256 481.28C159.925 481.28 111.888 481.28 78.7951 455.887C70.2756 449.35 62.6497 441.724 56.1125 433.205C30.7197 400.112 30.7197 352.075 30.7197 256Z" fill="#030F21"/>
<path fill-rule="evenodd" clip-rule="evenodd" d="M326.719 206.08C338.207 206.08 347.52 196.768 347.52 185.28C347.519 173.792 338.207 164.48 326.72 164.48C315.232 164.48 305.92 173.792 305.92 185.28C305.92 196.768 315.232 206.08 326.719 206.08ZM326.72 231.04C305.773 231.04 288.114 216.966 282.682 197.759L199.038 197.761C191.439 197.761 185.28 203.92 185.28 211.519C185.28 217.595 189.265 222.951 195.084 224.697L324.088 263.398C340.464 268.311 351.679 283.384 351.679 300.482C351.679 321.865 334.345 339.199 312.963 339.199L229.317 339.199C223.885 358.406 206.226 372.48 185.28 372.48C160.007 372.48 139.52 351.993 139.52 326.72C139.52 301.447 160.007 280.96 185.28 280.96C206.225 280.96 223.884 295.033 229.317 314.239L312.963 314.239C320.56 314.239 326.719 308.08 326.719 300.482C326.719 294.407 322.735 289.051 316.916 287.305L187.912 248.604C171.535 243.691 160.32 228.617 160.32 211.519C160.32 190.136 177.654 172.801 199.037 172.801L282.682 172.799C288.115 153.593 305.774 139.52 326.72 139.52C351.992 139.52 372.479 160.007 372.479 185.28C372.479 210.553 351.992 231.04 326.72 231.04ZM206.08 326.72C206.08 338.207 196.767 347.52 185.28 347.52C173.792 347.52 164.48 338.207 164.48 326.72C164.48 315.232 173.792 305.92 185.28 305.92C196.767 305.92 206.08 315.232 206.08 326.72Z" fill="white"/>
</svg>
