<svg width="512" height="512" viewBox="0 0 512 512" fill="none" xmlns="http://www.w3.org/2000/svg">
<path d="M30.72 256C30.72 159.925 30.72 111.888 56.1127 78.7954C62.65 70.2758 70.2758 62.65 78.7954 56.1127C111.888 30.72 159.925 30.72 256 30.72C352.075 30.72 400.112 30.72 433.205 56.1127C441.724 62.65 449.35 70.2758 455.887 78.7954C481.28 111.888 481.28 159.925 481.28 256C481.28 352.075 481.28 400.112 455.887 433.205C449.35 441.724 441.724 449.35 433.205 455.887C400.112 481.28 352.075 481.28 256 481.28C159.925 481.28 111.888 481.28 78.7954 455.887C70.2758 449.35 62.65 441.724 56.1127 433.205C30.72 400.112 30.72 352.075 30.72 256Z" fill="#030F21"/>
<g clip-path="url(#clip0_3219_880)">
<path fill-rule="evenodd" clip-rule="evenodd" d="M268.48 135.36C268.48 128.467 262.892 122.88 256 122.88C249.107 122.88 243.52 128.467 243.52 135.36V156.16H206.08C178.51 156.16 156.16 178.51 156.16 206.08C141.254 211.049 131.2 224.998 131.2 240.71V279.61C131.2 295.322 141.254 309.271 156.16 314.24C156.16 341.81 178.51 364.16 206.08 364.16H305.92C333.49 364.16 355.84 341.81 355.84 314.24C370.746 309.271 380.8 295.322 380.8 279.61V240.71C380.8 224.998 370.746 211.049 355.84 206.08C355.84 178.51 333.49 156.16 305.92 156.16H268.48V135.36ZM181.12 296.25V314.24C181.12 328.025 192.295 339.2 206.08 339.2H305.92C319.705 339.2 330.88 328.025 330.88 314.24V296.25L347.947 290.561C352.661 288.99 355.84 284.578 355.84 279.61V240.71C355.84 235.741 352.661 231.33 347.947 229.759L330.88 224.07V206.08C330.88 192.295 319.705 181.12 305.92 181.12H206.08C192.295 181.12 181.12 192.295 181.12 206.08V224.07L164.053 229.759C159.339 231.33 156.16 235.741 156.16 240.71V279.61C156.16 284.578 159.339 288.99 164.053 290.561L181.12 296.25ZM285.12 256C278.227 256 272.64 250.412 272.64 243.52V226.88C272.64 219.987 278.227 214.4 285.12 214.4C292.012 214.4 297.6 219.987 297.6 226.88V243.52C297.6 250.412 292.012 256 285.12 256ZM297.6 293.44C297.6 300.332 292.012 305.92 285.12 305.92H226.88C219.987 305.92 214.4 300.332 214.4 293.44C214.4 286.547 219.987 280.96 226.88 280.96H285.12C292.012 280.96 297.6 286.547 297.6 293.44ZM214.4 243.52C214.4 250.412 219.987 256 226.88 256C233.772 256 239.36 250.412 239.36 243.52V226.88C239.36 219.987 233.772 214.4 226.88 214.4C219.987 214.4 214.4 219.987 214.4 226.88V243.52Z" fill="white"/>
</g>
<defs>
<clipPath id="clip0_3219_880">
<rect width="266.24" height="266.24" fill="white" transform="translate(122.88 122.88)"/>
</clipPath>
</defs>
</svg>
