<svg width="512" height="512" viewBox="0 0 512 512" fill="none" xmlns="http://www.w3.org/2000/svg">
<path d="M30.72 256C30.72 159.925 30.72 111.888 56.1127 78.7956C62.65 70.2761 70.2758 62.6502 78.7954 56.113C111.888 30.7202 159.925 30.7202 256 30.7202C352.075 30.7202 400.112 30.7202 433.205 56.113C441.724 62.6502 449.35 70.2761 455.887 78.7956C481.28 111.888 481.28 159.925 481.28 256C481.28 352.075 481.28 400.112 455.887 433.205C449.35 441.724 441.724 449.35 433.205 455.887C400.112 481.28 352.075 481.28 256 481.28C159.925 481.28 111.888 481.28 78.7954 455.887C70.2758 449.35 62.65 441.724 56.1127 433.205C30.72 400.112 30.72 352.075 30.72 256Z" fill="#030F21"/>
<g clip-path="url(#clip0_3219_220)">
<path fill-rule="evenodd" clip-rule="evenodd" d="M239.244 216.534L226.146 213.914L207.549 210.195C201.361 208.958 194.964 210.895 190.502 215.357L170.094 235.765C167.872 237.986 166.252 240.697 165.339 243.644L182.317 246.731C224.544 254.409 257.591 287.456 265.269 329.683L268.356 346.661C271.303 345.748 274.013 344.128 276.235 341.906L296.643 321.498C301.105 317.036 303.042 310.639 301.805 304.45L298.085 285.854L295.466 272.756L304.911 263.31L325.589 242.632C339.631 228.59 347.521 209.544 347.521 189.684L347.521 164.479L322.316 164.479C302.456 164.479 283.41 172.368 269.367 186.411L248.69 207.089L239.244 216.534ZM322.561 280.959L343.238 260.282C361.962 241.558 372.481 216.163 372.481 189.684L372.481 164.479C372.481 150.694 361.306 139.519 347.521 139.519L322.316 139.519C295.836 139.519 270.442 150.038 251.718 168.762L231.041 189.439L212.445 185.72C198.073 182.846 183.216 187.344 172.852 197.708L152.444 218.115C144.169 226.39 139.521 237.614 139.521 249.316C139.521 258.004 145.734 265.449 154.282 267.003L177.852 271.289C209.851 277.107 234.893 302.149 240.711 334.148L244.997 357.718C246.551 366.266 253.996 372.479 262.684 372.479C274.386 372.479 285.609 367.83 293.884 359.555L314.292 339.148C324.656 328.784 329.154 313.927 326.28 299.555L322.561 280.959ZM188.431 323.743C183.267 318.579 175.786 319.074 171.712 323.148C167.843 327.017 164.68 334.084 162.955 343.897C162.592 345.962 162.318 348.003 162.114 349.975C164.148 349.762 166.255 349.477 168.385 349.099C178.309 347.34 185.313 344.177 189.026 340.463C193.1 336.389 193.595 328.908 188.431 323.743ZM206.081 306.094C191.552 291.565 168.263 291.299 154.062 305.499C135.814 323.747 136.219 357.397 136.814 367.68C136.929 369.671 137.816 371.513 139.226 372.923C140.652 374.349 142.517 375.239 144.531 375.343C154.893 375.878 188.681 376.107 206.676 358.112C220.876 343.912 220.609 320.623 206.081 306.094ZM318.905 210.744C323.779 205.87 323.779 197.968 318.905 193.095C314.032 188.221 306.13 188.221 301.256 193.095L276.296 218.055C271.422 222.928 271.422 230.83 276.296 235.704C281.17 240.578 289.072 240.578 293.945 235.704L318.905 210.744Z" fill="white"/>
</g>
<defs>
<clipPath id="clip0_3219_220">
<rect width="266.24" height="266.24" fill="white" transform="translate(122.88 122.88)"/>
</clipPath>
</defs>
</svg>
