<svg width="512" height="512" viewBox="0 0 512 512" fill="none" xmlns="http://www.w3.org/2000/svg">
<path d="M30.7188 256C30.7188 159.925 30.7188 111.888 56.1115 78.7956C62.6488 70.2761 70.2746 62.6502 78.7941 56.113C111.887 30.7202 159.924 30.7202 255.999 30.7202C352.074 30.7202 400.111 30.7202 433.203 56.113C441.723 62.6502 449.349 70.2761 455.886 78.7956C481.279 111.888 481.279 159.925 481.279 256C481.279 352.075 481.279 400.112 455.886 433.205C449.349 441.724 441.723 449.35 433.203 455.887C400.111 481.28 352.074 481.28 255.999 481.28C159.924 481.28 111.887 481.28 78.7941 455.887C70.2746 449.35 62.6488 441.724 56.1115 433.205C30.7188 400.112 30.7188 352.075 30.7188 256Z" fill="#18C474"/>
<path fill-rule="evenodd" clip-rule="evenodd" d="M172.799 314.24C172.799 328.025 183.974 339.2 197.759 339.2L197.759 297.6C197.759 279.22 212.659 264.32 231.039 264.32H280.959C299.339 264.32 314.239 279.22 314.239 297.6V339.2C328.024 339.2 339.199 328.025 339.199 314.24V223.311C339.199 218.898 337.446 214.665 334.325 211.545L300.454 177.674C297.333 174.553 293.101 172.8 288.688 172.8H222.719V189.44C222.719 194.035 226.444 197.76 231.039 197.76H280.959C287.851 197.76 293.439 203.347 293.439 210.24C293.439 217.132 287.851 222.72 280.959 222.72H231.039C212.659 222.72 197.759 207.82 197.759 189.44V172.8C183.974 172.8 172.799 183.975 172.799 197.76V314.24ZM147.839 314.24C147.839 341.81 170.189 364.16 197.759 364.16H222.719H289.279H314.239C341.809 364.16 364.159 341.81 364.159 314.24V223.311C364.159 212.278 359.776 201.697 351.974 193.895L318.103 160.024C310.302 152.223 299.721 147.84 288.688 147.84H197.759C170.189 147.84 147.839 170.19 147.839 197.76V314.24ZM289.279 297.6V339.2H222.719V297.6C222.719 293.005 226.444 289.28 231.039 289.28H280.959C285.554 289.28 289.279 293.005 289.279 297.6Z" fill="white"/>
</svg>
