<svg width="512" height="512" viewBox="0 0 512 512" fill="none" xmlns="http://www.w3.org/2000/svg">
<path d="M30.7202 256C30.7202 159.925 30.7202 111.888 56.113 78.7956C62.6502 70.2761 70.2761 62.6502 78.7956 56.113C111.888 30.7202 159.925 30.7202 256 30.7202C352.075 30.7202 400.112 30.7202 433.205 56.113C441.724 62.6502 449.35 70.2761 455.887 78.7956C481.28 111.888 481.28 159.925 481.28 256C481.28 352.075 481.28 400.112 455.887 433.205C449.35 441.724 441.724 449.35 433.205 455.887C400.112 481.28 352.075 481.28 256 481.28C159.925 481.28 111.888 481.28 78.7956 455.887C70.2761 449.35 62.6502 441.724 56.113 433.205C30.7202 400.112 30.7202 352.075 30.7202 256Z" fill="#030F21"/>
<path fill-rule="evenodd" clip-rule="evenodd" d="M189.44 181.12H322.56C336.345 181.12 347.52 192.295 347.52 206.08V243.52H164.48V206.08C164.48 192.295 175.655 181.12 189.44 181.12ZM164.48 268.48V305.92C164.48 319.705 175.655 330.88 189.44 330.88H322.56C336.345 330.88 347.52 319.705 347.52 305.92V268.48H164.48ZM139.52 206.08C139.52 178.51 161.87 156.16 189.44 156.16H322.56C350.13 156.16 372.48 178.51 372.48 206.08V305.92C372.48 333.49 350.13 355.84 322.56 355.84H189.44C161.87 355.84 139.52 333.49 139.52 305.92V206.08ZM185.28 214.4C185.28 207.507 190.868 201.92 197.76 201.92H239.36C246.253 201.92 251.84 207.507 251.84 214.4C251.84 221.292 246.253 226.88 239.36 226.88H197.76C190.868 226.88 185.28 221.292 185.28 214.4ZM197.76 285.12C190.868 285.12 185.28 290.707 185.28 297.6C185.28 304.492 190.868 310.08 197.76 310.08H239.36C246.253 310.08 251.84 304.492 251.84 297.6C251.84 290.707 246.253 285.12 239.36 285.12H197.76Z" fill="white"/>
</svg>
