<svg width="512" height="512" viewBox="0 0 512 512" fill="none" xmlns="http://www.w3.org/2000/svg">
<path d="M30.7183 256C30.7183 159.925 30.7183 111.888 56.111 78.7956C62.6483 70.2761 70.2741 62.6502 78.7937 56.113C111.886 30.7202 159.923 30.7202 255.998 30.7202C352.073 30.7202 400.11 30.7202 433.203 56.113C441.722 62.6502 449.348 70.2761 455.886 78.7956C481.278 111.888 481.278 159.925 481.278 256C481.278 352.075 481.278 400.112 455.886 433.205C449.348 441.724 441.722 449.35 433.203 455.887C400.11 481.28 352.073 481.28 255.998 481.28C159.923 481.28 111.886 481.28 78.7937 455.887C70.2741 449.35 62.6483 441.724 56.111 433.205C30.7183 400.112 30.7183 352.075 30.7183 256Z" fill="#030F21"/>
<path fill-rule="evenodd" clip-rule="evenodd" d="M242.665 156.162H269.331C271.157 156.162 272.637 157.642 272.637 159.469C272.637 189.562 305.214 208.372 331.277 193.324C332.858 192.411 334.88 192.953 335.793 194.535L349.127 217.629C350.04 219.211 349.498 221.233 347.916 222.146C321.854 237.193 321.854 274.811 347.916 289.858C349.498 290.771 350.04 292.794 349.127 294.375L335.793 317.469C334.88 319.051 332.858 319.593 331.277 318.68C305.215 303.633 272.637 322.442 272.637 352.535C272.637 354.361 271.157 355.842 269.331 355.842H242.665C240.838 355.842 239.357 354.361 239.357 352.535C239.357 322.44 206.779 303.632 180.717 318.679C179.135 319.592 177.112 319.05 176.198 317.468L162.866 294.375C161.953 292.794 162.495 290.771 164.076 289.858C190.138 274.811 190.138 237.193 164.076 222.146C162.495 221.233 161.953 219.211 162.866 217.629L176.199 194.536C177.112 192.954 179.135 192.412 180.717 193.325C206.779 208.372 239.357 189.564 239.357 159.469C239.357 157.642 240.838 156.162 242.665 156.162ZM214.398 159.469C214.398 143.857 227.053 131.202 242.665 131.202H269.331C284.942 131.202 297.597 143.857 297.597 159.469C297.597 170.348 309.375 177.148 318.797 171.708C332.317 163.903 349.604 168.535 357.409 182.055L370.743 205.149C378.548 218.669 373.916 235.956 360.396 243.762C350.974 249.202 350.974 262.802 360.396 268.242C373.916 276.048 378.548 293.335 370.743 306.855L357.409 329.95C349.604 343.469 332.317 348.101 318.797 340.296C309.375 334.856 297.597 341.656 297.597 352.535C297.597 368.146 284.942 380.802 269.331 380.802H242.665C227.053 380.802 214.398 368.146 214.398 352.535C214.398 341.655 202.619 334.855 193.197 340.295C179.677 348.101 162.388 343.468 154.583 329.948L141.25 306.855C133.444 293.335 138.076 276.048 151.596 268.242C161.018 262.802 161.018 249.202 151.596 243.762C138.076 235.956 133.444 218.669 141.25 205.149L154.583 182.056C162.388 168.536 179.677 163.903 193.197 171.709C202.619 177.149 214.398 170.349 214.398 159.469ZM280.957 256.002C280.957 269.787 269.782 280.962 255.997 280.962C242.212 280.962 231.037 269.787 231.037 256.002C231.037 242.217 242.212 231.042 255.997 231.042C269.782 231.042 280.957 242.217 280.957 256.002ZM305.917 256.002C305.917 283.572 283.567 305.922 255.997 305.922C228.427 305.922 206.077 283.572 206.077 256.002C206.077 228.432 228.427 206.082 255.997 206.082C283.567 206.082 305.917 228.432 305.917 256.002Z" fill="white"/>
</svg>
