<svg width="512" height="512" viewBox="0 0 512 512" fill="none" xmlns="http://www.w3.org/2000/svg">
<path d="M30.7212 256C30.7212 159.925 30.7212 111.888 56.1139 78.7956C62.6512 70.2761 70.277 62.6502 78.7966 56.113C111.889 30.7202 159.926 30.7202 256.001 30.7202C352.076 30.7202 400.113 30.7202 433.206 56.113C441.725 62.6502 449.351 70.2761 455.888 78.7956C481.281 111.888 481.281 159.925 481.281 256C481.281 352.075 481.281 400.112 455.888 433.205C449.351 441.724 441.725 449.35 433.206 455.887C400.113 481.28 352.076 481.28 256.001 481.28C159.926 481.28 111.889 481.28 78.7966 455.887C70.277 449.35 62.6512 441.724 56.1139 433.205C30.7212 400.112 30.7212 352.075 30.7212 256Z" fill="#030F21"/>
<path fill-rule="evenodd" clip-rule="evenodd" d="M242.668 156.16C240.842 156.16 239.361 157.64 239.361 159.467C239.361 189.562 206.783 208.37 180.72 193.323C179.138 192.41 177.115 192.952 176.202 194.534L162.869 217.627C161.956 219.209 162.498 221.231 164.08 222.144C190.142 237.191 190.142 274.809 164.08 289.856C162.498 290.769 161.956 292.792 162.869 294.373L176.202 317.466C177.115 319.048 179.138 319.59 180.72 318.677C206.782 303.63 239.361 322.438 239.361 352.533C239.361 354.359 240.842 355.84 242.668 355.84H269.335C271.161 355.84 272.641 354.359 272.641 352.533C272.641 322.44 305.218 303.631 331.28 318.678C332.862 319.591 334.884 319.049 335.797 317.468L349.13 294.373C350.043 292.792 349.501 290.769 347.92 289.856C326.238 277.338 322.687 249.363 336.853 231.625C341.154 226.24 349.007 225.361 354.393 229.662C359.779 233.963 360.658 241.816 356.356 247.202C351.189 253.672 352.675 263.78 360.4 268.24C373.92 276.046 378.552 293.333 370.746 306.853L357.413 329.948C349.607 343.467 332.32 348.099 318.8 340.294C309.378 334.854 297.601 341.654 297.601 352.533C297.601 368.144 284.946 380.8 269.335 380.8H242.668C227.056 380.8 214.401 368.144 214.401 352.533C214.401 341.653 202.623 334.853 193.2 340.293C179.68 348.099 162.392 343.466 154.586 329.946L141.253 306.853C133.448 293.333 138.08 276.046 151.6 268.24C161.022 262.8 161.022 249.2 151.6 243.76C138.08 235.954 133.448 218.667 141.253 205.147L154.586 182.054C162.392 168.534 179.68 163.901 193.2 171.707C202.623 177.147 214.401 170.347 214.401 159.467C214.401 143.855 227.057 131.2 242.668 131.2H277.654C284.547 131.2 290.134 136.787 290.134 143.68C290.134 150.572 284.547 156.16 277.654 156.16H242.668ZM255.999 280.96C269.784 280.96 280.959 269.785 280.959 256C280.959 242.215 269.784 231.04 255.999 231.04C242.214 231.04 231.039 242.215 231.039 256C231.039 269.785 242.214 280.96 255.999 280.96ZM255.999 305.92C283.569 305.92 305.919 283.57 305.919 256C305.919 228.43 283.569 206.08 255.999 206.08C228.429 206.08 206.079 228.43 206.079 256C206.079 283.57 228.429 305.92 255.999 305.92Z" fill="white"/>
<path fill-rule="evenodd" clip-rule="evenodd" d="M330.882 214.4C349.262 214.4 364.162 199.5 364.162 181.12C364.162 162.74 349.262 147.84 330.882 147.84C312.502 147.84 297.602 162.74 297.602 181.12C297.602 199.5 312.502 214.4 330.882 214.4Z" fill="#FF3333"/>
</svg>
