<svg width="512" height="512" viewBox="0 0 512 512" fill="none" xmlns="http://www.w3.org/2000/svg">
<path d="M30.7188 256C30.7188 159.925 30.7188 111.888 56.1115 78.7956C62.6488 70.2761 70.2746 62.6502 78.7941 56.113C111.887 30.7202 159.924 30.7202 255.999 30.7202C352.074 30.7202 400.111 30.7202 433.203 56.113C441.723 62.6502 449.349 70.2761 455.886 78.7956C481.279 111.888 481.279 159.925 481.279 256C481.279 352.075 481.279 400.112 455.886 433.205C449.349 441.724 441.723 449.35 433.203 455.887C400.111 481.28 352.074 481.28 255.999 481.28C159.924 481.28 111.887 481.28 78.7941 455.887C70.2746 449.35 62.6488 441.724 56.1115 433.205C30.7188 400.112 30.7188 352.075 30.7188 256Z" fill="#030F21"/>
<path fill-rule="evenodd" clip-rule="evenodd" d="M247.679 206.08C247.679 219.865 236.504 231.04 222.719 231.04C208.934 231.04 197.759 219.865 197.759 206.08C197.759 192.295 208.934 181.12 222.719 181.12C236.504 181.12 247.679 192.295 247.679 206.08ZM271.066 218.56C265.524 240.09 245.979 256 222.719 256C199.458 256 179.913 240.09 174.371 218.56H151.954C145.062 218.56 139.474 212.972 139.474 206.08C139.474 199.187 145.062 193.6 151.954 193.6H174.371C179.913 172.069 199.458 156.16 222.719 156.16C245.979 156.16 265.524 172.069 271.066 193.6H360.001C366.893 193.6 372.481 199.187 372.481 206.08C372.481 212.972 366.893 218.56 360.001 218.56H271.066ZM151.954 293.44L240.891 293.44C246.433 271.909 265.977 256 289.238 256C312.499 256 332.044 271.909 337.585 293.44H360.003C366.895 293.44 372.483 299.027 372.483 305.92C372.483 312.812 366.895 318.4 360.003 318.4H337.585C332.044 339.93 312.499 355.84 289.238 355.84C265.977 355.84 246.433 339.93 240.891 318.4L151.954 318.4C145.062 318.4 139.474 312.812 139.474 305.92C139.474 299.027 145.062 293.44 151.954 293.44ZM289.238 280.96C275.453 280.96 264.278 292.135 264.278 305.92C264.278 319.705 275.453 330.88 289.238 330.88C303.023 330.88 314.198 319.705 314.198 305.92C314.198 292.135 303.023 280.96 289.238 280.96Z" fill="white"/>
</svg>
