<svg width="512" height="512" viewBox="0 0 512 512" fill="none" xmlns="http://www.w3.org/2000/svg">
<path d="M30.7202 256C30.7202 159.925 30.7202 111.888 56.113 78.7954C62.6502 70.2758 70.2761 62.65 78.7956 56.1127C111.888 30.72 159.925 30.72 256 30.72C352.075 30.72 400.112 30.72 433.205 56.1127C441.724 62.65 449.35 70.2758 455.887 78.7954C481.28 111.888 481.28 159.925 481.28 256C481.28 352.075 481.28 400.112 455.887 433.205C449.35 441.724 441.724 449.35 433.205 455.887C400.112 481.28 352.075 481.28 256 481.28C159.925 481.28 111.888 481.28 78.7956 455.887C70.2761 449.35 62.6502 441.724 56.113 433.205C30.7202 400.112 30.7202 352.075 30.7202 256Z" fill="#FF3333"/>
<path fill-rule="evenodd" clip-rule="evenodd" d="M268.48 152C268.48 145.108 262.893 139.52 256 139.52C249.108 139.52 243.52 145.108 243.52 152V243.52C243.52 250.413 249.108 256 256 256C262.893 256 268.48 250.413 268.48 243.52V152ZM204.758 180.158C210.465 176.293 211.959 168.534 208.094 162.827C204.23 157.12 196.47 155.626 190.763 159.491C159.869 180.411 139.521 215.827 139.521 256C139.521 320.33 191.67 372.48 256 372.48C320.331 372.48 372.48 320.33 372.48 256C372.48 215.827 352.132 180.411 321.238 159.491C315.531 155.626 307.771 157.12 303.907 162.827C300.042 168.534 301.536 176.293 307.243 180.158C331.573 196.633 347.52 224.456 347.52 256C347.52 306.545 306.546 347.52 256 347.52C205.455 347.52 164.481 306.545 164.481 256C164.481 224.456 180.428 196.633 204.758 180.158Z" fill="white"/>
</svg>
