<svg width="512" height="512" viewBox="0 0 512 512" fill="none" xmlns="http://www.w3.org/2000/svg">
<path d="M30.7212 256C30.7212 159.925 30.7212 111.888 56.1139 78.7956C62.6512 70.2761 70.277 62.6502 78.7966 56.113C111.889 30.7202 159.926 30.7202 256.001 30.7202C352.076 30.7202 400.113 30.7202 433.206 56.113C441.725 62.6502 449.351 70.2761 455.888 78.7956C481.281 111.888 481.281 159.925 481.281 256C481.281 352.075 481.281 400.112 455.888 433.205C449.351 441.724 441.725 449.35 433.206 455.887C400.113 481.28 352.076 481.28 256.001 481.28C159.926 481.28 111.889 481.28 78.7966 455.887C70.277 449.35 62.6512 441.724 56.1139 433.205C30.7212 400.112 30.7212 352.075 30.7212 256Z" fill="#030F21"/>
<path d="M252.346 352.66C238.691 352.66 226.455 349.645 215.638 343.616C204.998 337.409 196.752 328.986 190.9 318.346L208.456 301.588C213.421 309.213 219.805 315.331 227.608 319.942C235.41 324.375 243.745 326.592 252.612 326.592C259.882 326.592 266.355 325.085 272.03 322.07C277.704 318.878 282.138 314.533 285.33 309.036C288.699 303.539 290.384 297.155 290.384 289.884C290.384 282.791 288.788 276.584 285.596 271.264C282.581 265.767 278.325 261.511 272.828 258.496C267.508 255.481 261.478 253.974 254.74 253.974C248.001 253.974 241.617 255.481 235.588 258.496C229.736 261.511 225.036 265.767 221.49 271.264H195.422L216.968 161.14H309.27V188.006H238.248L228.672 239.344C231.864 236.152 235.942 233.581 240.908 231.63C246.05 229.679 251.902 228.704 258.464 228.704C270.345 228.704 280.896 231.275 290.118 236.418C299.516 241.561 306.876 248.654 312.196 257.698C317.693 266.742 320.442 277.205 320.442 289.086C320.442 301.677 317.427 312.76 311.398 322.336C305.368 331.735 297.211 339.183 286.926 344.68C276.818 350 265.291 352.66 252.346 352.66Z" fill="white"/>
</svg>
