<svg width="2663" height="512" viewBox="0 0 2663 512" fill="none" xmlns="http://www.w3.org/2000/svg">
<path d="M30.7212 256C30.7212 159.925 30.7212 111.888 56.1139 78.7951C62.6512 70.2756 70.277 62.6497 78.7966 56.1125C111.889 30.7197 159.926 30.7197 256.001 30.7197C352.076 30.7197 400.113 30.7197 433.206 56.1125C441.725 62.6497 449.351 70.2756 455.888 78.7951C481.281 111.888 481.281 159.925 481.281 256C481.281 352.074 481.281 400.112 455.888 433.204C449.351 441.724 441.725 449.35 433.206 455.887C400.113 481.28 352.076 481.28 256.001 481.28C159.926 481.28 111.889 481.28 78.7966 455.887C70.277 449.35 62.6512 441.724 56.1139 433.204C30.7212 400.112 30.7212 352.074 30.7212 256Z" fill="#030F21"/>
<path d="M30.7212 256C30.7212 159.925 30.7212 111.888 56.1139 78.7951C62.6512 70.2756 70.277 62.6497 78.7966 56.1125C111.889 30.7197 159.926 30.7197 256.001 30.7197C352.076 30.7197 400.113 30.7197 433.206 56.1125C441.725 62.6497 449.351 70.2756 455.888 78.7951C481.281 111.888 481.281 159.925 481.281 256C481.281 352.074 481.281 400.112 455.888 433.204C449.351 441.724 441.725 449.35 433.206 455.887C400.113 481.28 352.076 481.28 256.001 481.28C159.926 481.28 111.889 481.28 78.7966 455.887C70.277 449.35 62.6512 441.724 56.1139 433.204C30.7212 400.112 30.7212 352.074 30.7212 256Z" fill="#030F21"/>
<path fill-rule="evenodd" clip-rule="evenodd" d="M197.812 172.875H314.188C327.96 172.875 339.125 184.04 339.125 197.812V314.188C339.125 327.96 327.96 339.125 314.188 339.125H197.812C184.04 339.125 172.875 327.96 172.875 314.188V197.812C172.875 184.04 184.04 172.875 197.812 172.875ZM147.938 197.812C147.938 170.267 170.267 147.938 197.812 147.938H314.188C341.733 147.938 364.062 170.267 364.062 197.812V314.188C364.062 341.733 341.733 364.062 314.188 364.062H197.812C170.267 364.062 147.938 341.733 147.938 314.188V197.812ZM315.717 222.093C319.945 216.657 318.966 208.823 313.53 204.595C308.094 200.367 300.261 201.347 296.033 206.782L246.517 270.446L223.254 247.183C218.385 242.314 210.49 242.314 205.621 247.183C200.751 252.053 200.751 259.947 205.621 264.817L238.871 298.067C241.4 300.596 244.893 301.917 248.462 301.695C252.032 301.472 255.334 299.728 257.53 296.905L315.717 222.093Z" fill="white"/>
<path d="M747.721 256C747.721 159.925 747.721 111.888 773.114 78.7951C779.651 70.2756 787.277 62.6497 795.797 56.1125C828.889 30.7197 876.926 30.7197 973.001 30.7197C1069.08 30.7197 1117.11 30.7197 1150.21 56.1125C1158.73 62.6497 1166.35 70.2756 1172.89 78.7951C1198.28 111.888 1198.28 159.925 1198.28 256C1198.28 352.074 1198.28 400.112 1172.89 433.204C1166.35 441.724 1158.73 449.35 1150.21 455.887C1117.11 481.28 1069.08 481.28 973.001 481.28C876.926 481.28 828.889 481.28 795.797 455.887C787.277 449.35 779.651 441.724 773.114 433.204C747.721 400.112 747.721 352.074 747.721 256Z" fill="#030F21"/>
<path d="M1464.72 256C1464.72 159.925 1464.72 111.888 1490.11 78.7951C1496.65 70.2756 1504.28 62.6497 1512.8 56.1125C1545.89 30.7197 1593.93 30.7197 1690 30.7197C1786.08 30.7197 1834.11 30.7197 1867.21 56.1125C1875.73 62.6497 1883.35 70.2756 1889.89 78.7951C1915.28 111.888 1915.28 159.925 1915.28 256C1915.28 352.074 1915.28 400.112 1889.89 433.204C1883.35 441.724 1875.73 449.35 1867.21 455.887C1834.11 481.28 1786.08 481.28 1690 481.28C1593.93 481.28 1545.89 481.28 1512.8 455.887C1504.28 449.35 1496.65 441.724 1490.11 433.204C1464.72 400.112 1464.72 352.074 1464.72 256Z" fill="#030F21"/>
<path d="M2181.72 256C2181.72 159.925 2181.72 111.888 2207.11 78.7951C2213.65 70.2756 2221.28 62.6497 2229.8 56.1125C2262.89 30.7197 2310.93 30.7197 2407 30.7197C2503.08 30.7197 2551.11 30.7197 2584.21 56.1125C2592.73 62.6497 2600.35 70.2756 2606.89 78.7951C2632.28 111.888 2632.28 159.925 2632.28 256C2632.28 352.074 2632.28 400.112 2606.89 433.204C2600.35 441.724 2592.73 449.35 2584.21 455.887C2551.11 481.28 2503.08 481.28 2407 481.28C2310.93 481.28 2262.89 481.28 2229.8 455.887C2221.28 449.35 2213.65 441.724 2207.11 433.204C2181.72 400.112 2181.72 352.074 2181.72 256Z" fill="#030F21"/>
</svg>
