<svg width="512" height="512" viewBox="0 0 512 512" fill="none" xmlns="http://www.w3.org/2000/svg">
<path d="M30.7212 256C30.7212 159.925 30.7212 111.888 56.1139 78.7956C62.6512 70.2761 70.277 62.6502 78.7966 56.113C111.889 30.7202 159.926 30.7202 256.001 30.7202C352.076 30.7202 400.113 30.7202 433.206 56.113C441.725 62.6502 449.351 70.2761 455.888 78.7956C481.281 111.888 481.281 159.925 481.281 256C481.281 352.075 481.281 400.112 455.888 433.205C449.351 441.724 441.725 449.35 433.206 455.887C400.113 481.28 352.076 481.28 256.001 481.28C159.926 481.28 111.889 481.28 78.7966 455.887C70.277 449.35 62.6512 441.724 56.1139 433.205C30.7212 400.112 30.7212 352.075 30.7212 256Z" fill="#030F21"/>
<path fill-rule="evenodd" clip-rule="evenodd" d="M168.641 156.16C161.749 156.16 156.161 161.747 156.161 168.64C156.161 175.532 161.749 181.12 168.641 181.12L343.361 181.12C350.254 181.12 355.841 175.532 355.841 168.64C355.841 161.747 350.254 156.16 343.361 156.16L168.641 156.16ZM168.641 272.64C161.749 272.64 156.161 278.227 156.161 285.12C156.161 292.012 161.749 297.6 168.641 297.6L343.361 297.6C350.254 297.6 355.841 292.012 355.841 285.12C355.841 278.227 350.254 272.64 343.361 272.64L168.641 272.64ZM168.641 330.88C161.749 330.88 156.161 336.467 156.161 343.36C156.161 350.252 161.749 355.84 168.641 355.84L276.801 355.84C283.694 355.84 289.281 350.252 289.281 343.36C289.281 336.467 283.694 330.88 276.801 330.88L168.641 330.88ZM156.161 226.88C156.161 219.987 161.749 214.4 168.641 214.4L276.801 214.4C283.694 214.4 289.281 219.987 289.281 226.88C289.281 233.772 283.694 239.36 276.801 239.36L168.641 239.36C161.749 239.36 156.161 233.772 156.161 226.88Z" fill="white"/>
</svg>
