<svg width="512" height="512" viewBox="0 0 512 512" fill="none" xmlns="http://www.w3.org/2000/svg">
<path d="M30.7212 256C30.7212 159.925 30.7212 111.888 56.1139 78.7956C62.6512 70.2761 70.277 62.6502 78.7966 56.113C111.889 30.7202 159.926 30.7202 256.001 30.7202C352.076 30.7202 400.113 30.7202 433.206 56.113C441.725 62.6502 449.351 70.2761 455.888 78.7956C481.281 111.888 481.281 159.925 481.281 256C481.281 352.075 481.281 400.112 455.888 433.205C449.351 441.724 441.725 449.35 433.206 455.887C400.113 481.28 352.076 481.28 256.001 481.28C159.926 481.28 111.889 481.28 78.7966 455.887C70.277 449.35 62.6512 441.724 56.1139 433.205C30.7212 400.112 30.7212 352.075 30.7212 256Z" fill="#030F21"/>
<path d="M188.086 350C188.086 339.183 188.884 329.695 190.48 321.538C192.076 313.381 194.559 306.021 197.928 299.46C201.297 292.899 205.553 287.135 210.696 282.17C215.839 277.205 221.779 272.683 228.518 268.604C235.079 264.703 241.818 261.067 248.734 257.698C255.827 254.329 262.389 250.782 268.418 247.058C274.447 243.334 279.235 238.989 282.782 234.024C286.506 228.881 288.368 222.675 288.368 215.404C288.368 209.552 287.127 204.409 284.644 199.976C282.339 195.543 278.792 192.085 274.004 189.602C269.393 186.942 263.453 185.612 256.182 185.612C248.734 185.612 241.818 186.942 235.434 189.602C229.227 192.085 223.73 195.188 218.942 198.912C214.331 202.636 210.607 206.271 207.77 209.818L189.15 190.4C190.923 188.272 193.761 185.435 197.662 181.888C201.741 178.341 206.706 174.795 212.558 171.248C218.587 167.701 225.503 164.775 233.306 162.47C241.109 159.987 249.887 158.746 259.64 158.746C273.117 158.746 284.378 161.229 293.422 166.194C302.643 170.982 309.559 177.632 314.17 186.144C318.958 194.479 321.352 203.877 321.352 214.34C321.352 222.852 319.845 230.3 316.83 236.684C313.815 242.891 309.825 248.299 304.86 252.91C300.072 257.343 294.663 261.333 288.634 264.88C282.782 268.427 276.93 271.796 271.078 274.988C260.97 280.131 252.813 284.741 246.606 288.82C240.577 292.899 235.789 296.8 232.242 300.524C228.873 304.248 226.479 307.972 225.06 311.696C223.641 315.42 222.666 319.41 222.134 323.666H321.618V350H188.086Z" fill="white"/>
</svg>
