<svg width="512" height="512" viewBox="0 0 512 512" fill="none" xmlns="http://www.w3.org/2000/svg">
<path d="M30.7207 256C30.7207 159.925 30.7207 111.888 56.1134 78.7956C62.6507 70.2761 70.2766 62.6502 78.7961 56.113C111.889 30.7202 159.926 30.7202 256.001 30.7202C352.075 30.7202 400.113 30.7202 433.205 56.113C441.725 62.6502 449.351 70.2761 455.888 78.7956C481.281 111.888 481.281 159.925 481.281 256C481.281 352.075 481.281 400.112 455.888 433.205C449.351 441.724 441.725 449.35 433.205 455.887C400.113 481.28 352.075 481.28 256.001 481.28C159.926 481.28 111.889 481.28 78.7961 455.887C70.2766 449.35 62.6507 441.724 56.1134 433.205C30.7207 400.112 30.7207 352.075 30.7207 256Z" fill="#030F21"/>
<path d="M323.486 295.47C323.486 306.819 320.383 316.75 314.176 325.262C308.147 333.774 299.901 340.424 289.438 345.212C279.153 349.823 267.892 352.128 255.656 352.128C243.065 352.128 231.716 349.645 221.608 344.68C211.5 339.537 203.431 332.621 197.402 323.932C191.373 315.243 188.358 305.312 188.358 294.14C188.358 286.692 190.043 280.042 193.412 274.19C196.781 268.161 200.949 263.018 205.914 258.762C210.879 254.506 215.933 251.225 221.076 248.92C216.288 246.615 211.855 243.689 207.776 240.142C203.875 236.418 200.683 232.162 198.2 227.374C195.895 222.586 194.742 217.443 194.742 211.946C194.742 203.789 196.515 196.607 200.062 190.4C203.786 184.016 208.663 178.696 214.692 174.44C220.721 170.007 227.283 166.726 234.376 164.598C241.647 162.293 248.829 161.14 255.922 161.14C263.193 161.14 270.375 162.293 277.468 164.598C284.739 166.726 291.389 169.918 297.418 174.174C303.625 178.43 308.501 183.75 312.048 190.134C315.772 196.341 317.634 203.523 317.634 211.68C317.634 217.177 316.393 222.409 313.91 227.374C311.605 232.162 308.324 236.418 304.068 240.142C299.989 243.866 295.556 246.792 290.768 248.92C296.443 251.403 301.763 254.861 306.728 259.294C311.871 263.727 315.949 268.959 318.964 274.988C321.979 281.017 323.486 287.845 323.486 295.47ZM293.96 293.608C293.96 288.465 292.807 283.855 290.502 279.776C288.374 275.697 285.448 272.328 281.724 269.668C278 266.831 273.921 264.703 269.488 263.284C265.055 261.865 260.533 261.156 255.922 261.156C249.361 261.156 243.243 262.486 237.568 265.146C231.893 267.806 227.283 271.619 223.736 276.584C220.189 281.372 218.416 287.047 218.416 293.608C218.416 298.573 219.48 303.095 221.608 307.174C223.736 311.075 226.573 314.445 230.12 317.282C233.844 320.119 237.923 322.247 242.356 323.666C246.967 325.085 251.577 325.794 256.188 325.794C262.572 325.794 268.601 324.464 274.276 321.804C280.128 318.967 284.827 315.154 288.374 310.366C292.098 305.401 293.96 299.815 293.96 293.608ZM224.268 213.01C224.268 218.507 225.864 223.207 229.056 227.108C232.248 231.009 236.327 233.935 241.292 235.886C246.257 237.837 251.134 238.812 255.922 238.812C260.887 238.812 265.764 237.837 270.552 235.886C275.517 233.758 279.596 230.743 282.788 226.842C286.157 222.941 287.842 218.153 287.842 212.478C287.842 207.335 286.335 202.902 283.32 199.178C280.305 195.277 276.315 192.351 271.35 190.4C266.562 188.272 261.419 187.208 255.922 187.208C250.425 187.208 245.193 188.272 240.228 190.4C235.44 192.528 231.539 195.543 228.524 199.444C225.687 203.168 224.268 207.69 224.268 213.01Z" fill="white"/>
</svg>
