<svg width="512" height="512" viewBox="0 0 512 512" fill="none" xmlns="http://www.w3.org/2000/svg">
<path d="M30.7212 256C30.7212 159.925 30.7212 111.888 56.1139 78.7956C62.6512 70.2761 70.277 62.6502 78.7966 56.113C111.889 30.7202 159.926 30.7202 256.001 30.7202C352.076 30.7202 400.113 30.7202 433.206 56.113C441.725 62.6502 449.351 70.2761 455.888 78.7956C481.281 111.888 481.281 159.925 481.281 256C481.281 352.075 481.281 400.112 455.888 433.205C449.351 441.724 441.725 449.35 433.206 455.887C400.113 481.28 352.076 481.28 256.001 481.28C159.926 481.28 111.889 481.28 78.7966 455.887C70.277 449.35 62.6512 441.724 56.1139 433.205C30.7212 400.112 30.7212 352.075 30.7212 256Z" fill="#030F21"/>
<path d="M270.224 350V304.248H185.902V278.18L279.268 161.14H299.484V277.914H322.892V304.248H299.484V350H270.224ZM215.694 277.914H273.416V205.562L215.694 277.914Z" fill="white"/>
</svg>
