<svg width="512" height="512" viewBox="0 0 512 512" fill="none" xmlns="http://www.w3.org/2000/svg">
<path d="M30.7212 256C30.7212 159.925 30.7212 111.888 56.1139 78.7951C62.6512 70.2756 70.277 62.6497 78.7966 56.1125C111.889 30.7197 159.926 30.7197 256.001 30.7197C352.076 30.7197 400.113 30.7197 433.206 56.1125C441.725 62.6497 449.351 70.2756 455.888 78.7951C481.281 111.888 481.281 159.925 481.281 256C481.281 352.074 481.281 400.112 455.888 433.204C449.351 441.724 441.725 449.35 433.206 455.887C400.113 481.28 352.076 481.28 256.001 481.28C159.926 481.28 111.889 481.28 78.7966 455.887C70.277 449.35 62.6512 441.724 56.1139 433.204C30.7212 400.112 30.7212 352.074 30.7212 256Z" fill="#030F21"/>
<path fill-rule="evenodd" clip-rule="evenodd" d="M314.187 172.875H197.812C184.04 172.875 172.875 184.04 172.875 197.812V314.187C172.875 327.96 184.04 339.125 197.812 339.125H314.187C327.96 339.125 339.125 327.96 339.125 314.187V197.812C339.125 184.04 327.96 172.875 314.187 172.875ZM197.812 147.938C170.267 147.938 147.938 170.267 147.938 197.812V314.187C147.938 341.733 170.267 364.062 197.812 364.062H314.187C341.733 364.062 364.062 341.733 364.062 314.187V197.812C364.062 170.267 341.733 147.938 314.187 147.938H197.812Z" fill="white"/>
</svg>
