<svg width="512" height="512" viewBox="0 0 512 512" fill="none" xmlns="http://www.w3.org/2000/svg">
<path d="M30.7207 256C30.7207 159.925 30.7207 111.888 56.1134 78.7956C62.6507 70.2761 70.2766 62.6502 78.7961 56.113C111.889 30.7202 159.926 30.7202 256.001 30.7202C352.075 30.7202 400.113 30.7202 433.205 56.113C441.725 62.6502 449.351 70.2761 455.888 78.7956C481.281 111.888 481.281 159.925 481.281 256C481.281 352.075 481.281 400.112 455.888 433.205C449.351 441.724 441.725 449.35 433.205 455.887C400.113 481.28 352.075 481.28 256.001 481.28C159.926 481.28 111.889 481.28 78.7961 455.887C70.2766 449.35 62.6507 441.724 56.1134 433.205C30.7207 400.112 30.7207 352.075 30.7207 256Z" fill="#030F21"/>
<path d="M186.515 225.246C186.515 213.01 189.529 201.927 195.559 191.996C201.588 182.065 209.745 174.263 220.031 168.588C230.493 162.736 242.109 159.81 254.877 159.81C268.886 159.81 280.945 163.179 291.053 169.918C301.338 176.479 309.318 185.967 314.993 198.38C320.845 210.793 323.771 225.778 323.771 243.334C323.771 267.451 320.756 287.579 314.727 303.716C308.875 319.853 300.54 332.089 289.723 340.424C279.083 348.581 266.492 352.66 251.951 352.66C239.892 352.66 228.809 349.911 218.701 344.414C208.593 338.739 200.435 330.848 194.229 320.74L211.519 302.652C215.597 309.923 221.272 315.775 228.543 320.208C235.813 324.641 243.705 326.858 252.217 326.858C261.083 326.858 268.797 324.375 275.359 319.41C281.92 314.445 287.063 307.174 290.787 297.598C294.511 287.845 296.373 276.229 296.373 262.752C293.89 267.895 290.432 272.417 285.999 276.318C281.565 280.219 276.423 283.234 270.571 285.362C264.896 287.49 258.689 288.554 251.951 288.554C239.892 288.554 228.809 285.717 218.701 280.042C208.77 274.367 200.879 266.742 195.027 257.166C189.352 247.59 186.515 236.95 186.515 225.246ZM254.611 184.548C247.34 184.548 240.69 186.41 234.661 190.134C228.631 193.681 223.755 198.557 220.031 204.764C216.484 210.971 214.711 217.709 214.711 224.98C214.711 232.251 216.484 238.901 220.031 244.93C223.755 250.959 228.631 255.836 234.661 259.56C240.867 263.107 247.606 264.88 254.877 264.88C262.147 264.88 268.797 263.107 274.827 259.56C281.033 255.836 285.91 250.959 289.457 244.93C293.181 238.901 295.043 232.339 295.043 225.246C295.043 217.798 293.181 211.059 289.457 205.03C285.733 198.823 280.767 193.858 274.561 190.134C268.531 186.41 261.881 184.548 254.611 184.548Z" fill="white"/>
</svg>
