<svg width="512" height="512" viewBox="0 0 512 512" fill="none" xmlns="http://www.w3.org/2000/svg">
<path d="M30.7212 256C30.7212 159.925 30.7212 111.888 56.1139 78.7951C62.6512 70.2756 70.277 62.6497 78.7966 56.1125C111.889 30.7197 159.926 30.7197 256.001 30.7197C352.076 30.7197 400.113 30.7197 433.206 56.1125C441.725 62.6497 449.351 70.2756 455.888 78.7951C481.281 111.888 481.281 159.925 481.281 256C481.281 352.074 481.281 400.112 455.888 433.204C449.351 441.724 441.725 449.35 433.206 455.887C400.113 481.28 352.076 481.28 256.001 481.28C159.926 481.28 111.889 481.28 78.7966 455.887C70.277 449.35 62.6512 441.724 56.1139 433.204C30.7212 400.112 30.7212 352.074 30.7212 256Z" fill="#030F21"/>
<path d="M204.047 218.467H280.548V329.646H318.604V359H204.047V329.646H244.051V247.95H204.047V218.467ZM241.453 182.489C241.453 179.718 241.929 177.164 242.882 174.826C243.921 172.402 245.35 170.324 247.168 168.592C248.986 166.947 251.151 165.648 253.662 164.695C256.26 163.743 259.117 163.267 262.234 163.267C268.642 163.267 273.707 165.085 277.431 168.722C281.241 172.272 283.146 176.861 283.146 182.489C283.146 188.118 281.241 192.75 277.431 196.387C273.707 199.937 268.642 201.712 262.234 201.712C259.117 201.712 256.26 201.236 253.662 200.283C251.151 199.331 248.986 197.989 247.168 196.257C245.35 194.612 243.921 192.62 242.882 190.282C241.929 187.858 241.453 185.26 241.453 182.489Z" fill="white"/>
</svg>
