<svg width="512" height="512" viewBox="0 0 512 512" fill="none" xmlns="http://www.w3.org/2000/svg">
<path d="M30.7207 256C30.7207 159.925 30.7207 111.888 56.1134 78.7956C62.6507 70.2761 70.2766 62.6502 78.7961 56.113C111.889 30.7202 159.926 30.7202 256.001 30.7202C352.075 30.7202 400.113 30.7202 433.205 56.113C441.725 62.6502 449.351 70.2761 455.888 78.7956C481.281 111.888 481.281 159.925 481.281 256C481.281 352.075 481.281 400.112 455.888 433.205C449.351 441.724 441.725 449.35 433.205 455.887C400.113 481.28 352.075 481.28 256.001 481.28C159.926 481.28 111.889 481.28 78.7961 455.887C70.2766 449.35 62.6507 441.724 56.1134 433.205C30.7207 400.112 30.7207 352.075 30.7207 256Z" fill="#030F21"/>
<path fill-rule="evenodd" clip-rule="evenodd" d="M197.812 226.906C197.812 197.066 222.003 172.875 251.844 172.875C271.664 172.875 289.009 183.554 298.411 199.481C283.123 202.766 269.566 210.722 259.327 221.762C254.644 226.811 254.941 234.7 259.99 239.383C265.039 244.066 272.928 243.769 277.611 238.72C286.736 228.881 299.737 222.75 314.189 222.75C314.469 222.75 314.747 222.741 315.022 222.723C315.296 222.75 315.573 222.768 315.851 222.777C342.622 223.65 364.062 245.636 364.062 272.625C364.062 300.17 341.733 322.5 314.188 322.5H314.188H314.188H185.384L185.356 322.5H185.344C164.685 322.5 147.938 305.753 147.938 285.094C147.938 264.445 164.669 247.703 185.314 247.688L185.796 247.69C189.382 247.708 192.803 246.181 195.184 243.498C197.565 240.815 198.675 237.237 198.231 233.678C197.955 231.465 197.812 229.205 197.812 226.906ZM251.844 147.938C209.208 147.938 174.464 181.726 172.928 223.986C144.445 229.742 123 254.914 123 285.094C123 319.525 150.912 347.438 185.344 347.438L185.371 347.438H185.384H314.188H314.188H314.188H314.188C355.506 347.437 389 313.943 389 272.625C389 235.192 361.512 204.184 325.615 198.681C314.255 169.013 285.524 147.938 251.844 147.938Z" fill="white"/>
</svg>
