<svg width="512" height="512" viewBox="0 0 512 512" fill="none" xmlns="http://www.w3.org/2000/svg">
<path d="M30.7212 256C30.7212 159.925 30.7212 111.888 56.1139 78.7956C62.6512 70.2761 70.277 62.6502 78.7966 56.113C111.889 30.7202 159.926 30.7202 256.001 30.7202C352.076 30.7202 400.113 30.7202 433.206 56.113C441.725 62.6502 449.351 70.2761 455.888 78.7956C481.281 111.888 481.281 159.925 481.281 256C481.281 352.075 481.281 400.112 455.888 433.205C449.351 441.724 441.725 449.35 433.206 455.887C400.113 481.28 352.076 481.28 256.001 481.28C159.926 481.28 111.889 481.28 78.7966 455.887C70.277 449.35 62.6512 441.724 56.1139 433.205C30.7212 400.112 30.7212 352.075 30.7212 256Z" fill="#030F21"/>
<path d="M325.237 287.224C325.237 299.283 322.222 310.277 316.193 320.208C310.341 330.139 302.184 338.03 291.721 343.882C281.436 349.734 269.909 352.66 257.141 352.66C243.309 352.66 231.162 349.379 220.699 342.818C210.414 336.079 202.345 326.415 196.493 313.824C190.818 301.233 187.981 286.249 187.981 268.87C187.981 244.753 190.907 224.625 196.759 208.488C202.788 192.351 211.212 180.203 222.029 172.046C232.846 163.889 245.526 159.81 260.067 159.81C272.126 159.81 283.12 162.647 293.051 168.322C303.159 173.819 311.316 181.533 317.523 191.464L300.233 209.552C296.154 202.104 290.48 196.252 283.209 191.996C276.116 187.563 268.224 185.346 259.535 185.346C250.846 185.346 243.132 187.917 236.393 193.06C229.832 198.025 224.689 205.296 220.965 214.872C217.418 224.448 215.556 236.063 215.379 249.718C218.039 244.398 221.497 239.876 225.753 236.152C230.186 232.251 235.329 229.236 241.181 227.108C247.033 224.98 253.24 223.916 259.801 223.916C272.214 223.916 283.298 226.753 293.051 232.428C302.982 238.103 310.784 245.728 316.459 255.304C322.311 264.703 325.237 275.343 325.237 287.224ZM257.141 327.656C264.412 327.656 271.062 325.883 277.091 322.336C283.298 318.612 288.174 313.647 291.721 307.44C295.445 301.233 297.307 294.495 297.307 287.224C297.307 279.953 295.445 273.303 291.721 267.274C288.174 261.245 283.386 256.457 277.357 252.91C271.328 249.186 264.589 247.324 257.141 247.324C250.048 247.324 243.398 249.186 237.191 252.91C230.984 256.457 226.019 261.245 222.295 267.274C218.748 273.303 216.975 279.953 216.975 287.224C216.975 294.495 218.837 301.233 222.561 307.44C226.285 313.469 231.162 318.346 237.191 322.07C243.398 325.794 250.048 327.656 257.141 327.656Z" fill="white"/>
</svg>
