<svg width="512" height="512" viewBox="0 0 512 512" fill="none" xmlns="http://www.w3.org/2000/svg">
<path d="M30.7212 256C30.7212 159.925 30.7212 111.888 56.1139 78.7956C62.6512 70.2761 70.277 62.6502 78.7966 56.113C111.889 30.7202 159.926 30.7202 256.001 30.7202C352.076 30.7202 400.113 30.7202 433.206 56.113C441.725 62.6502 449.351 70.2761 455.888 78.7956C481.281 111.888 481.281 159.925 481.281 256C481.281 352.075 481.281 400.112 455.888 433.205C449.351 441.724 441.725 449.35 433.206 455.887C400.113 481.28 352.076 481.28 256.001 481.28C159.926 481.28 111.889 481.28 78.7966 455.887C70.277 449.35 62.6512 441.724 56.1139 433.205C30.7212 400.112 30.7212 352.075 30.7212 256Z" fill="#030F21"/>
<path d="M256.091 352.66C242.791 352.305 231.087 349.202 220.979 343.35C210.871 337.498 202.448 329.873 195.709 320.474C188.971 310.898 183.828 300.613 180.281 289.618C176.912 278.446 175.227 267.54 175.227 256.9C175.227 245.551 177.089 234.201 180.813 222.852C184.537 211.503 189.946 201.217 197.039 191.996C204.133 182.597 212.645 175.149 222.575 169.652C232.506 163.977 243.678 161.14 256.091 161.14C269.391 161.14 281.007 164.155 290.937 170.184C301.045 176.213 309.469 184.016 316.207 193.592C322.946 203.168 328 213.542 331.369 224.714C334.916 235.886 336.689 246.615 336.689 256.9C336.689 268.427 334.827 279.865 331.103 291.214C327.379 302.386 321.971 312.583 314.877 321.804C307.784 331.025 299.272 338.473 289.341 344.148C279.588 349.645 268.505 352.483 256.091 352.66ZM205.551 256.9C205.906 265.057 207.059 273.215 209.009 281.372C211.137 289.352 214.329 296.711 218.585 303.45C222.841 310.189 228.073 315.597 234.279 319.676C240.486 323.755 247.757 325.794 256.091 325.794C264.781 325.794 272.229 323.666 278.435 319.41C284.819 314.977 290.051 309.302 294.129 302.386C298.208 295.293 301.223 287.756 303.173 279.776C305.301 271.796 306.365 264.171 306.365 256.9C306.365 248.743 305.213 240.674 302.907 232.694C300.779 224.537 297.587 217.089 293.331 210.35C289.075 203.611 283.844 198.203 277.637 194.124C271.431 190.045 264.249 188.006 256.091 188.006C247.402 188.006 239.865 190.223 233.481 194.656C227.097 198.912 221.866 204.587 217.787 211.68C213.709 218.596 210.605 226.044 208.477 234.024C206.527 242.004 205.551 249.629 205.551 256.9Z" fill="white"/>
</svg>
