<svg width="512" height="512" viewBox="0 0 512 512" fill="none" xmlns="http://www.w3.org/2000/svg">
<path d="M30.7212 256C30.7212 159.925 30.7212 111.888 56.1139 78.7956C62.6512 70.2761 70.277 62.6502 78.7966 56.113C111.889 30.7202 159.926 30.7202 256.001 30.7202C352.076 30.7202 400.113 30.7202 433.206 56.113C441.725 62.6502 449.351 70.2761 455.888 78.7956C481.281 111.888 481.281 159.925 481.281 256C481.281 352.075 481.281 400.112 455.888 433.205C449.351 441.724 441.725 449.35 433.206 455.887C400.113 481.28 352.076 481.28 256.001 481.28C159.926 481.28 111.889 481.28 78.7966 455.887C70.277 449.35 62.6512 441.724 56.1139 433.205C30.7212 400.112 30.7212 352.075 30.7212 256Z" fill="#030F21"/>
<path d="M251.882 352.128C241.42 352.128 231.844 350.621 223.154 347.606C214.642 344.591 207.46 340.247 201.608 334.572C195.756 328.897 191.5 322.336 188.84 314.888L204.8 295.736C206.042 300.347 208.613 304.957 212.514 309.568C216.593 314.179 221.824 317.903 228.208 320.74C234.77 323.577 242.395 324.996 251.084 324.996C258.71 324.996 265.448 323.843 271.3 321.538C277.33 319.055 282.118 315.597 285.664 311.164C289.211 306.731 290.984 301.499 290.984 295.47C290.984 288.731 288.856 283.057 284.6 278.446C280.344 273.835 274.226 270.377 266.246 268.072C258.266 265.767 248.69 264.614 237.518 264.614H228.474V241.206H237.518C252.237 241.206 263.941 238.812 272.63 234.024C281.497 229.236 285.93 222.143 285.93 212.744C285.93 206.892 284.334 201.838 281.142 197.582C277.95 193.149 273.783 189.868 268.64 187.74C263.498 185.435 257.823 184.282 251.616 184.282C241.508 184.282 232.73 186.587 225.282 191.198C217.834 195.809 212.426 201.483 209.056 208.222L189.904 187.208C193.628 181.356 198.771 176.302 205.332 172.046C211.894 167.79 219.253 164.509 227.41 162.204C235.745 159.899 244.168 158.746 252.68 158.746C265.094 158.746 276.177 160.963 285.93 165.396C295.684 169.829 303.309 175.947 308.806 183.75C314.304 191.375 317.052 200.065 317.052 209.818C317.052 216.911 315.545 223.295 312.53 228.97C309.693 234.645 305.526 239.433 300.028 243.334C294.708 247.058 288.324 249.807 280.876 251.58C288.856 252.999 295.861 256.013 301.89 260.624C308.097 265.235 312.796 270.909 315.988 277.648C319.358 284.387 321.042 291.746 321.042 299.726C321.042 310.721 317.85 320.119 311.466 327.922C305.26 335.725 296.925 341.754 286.462 346.01C276 350.089 264.473 352.128 251.882 352.128Z" fill="white"/>
</svg>
