<svg width="512" height="512" viewBox="0 0 512 512" fill="none" xmlns="http://www.w3.org/2000/svg">
<path d="M30.7212 256C30.7212 159.925 30.7212 111.888 56.1139 78.7956C62.6512 70.2761 70.277 62.6502 78.7966 56.113C111.889 30.7202 159.926 30.7202 256.001 30.7202C352.076 30.7202 400.113 30.7202 433.206 56.113C441.725 62.6502 449.351 70.2761 455.888 78.7956C481.281 111.888 481.281 159.925 481.281 256C481.281 352.075 481.281 400.112 455.888 433.205C449.351 441.724 441.725 449.35 433.206 455.887C400.113 481.28 352.076 481.28 256.001 481.28C159.926 481.28 111.889 481.28 78.7966 455.887C70.277 449.35 62.6512 441.724 56.1139 433.205C30.7212 400.112 30.7212 352.075 30.7212 256Z" fill="#030F21"/>
<path fill-rule="evenodd" clip-rule="evenodd" d="M289.25 280.938H299.579L306.883 288.242L331.986 313.344C332.526 313.884 333.259 314.188 334.023 314.188C335.7 314.188 337.023 312.759 336.894 311.086L335.035 286.918L334.001 273.477L344.68 265.25C356.36 256.252 364.062 242.887 364.062 222.75C364.062 202.574 356.331 189.191 344.601 180.189C332.071 170.573 312.982 164.562 289.25 164.562C265.518 164.562 246.429 170.573 233.899 180.189C222.169 189.191 214.438 202.574 214.438 222.75C214.438 242.926 222.169 256.309 233.899 265.311C246.429 274.927 265.518 280.938 289.25 280.938ZM297.894 314.519L314.352 330.977C319.569 336.194 326.645 339.125 334.023 339.125C350.227 339.125 363.001 325.33 361.759 309.174L359.899 285.005C377.883 271.151 389 250.399 389 222.75C389 167.333 344.34 139.625 289.25 139.625C253.892 139.625 222.831 151.039 205.116 173.867C158.436 179.259 123 206.636 123 256C123 283.649 134.118 304.401 152.101 318.255L150.242 342.424C148.999 358.58 161.773 372.375 177.978 372.375C185.355 372.375 192.431 369.444 197.648 364.227L222.75 339.125C252.723 339.125 279.609 330.923 297.894 314.519ZM191.878 201.734C190.321 208.23 189.5 215.235 189.5 222.75C189.5 271.051 223.426 298.302 268.616 304.504C256.7 310.588 241.116 314.188 222.75 314.188H212.421L205.117 321.492L180.014 346.594C179.474 347.134 178.742 347.438 177.978 347.438C176.3 347.438 174.977 346.009 175.106 344.336L176.965 320.168L177.999 306.727L167.32 298.5C155.64 289.502 147.938 276.137 147.938 256C147.938 235.824 155.67 222.441 167.399 213.439C173.888 208.459 182.137 204.446 191.878 201.734Z" fill="white"/>
</svg>
