<svg width="512" height="512" viewBox="0 0 512 512" fill="none" xmlns="http://www.w3.org/2000/svg">
<path d="M30.7212 256C30.7212 159.925 30.7212 111.888 56.1139 78.7956C62.6512 70.2761 70.277 62.6502 78.7966 56.113C111.889 30.7202 159.926 30.7202 256.001 30.7202C352.076 30.7202 400.113 30.7202 433.206 56.113C441.725 62.6502 449.351 70.2761 455.888 78.7956C481.281 111.888 481.281 159.925 481.281 256C481.281 352.075 481.281 400.112 455.888 433.205C449.351 441.724 441.725 449.35 433.206 455.887C400.113 481.28 352.076 481.28 256.001 481.28C159.926 481.28 111.889 481.28 78.7966 455.887C70.277 449.35 62.6512 441.724 56.1139 433.205C30.7212 400.112 30.7212 352.075 30.7212 256Z" fill="#030F21"/>
<path fill-rule="evenodd" clip-rule="evenodd" d="M226.906 123C220.02 123 214.437 128.582 214.437 135.469C214.437 142.355 220.02 147.937 226.906 147.937H285.094C291.98 147.937 297.562 142.355 297.562 135.469C297.562 128.582 291.98 123 285.094 123H226.906ZM339.125 272.625C339.125 318.534 301.909 355.75 256 355.75C210.091 355.75 172.875 318.534 172.875 272.625C172.875 226.716 210.091 189.5 256 189.5C301.909 189.5 339.125 226.716 339.125 272.625ZM364.062 272.625C364.062 332.306 315.681 380.687 256 380.687C196.319 380.687 147.938 332.306 147.938 272.625C147.938 212.944 196.319 164.562 256 164.562C315.681 164.562 364.062 212.944 364.062 272.625ZM326.152 151.59C331.021 146.72 338.916 146.72 343.785 151.59L368.723 176.527C373.592 181.396 373.592 189.291 368.723 194.16C363.854 199.03 355.959 199.03 351.089 194.16L326.152 169.223C321.283 164.354 321.283 156.459 326.152 151.59ZM268.469 222.75C268.469 215.864 262.886 210.281 256 210.281C249.114 210.281 243.531 215.864 243.531 222.75V272.625C243.531 276.55 245.379 280.245 248.519 282.6L270.685 299.225C276.194 303.357 284.01 302.24 288.142 296.731C292.273 291.222 291.157 283.407 285.648 279.275L268.469 266.391V222.75Z" fill="white"/>
</svg>
