<svg width="512" height="512" viewBox="0 0 512 512" fill="none" xmlns="http://www.w3.org/2000/svg">
<path d="M30.7212 256C30.7212 159.925 30.7212 111.888 56.1139 78.7956C62.6512 70.2761 70.277 62.6502 78.7966 56.113C111.889 30.7202 159.926 30.7202 256.001 30.7202C352.076 30.7202 400.113 30.7202 433.206 56.113C441.725 62.6502 449.351 70.2761 455.888 78.7956C481.281 111.888 481.281 159.925 481.281 256C481.281 352.075 481.281 400.112 455.888 433.205C449.351 441.724 441.725 449.35 433.206 455.887C400.113 481.28 352.076 481.28 256.001 481.28C159.926 481.28 111.889 481.28 78.7966 455.887C70.277 449.35 62.6512 441.724 56.1139 433.205C30.7212 400.112 30.7212 352.075 30.7212 256Z" fill="#030F21"/>
<path fill-rule="evenodd" clip-rule="evenodd" d="M256 147.938C201.113 147.938 155.8 188.847 148.858 241.844C147.963 248.672 152.774 254.932 159.602 255.827C166.43 256.721 172.69 251.911 173.584 245.083C178.921 204.338 213.796 172.875 256 172.875C279.248 172.875 300.265 182.408 315.364 197.812H293.406C286.52 197.812 280.937 203.395 280.937 210.281C280.937 217.168 286.52 222.75 293.406 222.75H343.281C350.167 222.75 355.75 217.168 355.75 210.281V160.406C355.75 153.52 350.167 147.938 343.281 147.938C336.395 147.938 330.812 153.52 330.812 160.406V178.023C311.406 159.402 285.04 147.938 256 147.938ZM168.719 364.062C161.832 364.062 156.25 358.48 156.25 351.594L156.25 301.719C156.25 294.832 161.832 289.25 168.719 289.25H218.594C225.48 289.25 231.062 294.832 231.062 301.719C231.062 308.605 225.48 314.187 218.594 314.187H196.636C211.734 329.591 232.752 339.125 256 339.125C298.203 339.125 333.079 307.662 338.416 266.917C339.31 260.089 345.57 255.279 352.398 256.173C359.226 257.068 364.036 263.328 363.142 270.156C356.2 323.153 310.887 364.062 256 364.062C226.96 364.062 200.593 352.598 181.187 333.977V351.594C181.187 358.48 175.605 364.062 168.719 364.062Z" fill="white"/>
</svg>
