<svg width="512" height="512" viewBox="0 0 512 512" fill="none" xmlns="http://www.w3.org/2000/svg">
<path d="M30.7212 256C30.7212 159.925 30.7212 111.888 56.1139 78.7956C62.6512 70.2761 70.277 62.6502 78.7966 56.113C111.889 30.7202 159.926 30.7202 256.001 30.7202C352.076 30.7202 400.113 30.7202 433.206 56.113C441.725 62.6502 449.351 70.2761 455.888 78.7956C481.281 111.888 481.281 159.925 481.281 256C481.281 352.075 481.281 400.112 455.888 433.205C449.351 441.724 441.725 449.35 433.206 455.887C400.113 481.28 352.076 481.28 256.001 481.28C159.926 481.28 111.889 481.28 78.7966 455.887C70.277 449.35 62.6512 441.724 56.1139 433.205C30.7212 400.112 30.7212 352.075 30.7212 256Z" fill="#030F21"/>
<path d="M312.014 323.666V350H211.732V323.666H248.174V189.07C246.755 191.198 244.361 193.592 240.992 196.252C237.8 198.735 234.164 201.217 230.086 203.7C226.007 206.005 221.751 207.956 217.318 209.552C213.062 211.148 209.16 211.946 205.614 211.946V184.814C210.402 184.814 215.19 183.573 219.978 181.09C224.943 178.607 229.554 175.77 233.81 172.578C238.066 169.209 241.435 166.194 243.918 163.534C246.578 160.874 247.996 159.455 248.174 159.278H278.232V323.666H312.014Z" fill="white"/>
</svg>
