<svg width="512" height="512" viewBox="0 0 512 512" fill="none" xmlns="http://www.w3.org/2000/svg">
<path d="M30.7197 256C30.7197 159.925 30.7197 111.888 56.1125 78.7956C62.6497 70.2761 70.2756 62.6502 78.7951 56.113C111.888 30.7202 159.925 30.7202 256 30.7202C352.074 30.7202 400.112 30.7202 433.204 56.113C441.724 62.6502 449.35 70.2761 455.887 78.7956C481.28 111.888 481.28 159.925 481.28 256C481.28 352.075 481.28 400.112 455.887 433.205C449.35 441.724 441.724 449.35 433.204 455.887C400.112 481.28 352.074 481.28 256 481.28C159.925 481.28 111.888 481.28 78.7951 455.887C70.2756 449.35 62.6497 441.724 56.1125 433.205C30.7197 400.112 30.7197 352.075 30.7197 256Z" fill="#008CFF"/>
<g clip-path="url(#clip0_3216_17385)">
<path fill-rule="evenodd" clip-rule="evenodd" d="M210.312 264.672L282.772 220.391C288.653 216.797 296.334 218.651 299.928 224.532C303.522 230.414 301.668 238.095 295.787 241.689L232.477 280.379L285.454 333.356C289.196 337.098 294.271 339.2 299.563 339.2C307.922 339.2 315.395 333.989 318.285 326.146L363.086 204.541C363.796 202.615 364.159 200.578 364.159 198.524C364.159 188.912 356.367 181.12 346.755 181.12H345.031C343.351 181.12 341.679 181.341 340.058 181.778L156.54 231.186C151.407 232.569 147.839 237.223 147.839 242.539C147.839 248.144 151.795 252.969 157.291 254.068L210.312 264.672ZM152.396 278.543L206.079 289.28L267.805 351.006C276.228 359.428 287.651 364.16 299.563 364.16C318.379 364.16 335.201 352.431 341.706 334.774L386.507 213.17C388.235 208.48 389.119 203.522 389.119 198.524C389.119 175.127 370.152 156.16 346.755 156.16H345.031C341.16 156.16 337.306 156.67 333.569 157.676L150.051 207.085C134.02 211.401 122.879 225.937 122.879 242.539C122.879 260.042 135.233 275.111 152.396 278.543Z" fill="white"/>
</g>
<defs>
<clipPath id="clip0_3216_17385">
<rect width="266.24" height="266.24" fill="white" transform="translate(122.879 122.88)"/>
</clipPath>
</defs>
</svg>
