<svg width="512" height="512" viewBox="0 0 512 512" fill="none" xmlns="http://www.w3.org/2000/svg">
<path d="M30.7197 256C30.7197 159.925 30.7197 111.888 56.1125 78.7956C62.6497 70.2761 70.2756 62.6502 78.7951 56.113C111.888 30.7202 159.925 30.7202 256 30.7202C352.074 30.7202 400.112 30.7202 433.204 56.113C441.724 62.6502 449.35 70.2761 455.887 78.7956C481.28 111.888 481.28 159.925 481.28 256C481.28 352.075 481.28 400.112 455.887 433.205C449.35 441.724 441.724 449.35 433.204 455.887C400.112 481.28 352.074 481.28 256 481.28C159.925 481.28 111.888 481.28 78.7951 455.887C70.2756 449.35 62.6497 441.724 56.1125 433.205C30.7197 400.112 30.7197 352.075 30.7197 256Z" fill="white"/>
<path d="M365.979 237.923L238.988 372.383C233.915 377.755 226.852 380.8 219.463 380.8C200.825 380.8 187.854 362.28 194.223 344.765L214.4 289.28H167.425C152.013 289.28 139.52 276.786 139.52 261.374C139.52 257.824 140.197 254.306 141.515 251.01L180.17 154.374C185.768 140.378 199.325 131.2 214.4 131.2H280.96C297.062 131.2 308.208 147.283 302.554 162.361L289.28 197.76H348.667C361.818 197.76 372.48 208.421 372.48 221.572C372.48 227.652 370.154 233.502 365.979 237.923Z" fill="#FA8824"/>
</svg>
