<svg width="512" height="512" viewBox="0 0 512 512" fill="none" xmlns="http://www.w3.org/2000/svg">
<path d="M30.7188 256C30.7188 159.925 30.7188 111.888 56.1115 78.7956C62.6488 70.2761 70.2746 62.6502 78.7941 56.113C111.887 30.7202 159.924 30.7202 255.999 30.7202C352.074 30.7202 400.111 30.7202 433.203 56.113C441.723 62.6502 449.349 70.2761 455.886 78.7956C481.279 111.888 481.279 159.925 481.279 256C481.279 352.075 481.279 400.112 455.886 433.205C449.349 441.724 441.723 449.35 433.203 455.887C400.111 481.28 352.074 481.28 255.999 481.28C159.924 481.28 111.887 481.28 78.7941 455.887C70.2746 449.35 62.6488 441.724 56.1115 433.205C30.7188 400.112 30.7188 352.075 30.7188 256Z" fill="#030F21"/>
<path fill-rule="evenodd" clip-rule="evenodd" d="M272.642 156.16H239.362C234.767 156.16 231.042 159.885 231.042 164.48V172.8H280.962V164.48C280.962 159.885 277.237 156.16 272.642 156.16ZM305.922 172.8V164.48C305.922 146.1 291.022 131.2 272.642 131.2H239.362C220.982 131.2 206.082 146.1 206.082 164.48V172.8H189.462H164.481H160.323C153.431 172.8 147.843 178.387 147.843 185.28C147.843 192.172 153.431 197.76 160.323 197.76H165.521L170.807 324.638C171.922 351.376 193.922 372.48 220.684 372.48H291.318C318.079 372.48 340.08 351.376 341.194 324.638L346.481 197.76H351.682C358.575 197.76 364.162 192.172 364.162 185.28C364.162 178.387 358.575 172.8 351.682 172.8H347.521H322.539H305.922ZM321.499 197.76H305.922H280.962H231.042H206.082H190.502L195.746 323.599C196.303 336.968 207.303 347.52 220.684 347.52H291.318C304.698 347.52 315.699 336.968 316.256 323.599L321.499 197.76ZM218.559 231.04V314.24C218.559 321.132 224.146 326.72 231.039 326.72C237.931 326.72 243.519 321.132 243.519 314.24V231.04C243.519 224.147 237.931 218.56 231.039 218.56C224.146 218.56 218.559 224.147 218.559 231.04ZM280.959 218.56C287.851 218.56 293.439 224.147 293.439 231.04V314.24C293.439 321.132 287.851 326.72 280.959 326.72C274.066 326.72 268.479 321.132 268.479 314.24V231.04C268.479 224.147 274.066 218.56 280.959 218.56Z" fill="white"/>
</svg>
