<svg width="512" height="512" viewBox="0 0 512 512" fill="none" xmlns="http://www.w3.org/2000/svg">
<path d="M30.7192 256C30.7192 159.925 30.7192 111.888 56.112 78.7956C62.6493 70.2761 70.2751 62.6502 78.7946 56.113C111.887 30.7202 159.924 30.7202 255.999 30.7202C352.074 30.7202 400.111 30.7202 433.204 56.113C441.723 62.6502 449.349 70.2761 455.887 78.7956C481.279 111.888 481.279 159.925 481.279 256C481.279 352.075 481.279 400.112 455.887 433.205C449.349 441.724 441.723 449.35 433.204 455.887C400.111 481.28 352.074 481.28 255.999 481.28C159.924 481.28 111.887 481.28 78.7946 455.887C70.2751 449.35 62.6493 441.724 56.112 433.205C30.7192 400.112 30.7192 352.075 30.7192 256Z" fill="#030F21"/>
<path fill-rule="evenodd" clip-rule="evenodd" d="M247.679 347.52V326.72V297.6C247.679 293.005 251.404 289.28 255.999 289.28H267.174C269.381 289.28 271.497 290.156 273.057 291.717L279.95 298.609L287.261 305.92H297.599H339.199C343.794 305.92 347.519 309.645 347.519 314.24V347.52C347.519 352.115 343.794 355.84 339.199 355.84H255.999C251.404 355.84 247.679 352.115 247.679 347.52ZM222.719 339.2H197.759C170.189 339.2 147.839 316.85 147.839 289.28V156.16V143.68C147.839 136.787 153.427 131.2 160.319 131.2C167.212 131.2 172.799 136.787 172.799 143.68V156.16C172.799 169.945 183.974 181.12 197.759 181.12H222.719V164.48C222.719 146.1 237.619 131.2 255.999 131.2H267.174C276.001 131.2 284.466 134.706 290.707 140.947L297.599 147.84H339.199C357.579 147.84 372.479 162.74 372.479 181.12V214.4C372.479 232.78 357.579 247.68 339.199 247.68H255.999C237.619 247.68 222.719 232.78 222.719 214.4V206.08H197.759C188.667 206.08 180.142 203.649 172.799 199.401V289.28C172.799 303.065 183.974 314.24 197.759 314.24H222.719V297.6C222.719 279.22 237.619 264.32 255.999 264.32H267.174C276.001 264.32 284.466 267.826 290.707 274.067L297.599 280.96H339.199C357.579 280.96 372.479 295.86 372.479 314.24V347.52C372.479 365.9 357.579 380.8 339.199 380.8H255.999C237.619 380.8 222.719 365.9 222.719 347.52V339.2ZM247.679 193.6V214.4C247.679 218.995 251.404 222.72 255.999 222.72H339.199C343.794 222.72 347.519 218.995 347.519 214.4V181.12C347.519 176.525 343.794 172.8 339.199 172.8H297.599H287.261L279.95 165.489L273.057 158.597C271.497 157.036 269.381 156.16 267.174 156.16H255.999C251.404 156.16 247.679 159.885 247.679 164.48V193.6Z" fill="white"/>
</svg>
