<svg width="512" height="512" viewBox="0 0 512 512" fill="none" xmlns="http://www.w3.org/2000/svg">
<path d="M30.7212 256C30.7212 159.925 30.7212 111.888 56.1139 78.7956C62.6512 70.2761 70.277 62.6502 78.7966 56.113C111.889 30.7202 159.926 30.7202 256.001 30.7202C352.076 30.7202 400.113 30.7202 433.206 56.113C441.725 62.6502 449.351 70.2761 455.888 78.7956C481.281 111.888 481.281 159.925 481.281 256C481.281 352.075 481.281 400.112 455.888 433.205C449.351 441.724 441.725 449.35 433.206 455.887C400.113 481.28 352.076 481.28 256.001 481.28C159.926 481.28 111.889 481.28 78.7966 455.887C70.277 449.35 62.6512 441.724 56.1139 433.205C30.7212 400.112 30.7212 352.075 30.7212 256Z" fill="#030F21"/>
<path fill-rule="evenodd" clip-rule="evenodd" d="M308.972 315.812C308.145 316.141 303.321 317.677 290.439 312.703C274.592 306.583 252.865 292.443 227.89 267.469C202.916 242.495 188.776 220.768 182.657 204.921C177.685 192.043 179.218 187.219 179.547 186.389C205.677 160.849 265.694 152.904 304.073 191.284C342.691 229.902 335.929 288.3 308.972 315.812ZM219.219 293.791C268.269 339.504 309.537 350.55 326.18 333.907C360.5 299.588 369.712 231.704 330.094 182.913L339.705 173.302C344.579 168.428 344.579 160.526 339.705 155.652C334.831 150.779 326.929 150.779 322.056 155.652L312.427 165.281C263.461 125.838 194.202 136.431 161.453 169.18C144.81 185.823 155.856 227.091 201.57 276.142L163.978 313.731C149.913 327.795 149.913 350.597 163.977 364.661C178.04 378.725 200.842 378.725 214.906 364.661L219.066 360.501C223.94 355.627 223.94 347.725 219.066 342.852C214.192 337.978 206.29 337.978 201.417 342.852L197.256 347.012C192.94 351.328 185.942 351.328 181.626 347.012C177.31 342.696 177.31 335.698 181.626 331.381L219.219 293.791Z" fill="white"/>
</svg>
