<svg width="512" height="512" viewBox="0 0 512 512" fill="none" xmlns="http://www.w3.org/2000/svg">
<path d="M30.7183 256C30.7183 159.925 30.7183 111.888 56.111 78.7956C62.6483 70.2761 70.2741 62.6502 78.7937 56.113C111.886 30.7202 159.923 30.7202 255.998 30.7202C352.073 30.7202 400.11 30.7202 433.203 56.113C441.722 62.6502 449.348 70.2761 455.886 78.7956C481.278 111.888 481.278 159.925 481.278 256C481.278 352.075 481.278 400.112 455.886 433.205C449.348 441.724 441.722 449.35 433.203 455.887C400.11 481.28 352.073 481.28 255.998 481.28C159.923 481.28 111.886 481.28 78.7937 455.887C70.2741 449.35 62.6483 441.724 56.111 433.205C30.7183 400.112 30.7183 352.075 30.7183 256Z" fill="#030F21"/>
<path fill-rule="evenodd" clip-rule="evenodd" d="M314.238 181.12H322.558C336.343 181.12 347.518 192.295 347.518 206.08V214.4H314.238V181.12ZM314.238 239.36V272.64H347.518V239.36H314.238ZM372.478 239.36V272.64V297.6V305.92C372.478 333.49 350.128 355.84 322.558 355.84H314.238H289.278H222.718H197.758H189.438C161.868 355.84 139.518 333.49 139.518 305.92V297.6V272.64V239.36V214.4V206.08C139.518 178.51 161.868 156.16 189.438 156.16H197.758H222.718H289.278H314.238H322.558C350.128 156.16 372.478 178.51 372.478 206.08V214.4V239.36ZM347.518 297.6H314.238V330.88H322.558C336.343 330.88 347.518 319.705 347.518 305.92V297.6ZM289.278 181.12H222.718V330.88H289.278V181.12ZM197.758 330.88V297.6H164.478V305.92C164.478 319.705 175.653 330.88 189.438 330.88H197.758ZM197.758 239.36V272.64H164.478V239.36H197.758ZM197.758 214.4H164.478V206.08C164.478 192.295 175.653 181.12 189.438 181.12H197.758V214.4Z" fill="white"/>
</svg>
