<svg width="512" height="512" viewBox="0 0 512 512" fill="none" xmlns="http://www.w3.org/2000/svg">
<path d="M30.7198 256C30.7198 159.925 30.7198 111.888 56.1125 78.7956C62.6498 70.2761 70.2756 62.6502 78.7952 56.113C111.888 30.7202 159.925 30.7202 256 30.7202C352.075 30.7202 400.112 30.7202 433.204 56.113C441.724 62.6502 449.35 70.2761 455.887 78.7956C481.28 111.888 481.28 159.925 481.28 256C481.28 352.075 481.28 400.112 455.887 433.205C449.35 441.724 441.724 449.35 433.204 455.887C400.112 481.28 352.075 481.28 256 481.28C159.925 481.28 111.888 481.28 78.7952 455.887C70.2756 449.35 62.6498 441.724 56.1125 433.205C30.7198 400.112 30.7198 352.075 30.7198 256Z" fill="#0339E1"/>
<path fill-rule="evenodd" clip-rule="evenodd" d="M319.03 172.369L268.48 179.591V243.52H347.52V197.078C347.52 181.889 334.067 170.221 319.03 172.369ZM347.52 268.48H268.48V332.41L319.03 339.631C334.067 341.779 347.52 330.111 347.52 314.922V268.48ZM243.52 243.52V183.156L185.91 191.386C173.613 193.143 164.48 203.674 164.48 216.095V243.52H243.52ZM164.48 268.48H243.52V328.844L185.91 320.614C173.613 318.857 164.48 308.326 164.48 295.905V268.48ZM182.38 166.677C157.787 170.19 139.52 191.253 139.52 216.095V295.905C139.52 320.747 157.787 341.81 182.38 345.323L315.5 364.34C345.573 368.636 372.48 345.301 372.48 314.922V197.078C372.48 166.7 345.574 143.364 315.5 147.66L182.38 166.677Z" fill="white"/>
</svg>
