<svg width="512" height="512" viewBox="0 0 512 512" fill="none" xmlns="http://www.w3.org/2000/svg">
<path d="M30.7192 256C30.7192 159.925 30.7192 111.888 56.112 78.7956C62.6493 70.2761 70.2751 62.6502 78.7946 56.113C111.887 30.7202 159.924 30.7202 255.999 30.7202C352.074 30.7202 400.111 30.7202 433.204 56.113C441.723 62.6502 449.349 70.2761 455.887 78.7956C481.279 111.888 481.279 159.925 481.279 256C481.279 352.075 481.279 400.112 455.887 433.205C449.349 441.724 441.723 449.35 433.204 455.887C400.111 481.28 352.074 481.28 255.999 481.28C159.924 481.28 111.887 481.28 78.7946 455.887C70.2751 449.35 62.6493 441.724 56.112 433.205C30.7192 400.112 30.7192 352.075 30.7192 256Z" fill="#030F21"/>
<path fill-rule="evenodd" clip-rule="evenodd" d="M305.919 347.52H206.079C192.294 347.52 181.119 336.345 181.119 322.56L181.119 189.44C181.119 175.655 192.294 164.48 206.079 164.48H214.399V176.96C214.399 183.853 219.987 189.44 226.879 189.44H239.359V222.72H226.879C219.987 222.72 214.399 228.307 214.399 235.2V243.52C214.399 250.413 219.987 256 226.879 256H239.359V289.28H226.879C219.987 289.28 214.399 294.867 214.399 301.76V310.08C214.399 316.972 219.987 322.56 226.879 322.56H239.359V289.28H251.839C258.732 289.28 264.319 283.692 264.319 276.8V268.48C264.319 261.587 258.732 256 251.839 256H239.359V222.72H251.839C258.732 222.72 264.319 217.133 264.319 210.24V201.92C264.319 195.027 258.732 189.44 251.839 189.44H239.359V164.48H251.962C258.581 164.48 264.93 167.11 269.611 171.791L323.569 225.748C328.249 230.429 330.879 236.778 330.879 243.398V322.56C330.879 336.345 319.704 347.52 305.919 347.52ZM341.218 208.099C350.58 217.461 355.839 230.158 355.839 243.398L355.839 322.56C355.839 350.13 333.489 372.48 305.919 372.48H206.079C178.509 372.48 156.159 350.13 156.159 322.56V189.44C156.159 161.87 178.509 139.52 206.079 139.52H251.962C265.201 139.52 277.899 144.779 287.26 154.141L341.218 208.099Z" fill="white"/>
</svg>
